<?xml version="1.0" standalone="no"?>
<!DOCTYPE svg PUBLIC "-//W3C//DTD SVG 1.1//EN" "http://www.w3.org/Graphics/SVG/1.1/DTD/svg11.dtd" >
<svg xmlns="http://www.w3.org/2000/svg" xmlns:xlink="http://www.w3.org/1999/xlink" version="1.1">
<metadata>
Created by FontForge 20170731 at Mon Jan 22 21:17:33 2018
 By Aleksey,,,
(c) 2015 Klim Type Foundry. All Rights Reserved.
</metadata>
<defs>
<font id="PayPalSansSmall-Regular" horiz-adv-x="589" >
  <font-face 
    font-family="PayPal Sans Small"
    font-weight="400"
    font-variant="small-caps"
    font-stretch="normal"
    units-per-em="1024"
    panose-1="2 11 5 3 4 5 4 4 2 4"
    ascent="819"
    descent="-205"
    x-height="512"
    cap-height="700"
    bbox="-45 -227 1157 995"
    underline-thickness="73"
    underline-position="-416"
    unicode-range="U+0020-FB02"
  />
<missing-glyph horiz-adv-x="277" 
 />
    <glyph glyph-name="fi" unicode="fi" horiz-adv-x="596" 
d="M115 0v441h-75v71h75v17q0 110 63.5 177t162.5 67q65 0 108 -26v-75q-52 25 -102 25q-67 0 -105.5 -42t-38.5 -126v-17h299v-512h-88v441h-211v-441h-88z" />
    <glyph glyph-name="fl" unicode="fl" horiz-adv-x="596" 
d="M203 0h-88v441h-75v71h75v18q0 110 65.5 176.5t174.5 66.5q79 0 147 -28v-745h-88v691q-29 9 -61 9q-72 0 -111 -43t-39 -127v-18h137v-71h-137v-441z" />
    <glyph glyph-name="f_b" unicode="fb" horiz-adv-x="902" 
d="M853 269q0 -125 -76 -202.5t-189 -77.5q-97 0 -174 43v659q-29 9 -61 9q-72 0 -111 -43t-39 -127v-18h137v-71h-137v-441h-88v441h-75v71h75v18q0 110 65.5 176.5t174.5 66.5q79 0 147 -28v-288q66 66 148 66q93 0 148 -68t55 -186zM502 77q36 -19 87 -19
q77 0 126.5 57.5t49.5 149.5q0 87 -37 135.5t-100 48.5q-72 0 -126 -50v-322z" />
    <glyph glyph-name="f_f_b" unicode="ffb" horiz-adv-x="1202" 
d="M1153 269q0 -125 -76 -202.5t-189 -77.5q-97 0 -174 43v659q-29 9 -61 9q-72 0 -111 -43t-39 -127v-18h137v-71h-137v-441h-88v441h-212v-441h-88v441h-75v71h75v13q0 107 53.5 169.5t140.5 62.5q32 0 64 -10v-71q-27 7 -54 7q-116 0 -116 -158v-13h212v18
q0 110 65.5 176.5t174.5 66.5q79 0 147 -28v-288q66 66 148 66q93 0 148 -68t55 -186zM802 77q36 -19 87 -19q77 0 126.5 57.5t49.5 149.5q0 87 -37 135.5t-100 48.5q-72 0 -126 -50v-322z" />
    <glyph glyph-name="f_f_h" unicode="ffh" horiz-adv-x="1197" 
d="M115 0v441h-75v71h75v13q0 107 53.5 169.5t140.5 62.5q32 0 64 -10v-71q-27 7 -54 7q-116 0 -116 -158v-13h212v18q0 110 65.5 176.5t174.5 66.5q79 0 147 -28v-288q76 66 158 66q74 0 112 -46t38 -127v-350h-88v336q0 56 -21.5 83.5t-71.5 27.5q-63 0 -127 -48v-399h-88
v691q-29 9 -61 9q-72 0 -111 -43t-39 -127v-18h137v-71h-137v-441h-88v441h-212v-441h-88z" />
    <glyph glyph-name="f_f_idieresis" unicode="ff&#xef;" horiz-adv-x="896" 
d="M115 0v441h-75v71h75v13q0 107 53.5 169.5t140.5 62.5q32 0 64 -10v-71q-27 7 -54 7q-116 0 -116 -158v-13h212v24q0 109 57 173t150 64q42 0 78 -12v-73q-32 9 -69 9q-128 0 -128 -163v-22h299v-512h-88v441h-211v-441h-88v441h-212v-441h-88zM794 672q0 25 17 42.5
t42 17.5t42 -17.5t17 -42.5t-17 -42t-42 -17t-42 17t-17 42z" />
    <glyph glyph-name="f_f_j" unicode="ffj" horiz-adv-x="896" 
d="M802 7q0 -122 -91 -222h-100q103 108 103 229v427h-211v-441h-88v441h-212v-441h-88v441h-75v71h75v13q0 107 53.5 169.5t140.5 62.5q32 0 64 -10v-71q-27 7 -54 7q-116 0 -116 -158v-13h212v17q0 110 63.5 177t162.5 67q65 0 108 -26v-75q-52 25 -102 25
q-67 0 -105.5 -42t-38.5 -126v-17h299v-505z" />
    <glyph glyph-name="f_f_k" unicode="ffk" horiz-adv-x="1162" 
d="M115 0v441h-75v71h75v13q0 107 53.5 169.5t140.5 62.5q32 0 64 -10v-71q-27 7 -54 7q-116 0 -116 -158v-13h212v18q0 110 65.5 176.5t174.5 66.5q79 0 147 -28v-449l222 216h109l-239 -227l263 -285h-110l-245 265v-265h-88v691q-29 9 -61 9q-72 0 -111 -43t-39 -127v-18
h137v-71h-137v-441h-88v441h-212v-441h-88z" />
    <glyph glyph-name="f_h" unicode="fh" horiz-adv-x="897" 
d="M203 0h-88v441h-75v71h75v18q0 110 65.5 176.5t174.5 66.5q79 0 147 -28v-288q76 66 158 66q74 0 112 -46t38 -127v-350h-88v336q0 56 -21.5 83.5t-71.5 27.5q-63 0 -127 -48v-399h-88v691q-29 9 -61 9q-72 0 -111 -43t-39 -127v-18h137v-71h-137v-441z" />
    <glyph glyph-name="f_idieresis" unicode="f&#xef;" horiz-adv-x="596" 
d="M115 0v441h-75v71h75v24q0 109 57 173t150 64q42 0 78 -12v-73q-32 9 -69 9q-128 0 -128 -163v-22h299v-512h-88v441h-211v-441h-88zM494 672q0 25 17 42.5t42 17.5t42 -17.5t17 -42.5t-17 -42t-42 -17t-42 17t-17 42z" />
    <glyph glyph-name="f_j" unicode="fj" horiz-adv-x="596" 
d="M502 7q0 -122 -91 -222h-100q103 108 103 229v427h-211v-441h-88v441h-75v71h75v17q0 110 63.5 177t162.5 67q65 0 108 -26v-75q-52 25 -102 25q-67 0 -105.5 -42t-38.5 -126v-17h299v-505z" />
    <glyph glyph-name="f_k" unicode="fk" horiz-adv-x="863" 
d="M203 0h-88v441h-75v71h75v18q0 110 65.5 176.5t174.5 66.5q79 0 147 -28v-449l222 216h109l-239 -227l263 -285h-110l-245 265v-265h-88v691q-29 9 -61 9q-72 0 -111 -43t-39 -127v-18h137v-71h-137v-441z" />
    <glyph glyph-name="f_f" unicode="ff" horiz-adv-x="658" 
d="M115 0v441h-75v71h75v13q0 107 53.5 169.5t140.5 62.5q32 0 64 -10v-71q-27 7 -54 7q-116 0 -116 -158v-13h211v25q0 109 55 172.5t144 63.5q37 0 71 -12v-72q-29 8 -60 8q-122 0 -122 -160v-25h143v-71h-143v-441h-88v441h-211v-441h-88z" />
    <glyph glyph-name="f_f_i" unicode="ffi" horiz-adv-x="896" 
d="M115 0v441h-75v71h75v13q0 107 53.5 169.5t140.5 62.5q32 0 64 -10v-71q-27 7 -54 7q-116 0 -116 -158v-13h212v17q0 110 63.5 177t162.5 67q65 0 108 -26v-75q-52 25 -102 25q-67 0 -105.5 -42t-38.5 -126v-17h299v-512h-88v441h-211v-441h-88v441h-212v-441h-88z" />
    <glyph glyph-name="f_f_l" unicode="ffl" horiz-adv-x="896" 
d="M115 0v441h-75v71h75v13q0 107 53.5 169.5t140.5 62.5q32 0 64 -10v-71q-27 7 -54 7q-116 0 -116 -158v-13h212v18q0 110 65.5 176.5t174.5 66.5q79 0 147 -28v-745h-88v691q-29 9 -61 9q-72 0 -111 -43t-39 -127v-18h137v-71h-137v-441h-88v441h-212v-441h-88z" />
    <glyph glyph-name=".notdef" horiz-adv-x="277" 
 />
    <glyph glyph-name=".null" horiz-adv-x="0" 
 />
    <glyph glyph-name="nonmarkingreturn" horiz-adv-x="341" 
 />
    <glyph glyph-name="space" unicode=" " horiz-adv-x="282" 
 />
    <glyph glyph-name="exclam" unicode="!" horiz-adv-x="299" 
d="M122 249l-30 452h116l-31 -452h-55zM76 69q0 30 22 53t52 23t52 -23t22 -53t-22 -52.5t-52 -22.5t-52 22.5t-22 52.5z" />
    <glyph glyph-name="quotedbl" unicode="&#x22;" horiz-adv-x="413" 
d="M73 762h105l-45 -277h-60v277zM246 762h105l-45 -277h-60v277z" />
    <glyph glyph-name="numbersign" unicode="#" horiz-adv-x="741" 
d="M425 185h-160l-32 -185h-73l32 185h-133l10 69h135l26 150h-141l10 68h143l32 186h74l-33 -186h160l32 186h73l-32 -186h134l-11 -68h-135l-26 -150h141l-10 -69h-143l-32 -185h-73zM463 404h-159l-27 -150h160z" />
    <glyph glyph-name="dollar" unicode="$" 
d="M257 -123v166q-121 7 -199 56v91q98 -72 219 -72q65 0 107 23.5t42 67.5q0 33 -35.5 53t-86 32.5t-100.5 27.5t-85.5 49t-35.5 86q0 61 48 104t126 54v147h76v-144q85 -5 157 -43v-83q-84 54 -181 54q-60 0 -98 -24t-38 -63q0 -30 35.5 -49t86.5 -31.5t102.5 -28t87 -50
t35.5 -86.5q0 -63 -51.5 -108.5t-135.5 -58.5v-170h-76z" />
    <glyph glyph-name="percent" unicode="%" horiz-adv-x="800" 
d="M186 669q66 0 107.5 -48.5t41.5 -124.5q0 -77 -41.5 -125.5t-107.5 -48.5q-67 0 -108 48.5t-41 125.5q0 76 41 124.5t108 48.5zM654 669l-436 -680h-73l436 680h73zM186 376q42 0 57 30t15 90q0 59 -15 88.5t-57 29.5q-43 0 -57.5 -29t-14.5 -89t14.5 -90t57.5 -30z
M614 -11q-66 0 -108 48.5t-42 124.5q0 77 41.5 125.5t108.5 48.5q66 0 107.5 -48.5t41.5 -125.5q0 -76 -41.5 -124.5t-107.5 -48.5zM614 281q-41 0 -56.5 -30t-15.5 -89t15.5 -88.5t56.5 -29.5q43 0 57.5 29t14.5 89t-14.5 89.5t-57.5 29.5z" />
    <glyph glyph-name="ampersand" unicode="&#x26;" horiz-adv-x="712" 
d="M495 90q-91 -101 -218 -101q-98 0 -158.5 58.5t-60.5 141.5q0 127 142 202q-63 71 -63 141q0 79 56 129t143 50q91 0 161 -47v-86q-74 58 -159 58q-51 0 -83 -28t-32 -73q0 -25 12.5 -49.5t23.5 -36.5t40 -42l190 -196q40 80 54 188h81q-16 -139 -81 -244l150 -155h-110z
M278 63q98 0 166 79l-199 201q-101 -51 -101 -146q0 -55 38 -94.5t96 -39.5z" />
    <glyph glyph-name="quotesingle" unicode="'" horiz-adv-x="240" 
d="M73 762h105l-45 -277h-60v277z" />
    <glyph glyph-name="parenleft" unicode="(" horiz-adv-x="433" 
d="M174 319q0 -132 64 -249t159 -194h-94q-38 32 -73.5 73t-70.5 97t-56 127t-21 146q0 74 21 145.5t56 127.5t70.5 97t73.5 73h94q-95 -77 -159 -194t-64 -249z" />
    <glyph glyph-name="parenright" unicode=")" horiz-adv-x="433" 
d="M36 -124q95 77 159 194t64 249t-64 249t-159 194h94q38 -32 73.5 -73t70.5 -97t56 -127.5t21 -145.5q0 -75 -21 -146t-56 -127t-70.5 -97t-73.5 -73h-94z" />
    <glyph glyph-name="asterisk" unicode="*" horiz-adv-x="499" 
d="M288 762v-43l-16 -124l112 54l40 14l25 -74l-40 -13l-123 -24l85 -89l25 -34l-62 -46l-25 34l-59 107l-60 -107l-24 -34l-64 46l26 34l85 89l-122 24l-41 13l25 74l40 -14l112 -53l-16 124v42h77z" />
    <glyph glyph-name="plus" unicode="+" 
d="M330 294v-218h-72v218h-218v72h218v218h72v-218h218v-72h-218z" />
    <glyph glyph-name="comma" unicode="," horiz-adv-x="312" 
d="M214 129q0 -86 -34.5 -173t-72.5 -128h-63q28 47 46.5 130t18.5 171h105z" />
    <glyph glyph-name="hyphen" unicode="-" 
d="M102 319h384v-78h-384v78z" />
    <glyph glyph-name="period" unicode="." horiz-adv-x="313" 
d="M83 69q0 30 22 53t52 23t52 -23t22 -53t-22 -52.5t-52 -22.5t-52 22.5t-22 52.5z" />
    <glyph glyph-name="slash" unicode="/" horiz-adv-x="404" 
d="M301 762h85l-285 -886h-83z" />
    <glyph glyph-name="zero" unicode="0" 
d="M538 329q0 -152 -66 -246t-178 -94t-178 94t-66 246t66 246t178 94t178 -94t66 -246zM445 329q0 118 -37.5 189t-113.5 71t-113.5 -71t-37.5 -189t37.5 -189t113.5 -71t113.5 71t37.5 189z" />
    <glyph glyph-name="one" unicode="1" 
d="M91 0v78h185v476l-186 -60v71l220 97h55v-584h163v-78h-437z" />
    <glyph glyph-name="two" unicode="2" 
d="M408 468q0 53 -35.5 85t-99.5 32q-111 0 -203 -92v89q41 38 97.5 62.5t116.5 24.5q99 0 157.5 -52t58.5 -139q0 -38 -13.5 -73t-47 -74.5t-60.5 -65.5t-82 -76q-21 -19 -31 -28l-95 -83h360v-78h-473v74l152 137q113 103 139 132q59 68 59 125z" />
    <glyph glyph-name="three" unicode="3" 
d="M43 117q75 -51 184 -51q88 0 145.5 38.5t57.5 101.5q0 64 -59 91.5t-174 28.5v54l189 200h-307v78h400v-84l-182 -190q57 -4 105 -21.5t84 -58.5t36 -99q0 -95 -84.5 -155.5t-209.5 -60.5q-106 0 -185 45v83z" />
    <glyph glyph-name="four" unicode="4" 
d="M326 0v173h-294v61q32 101 101.5 219.5t150.5 204.5h108q-177 -181 -269 -411h203v166h84v-166h159v-74h-159v-173h-84z" />
    <glyph glyph-name="five" unicode="5" 
d="M426 208q0 73 -71.5 104t-227.5 42l12 304h348v-78h-276l-6 -160q309 -21 309 -209q0 -98 -79 -160t-202 -62q-108 0 -184 45v86q72 -54 180 -54q90 0 143.5 39t53.5 103z" />
    <glyph glyph-name="six" unicode="6" 
d="M534 209q0 -91 -65.5 -155.5t-160.5 -64.5q-108 0 -180 86t-72 222q0 164 87.5 268t237.5 104q85 0 136 -33v-73q-50 30 -134 30q-108 0 -171 -72.5t-70 -196.5q70 93 187 93q89 0 147 -56.5t58 -151.5zM308 62q61 0 100.5 40.5t39.5 106.5q0 64 -39.5 101t-101.5 37
q-92 0 -165 -87q8 -94 53.5 -146t112.5 -52z" />
    <glyph glyph-name="seven" unicode="7" 
d="M118 0q105 115 193.5 279t126.5 301h-390v78h480v-64q-27 -130 -116 -307.5t-190 -286.5h-104z" />
    <glyph glyph-name="eight" unicode="8" 
d="M293 -11q-105 0 -174.5 52t-69.5 134q0 58 40.5 102t102.5 70q-105 57 -105 151q0 73 61 122t148 49q91 0 150.5 -46.5t59.5 -121.5q0 -49 -32 -89.5t-87 -66.5q72 -31 112 -69t40 -102q0 -80 -72 -132.5t-174 -52.5zM337 368q84 47 84 127q0 48 -33 77t-92 29
q-55 0 -88.5 -28t-33.5 -71q0 -36 20.5 -58.5t71.5 -44.5zM293 58q67 0 111 31t44 82q0 42 -29 67t-94 52l-80 32q-108 -48 -108 -141q0 -53 44 -88t112 -35z" />
    <glyph glyph-name="nine" unicode="9" 
d="M55 449q0 91 65.5 155.5t160.5 64.5q108 0 180 -86t72 -222q0 -164 -87.5 -268t-237.5 -104q-85 0 -136 33v73q49 -30 134 -30q108 0 171 72.5t70 196.5q-70 -93 -187 -93q-89 0 -147 56.5t-58 151.5zM281 596q-61 0 -100.5 -40.5t-39.5 -106.5q0 -64 39.5 -101
t101.5 -37q92 0 165 87q-8 94 -53.5 146t-112.5 52z" />
    <glyph glyph-name="colon" unicode=":" horiz-adv-x="312" 
d="M83 401q0 30 22 53t52 23t52 -23t22 -53t-22 -52.5t-52 -22.5t-52 22.5t-22 52.5zM83 69q0 30 22 53t52 23t52 -23t22 -53t-22 -52.5t-52 -22.5t-52 22.5t-22 52.5z" />
    <glyph glyph-name="semicolon" unicode=";" horiz-adv-x="312" 
d="M83 401q0 30 22 53t52 23t52 -23t22 -53t-22 -52.5t-52 -22.5t-52 22.5t-22 52.5zM214 129q0 -86 -34.5 -173t-72.5 -128h-63q28 47 46.5 130t18.5 171h105z" />
    <glyph glyph-name="less" unicode="&#x3c;" 
d="M53 387l483 182v-82l-412 -150l412 -149v-82l-483 182v99z" />
    <glyph glyph-name="equal" unicode="=" 
d="M40 466h508v-72h-508v72zM40 266h508v-72h-508v72z" />
    <glyph glyph-name="greater" unicode="&#x3e;" 
d="M536 288l-483 -182v82l412 149l-412 150v82l483 -182v-99z" />
    <glyph glyph-name="question" unicode="?" horiz-adv-x="500" 
d="M457 534q0 -36 -14.5 -67t-37 -54.5t-45.5 -46.5t-43.5 -53t-28.5 -64h-84q8 47 34.5 89t53.5 67.5t49 57.5t22 63q0 49 -31.5 75.5t-90.5 26.5q-51 0 -103.5 -24.5t-93.5 -63.5v91q92 81 207 81q93 0 149.5 -48t56.5 -130zM177 69q0 30 22 53t52 23t52.5 -23t22.5 -53
t-22 -52.5t-53 -22.5q-30 0 -52 22.5t-22 52.5z" />
    <glyph glyph-name="at" unicode="@" horiz-adv-x="1009" 
d="M671 104q18 -22 55 -22q58 0 104 62t46 166q0 148 -100 241.5t-245 93.5q-168 0 -282.5 -117t-114.5 -297q0 -115 56 -205t147.5 -136.5t199.5 -46.5q92 0 178 27.5t148 78.5v-76q-128 -99 -325 -99q-129 0 -237.5 55t-175 160.5t-66.5 241.5q0 205 136 343t336 138
q174 0 296.5 -113t122.5 -287q0 -131 -71 -212t-163 -81q-75 0 -117 55q-73 -55 -142 -55q-54 0 -92 34.5t-38 88.5q0 72 64 112t198 40v24q0 92 -92 92q-66 0 -139 -41v69q63 45 145 45t125 -43.5t43 -113.5v-222zM481 82q53 0 108 41v115q-95 0 -137.5 -22.5t-42.5 -67.5
q0 -29 19.5 -47.5t52.5 -18.5z" />
    <glyph glyph-name="A" unicode="A" horiz-adv-x="637" 
d="M450 215h-266l-73 -215h-89l246 700h101l246 -700h-92zM209 290h216l-106 314h-3z" />
    <glyph glyph-name="B" unicode="B" horiz-adv-x="617" 
d="M413 370q69 -12 112 -58.5t43 -113.5q0 -92 -60 -145t-168 -53h-237v700h200q109 0 167 -47t58 -135q0 -60 -33.5 -97.5t-81.5 -50.5zM193 398h99q146 0 146 112q0 114 -146 114h-99v-226zM477 201q0 57 -35.5 90t-106.5 33h-142v-248h142q70 0 106 33.5t36 91.5z" />
    <glyph glyph-name="C" unicode="C" horiz-adv-x="562" 
d="M49 350q0 164 89 262.5t221 98.5q91 0 148 -45v-88q-56 52 -146 52q-96 0 -157.5 -77t-61.5 -203q0 -125 61.5 -202t157.5 -77q90 0 146 52v-89q-57 -45 -148 -45q-132 0 -221 99t-89 262z" />
    <glyph glyph-name="D" unicode="D" horiz-adv-x="674" 
d="M103 700h189q153 0 243 -93t90 -256q0 -164 -90 -257.5t-243 -93.5h-189v700zM289 77q118 0 180.5 73.5t62.5 200.5t-62.5 199.5t-180.5 72.5h-95v-546h95z" />
    <glyph glyph-name="E" unicode="E" horiz-adv-x="598" 
d="M103 700h407v-77h-317v-224h286v-77h-286v-245h330v-77h-420v700z" />
    <glyph glyph-name="F" unicode="F" horiz-adv-x="555" 
d="M103 0v700h400v-77h-310v-228h282v-78h-282v-317h-90z" />
    <glyph glyph-name="G" unicode="G" horiz-adv-x="615" 
d="M546 15q-73 -26 -160 -26q-89 0 -164 38.5t-124 120.5t-49 194q0 164 96.5 266.5t239.5 102.5q97 0 157 -45v-89q-62 53 -155 53q-106 0 -175.5 -81t-69.5 -207q0 -131 72 -202.5t169 -71.5q41 0 74 10v250h89v-313z" />
    <glyph glyph-name="H" unicode="H" horiz-adv-x="726" 
d="M532 322h-338v-322h-91v700h91v-301h338v301h91v-700h-91v322z" />
    <glyph glyph-name="I" unicode="I" horiz-adv-x="297" 
d="M103 700h91v-700h-91v700z" />
    <glyph glyph-name="J" unicode="J" horiz-adv-x="297" 
d="M194 115q0 -101 -22 -166t-66 -118h-105q51 58 76.5 124t25.5 162v583h91v-585z" />
    <glyph glyph-name="K" unicode="K" horiz-adv-x="623" 
d="M194 349v-349h-91v700h91v-320l291 320h109l-307 -328l333 -372h-112z" />
    <glyph glyph-name="L" unicode="L" horiz-adv-x="552" 
d="M103 0v700h91v-623h310v-77h-401z" />
    <glyph glyph-name="M" unicode="M" horiz-adv-x="789" 
d="M353 124l-138 455h-7l-56 -579h-88l73 700h115l139 -460h7l139 460h115l72 -700h-88l-55 579h-7l-138 -455h-83z" />
    <glyph glyph-name="N" unicode="N" horiz-adv-x="718" 
d="M192 551h-4v-551h-85v700h90l332 -542h4v542h85v-700h-79z" />
    <glyph glyph-name="O" unicode="O" horiz-adv-x="663" 
d="M614 350q0 -162 -78 -261.5t-204 -99.5t-204.5 100t-78.5 261t78.5 261t204.5 100t204 -99.5t78 -261.5zM521 350q0 125 -50.5 203t-138.5 78t-139 -78t-51 -203t51 -203t139 -78t138.5 78t50.5 203z" />
    <glyph glyph-name="P" unicode="P" horiz-adv-x="605" 
d="M193 277v-277h-90v700h225q108 0 175 -57t67 -155q0 -97 -67 -154t-175 -57h-135zM477 488q0 63 -40.5 99t-111.5 36h-132v-268h132q71 0 111.5 35t40.5 98z" />
    <glyph glyph-name="Q" unicode="Q" horiz-adv-x="663" 
d="M500 -185q-84 0 -141.5 43.5t-76.5 135.5q-106 20 -169.5 116t-63.5 240q0 161 78.5 261t204.5 100t204 -99.5t78 -261.5q0 -148 -67 -245.5t-177 -112.5q26 -104 139 -104q44 0 77 12v-69q-32 -16 -86 -16zM521 350q0 125 -50.5 203t-138.5 78t-139 -78t-51 -203
t51 -203t139 -78t138.5 78t50.5 203z" />
    <glyph glyph-name="R" unicode="R" horiz-adv-x="640" 
d="M515 0l-196 286h-126v-286h-90v700h189q122 0 189 -53.5t67 -151.5q0 -67 -40 -115t-102 -72l216 -308h-107zM193 363h153q47 13 78 45.5t31 86.5q0 60 -43 94t-119 34h-100v-260z" />
    <glyph glyph-name="S" unicode="S" horiz-adv-x="550" 
d="M37 141q90 -74 208 -74q79 0 122 33t43 89q0 32 -19 56.5t-49 41t-66.5 31.5t-73 31.5t-66.5 37.5t-49 54t-19 75q0 88 67 141.5t161 53.5q96 0 171 -48v-89q-81 60 -168 60q-63 0 -102 -30.5t-39 -82.5q0 -38 35.5 -65t86 -46.5t100.5 -43t85.5 -67.5t35.5 -106
q0 -90 -71 -147t-185 -57q-54 0 -114 16.5t-94 44.5v91z" />
    <glyph glyph-name="T" unicode="T" horiz-adv-x="598" 
d="M33 700h532v-77h-221v-623h-91v623h-220v77z" />
    <glyph glyph-name="U" unicode="U" horiz-adv-x="672" 
d="M336 70q166 0 166 205v425h91v-432q0 -136 -69.5 -207.5t-187.5 -71.5q-117 0 -187 71.5t-70 207.5v432h91v-425q0 -205 166 -205z" />
    <glyph glyph-name="V" unicode="V" horiz-adv-x="630" 
d="M360 0h-90l-248 700h95l196 -582h4l199 582h92z" />
    <glyph glyph-name="W" unicode="W" horiz-adv-x="823" 
d="M449 700l132 -550h4l125 550h88l-168 -700h-84l-132 544h-5l-133 -544h-82l-169 700h91l125 -550h4l132 550h72z" />
    <glyph glyph-name="X" unicode="X" horiz-adv-x="642" 
d="M319 308l-202 -308h-95l247 371l-216 329h100l169 -260l171 260h96l-216 -324l247 -376h-101z" />
    <glyph glyph-name="Y" unicode="Y" horiz-adv-x="612" 
d="M261 0v296l-239 404h99l189 -323l187 323h94l-239 -404v-296h-91z" />
    <glyph glyph-name="Z" unicode="Z" horiz-adv-x="590" 
d="M546 0h-491v58l363 565h-357v77h468v-62l-363 -561h380v-77z" />
    <glyph glyph-name="bracketleft" unicode="[" horiz-adv-x="420" 
d="M196 -55h170v-69h-257v886h257v-69h-170v-748z" />
    <glyph glyph-name="backslash" unicode="\" horiz-adv-x="404" 
d="M386 -124h-83l-285 886h85z" />
    <glyph glyph-name="bracketright" unicode="]" horiz-adv-x="420" 
d="M224 693h-170v69h257v-886h-257v69h170v748z" />
    <glyph glyph-name="asciicircum" unicode="^" 
d="M335 701l175 -282h-82l-134 194l-134 -194h-82l176 282h81z" />
    <glyph glyph-name="underscore" unicode="_" 
d="M102 -49h384v-78h-384v78z" />
    <glyph glyph-name="grave" unicode="`" horiz-adv-x="547" 
d="M309 583l-122 190h115l60 -190h-53z" />
    <glyph glyph-name="a" unicode="a" horiz-adv-x="519" 
d="M359 0l-12 52q-76 -63 -153 -63q-61 0 -101.5 39t-40.5 103q0 79 73.5 127t218.5 49v33q0 106 -103 106q-75 0 -162 -49v75q30 22 79 36.5t90 14.5q94 0 139 -49t45 -129v-229q0 -57 11 -116h-84zM221 57q64 0 123 46v145q-102 -1 -154 -30t-52 -82q0 -37 22.5 -58
t60.5 -21z" />
    <glyph glyph-name="b" unicode="b" horiz-adv-x="581" 
d="M181 457q64 66 147 66q94 0 149 -68t55 -186q0 -125 -76 -202.5t-189 -77.5q-98 0 -174 43v730h88v-305zM181 77q35 -19 86 -19q77 0 126.5 57.5t49.5 149.5q0 87 -37 135.5t-100 48.5q-73 0 -125 -50v-322z" />
    <glyph glyph-name="c" unicode="c" horiz-adv-x="454" 
d="M49 254q0 117 71.5 193t180.5 76q66 0 105 -27v-78q-47 27 -102 27q-74 0 -120.5 -53t-46.5 -138t46.5 -135.5t120.5 -50.5q57 0 102 27v-79q-41 -27 -105 -27q-109 0 -180.5 74t-71.5 191z" />
    <glyph glyph-name="d" unicode="d" horiz-adv-x="581" 
d="M487 762v-762h-87v54q-59 -65 -142 -65q-93 0 -151 68t-58 185q0 126 68.5 203.5t173.5 77.5q69 0 109 -28v267h87zM400 424q-38 29 -99 29q-77 0 -120 -57t-43 -150q0 -87 38.5 -135t102.5 -48q66 0 121 51v310z" />
    <glyph glyph-name="e" unicode="e" horiz-adv-x="514" 
d="M452 23q-65 -34 -149 -34q-114 0 -184 77t-70 194q0 111 63 187t163 76q106 0 153.5 -78t34.5 -203h-330q5 -81 53.5 -129t123.5 -48t142 36v-78zM275 450q-56 0 -93 -39t-47 -107h244q5 64 -22.5 105t-81.5 41z" />
    <glyph glyph-name="f" unicode="f" horiz-adv-x="358" 
d="M203 0h-88v441h-75v71h75v25q0 109 54.5 172.5t143.5 63.5q37 0 72 -12v-72q-31 8 -61 8q-121 0 -121 -160v-25h142v-71h-142v-441z" />
    <glyph glyph-name="g" unicode="g" horiz-adv-x="525" 
d="M505 -52q0 -81 -78.5 -127.5t-185.5 -46.5q-101 0 -167 41t-66 107q0 49 37 81.5t91 46.5q-26 23 -26 57q0 48 61 80q-55 19 -88 62t-33 101q0 77 57 125t140 48q35 0 68 -11h194v-66h-103q32 -45 32 -96q0 -78 -54 -126.5t-137 -48.5q-16 0 -23 1q-42 -20 -42 -44
q0 -30 48 -34l107 -16q168 -23 168 -134zM357 350q0 51 -31.5 79.5t-78.5 28.5q-48 0 -80.5 -28.5t-32.5 -79.5q0 -53 32.5 -82t80.5 -29q47 0 78.5 29.5t31.5 81.5zM245 -158q71 0 123.5 25.5t52.5 74.5q0 30 -25 44.5t-67 20.5l-135 19q-48 -10 -76.5 -33.5t-28.5 -58.5
q0 -45 43 -68.5t113 -23.5z" />
    <glyph glyph-name="h" unicode="h" horiz-adv-x="576" 
d="M181 762v-305q76 66 158 66q74 0 112 -46t38 -127v-350h-88v336q0 56 -22 84t-72 28q-62 0 -126 -48v-400h-88v762h88z" />
    <glyph glyph-name="i" unicode="i" horiz-adv-x="274" 
d="M73 677q0 27 18 46t46 19q27 0 45 -19t18 -46t-18 -45.5t-45 -18.5q-28 0 -46 18.5t-18 45.5zM93 512h88v-512h-88v512z" />
    <glyph glyph-name="j" unicode="j" horiz-adv-x="274" 
d="M73 677q0 27 18 46t46 19q27 0 45 -19t18 -46t-18 -45.5t-45 -18.5q-28 0 -46 18.5t-18 45.5zM93 512h88v-505q0 -121 -92 -222h-100q104 109 104 229v498z" />
    <glyph glyph-name="k" unicode="k" horiz-adv-x="541" 
d="M181 264v-264h-88v762h88v-465l221 215h109l-239 -227l263 -285h-109z" />
    <glyph glyph-name="l" unicode="l" horiz-adv-x="274" 
d="M93 762h88v-762h-88v762z" />
    <glyph glyph-name="m" unicode="m" horiz-adv-x="866" 
d="M93 0v512h88v-55q71 66 150 66q92 0 129 -74q30 27 76 50.5t95 23.5q73 0 110 -46t37 -127v-350h-87v332q0 57 -20.5 86.5t-69.5 29.5q-62 0 -122 -48v-400h-87v332q0 116 -90 116q-62 0 -121 -48v-400h-88z" />
    <glyph glyph-name="n" unicode="n" horiz-adv-x="576" 
d="M181 512v-55q76 66 158 66q74 0 112 -46t38 -127v-350h-88v336q0 56 -22 84t-72 28q-62 0 -126 -48v-400h-88v512h88z" />
    <glyph glyph-name="o" unicode="o" horiz-adv-x="557" 
d="M508 256q0 -117 -65.5 -192t-163.5 -75q-99 0 -164.5 75t-65.5 192t65.5 192t164.5 75q98 0 163.5 -75t65.5 -192zM137 256q0 -86 37.5 -138.5t104.5 -52.5q66 0 103.5 52.5t37.5 138.5t-37.5 139t-103.5 53q-67 0 -104.5 -53t-37.5 -139z" />
    <glyph glyph-name="p" unicode="p" horiz-adv-x="581" 
d="M93 -215v727h88v-55q64 66 147 66q94 0 149 -68t55 -186q0 -125 -69.5 -202.5t-175.5 -77.5q-61 0 -106 31v-235h-88zM181 87q34 -29 97 -29q76 0 120.5 57t44.5 150q0 87 -37 135.5t-100 48.5q-74 0 -125 -49v-313z" />
    <glyph glyph-name="q" unicode="q" horiz-adv-x="581" 
d="M487 -215h-87v269q-59 -65 -142 -65q-93 0 -151 68t-58 185q0 124 76 202.5t188 78.5q94 0 174 -42v-696zM400 433q-35 19 -89 19q-71 0 -122 -56t-51 -150q0 -87 38.5 -135t102.5 -48q66 0 121 51v319z" />
    <glyph glyph-name="r" unicode="r" horiz-adv-x="402" 
d="M93 0v512h88v-87q41 50 86.5 76t106.5 16v-93q-112 26 -193 -68v-356h-88z" />
    <glyph glyph-name="s" unicode="s" horiz-adv-x="450" 
d="M43 115q72 -52 163 -52q48 0 80 19t32 55q0 29 -26.5 48.5t-63.5 32.5t-74.5 29t-64 48.5t-26.5 80.5q0 64 50 105.5t127 41.5q69 0 131 -34v-81q-60 42 -127 42q-44 0 -70.5 -19.5t-26.5 -51.5q0 -29 26.5 -48t64 -32t75 -29t64 -48t26.5 -79q0 -72 -58 -113t-139 -41
q-95 0 -163 40v86z" />
    <glyph glyph-name="t" unicode="t" horiz-adv-x="425" 
d="M111 512v122h88v-122h172v-71h-172v-294q0 -83 80 -83q49 0 107 23v-72q-57 -26 -120 -26q-70 0 -112.5 36.5t-42.5 115.5v300h-81v71h81z" />
    <glyph glyph-name="u" unicode="u" horiz-adv-x="573" 
d="M393 55q-76 -66 -157 -66q-73 0 -111 46.5t-38 126.5v350h88v-331q0 -57 21 -87t71 -30q63 0 126 50v398h88v-512h-88v55z" />
    <glyph glyph-name="v" unicode="v" horiz-adv-x="524" 
d="M221 0l-195 512h92l145 -411h3l146 411h86l-195 -512h-82z" />
    <glyph glyph-name="w" unicode="w" horiz-adv-x="732" 
d="M401 512l111 -394h4l106 394h85l-154 -512h-74l-112 387h-3l-111 -387h-73l-154 512h88l110 -394h3l107 394h67z" />
    <glyph glyph-name="x" unicode="x" horiz-adv-x="530" 
d="M264 202l-144 -202h-94l191 263l-178 249h99l129 -186l131 186h94l-178 -247l190 -265h-100z" />
    <glyph glyph-name="y" unicode="y" horiz-adv-x="524" 
d="M75 -221q-35 0 -57 10v69q24 -7 53 -7q53 0 88.5 38.5t61.5 114.5l-195 508h93l145 -404h4l143 404h87l-196 -518q-44 -114 -96 -164.5t-131 -50.5z" />
    <glyph glyph-name="z" unicode="z" horiz-adv-x="491" 
d="M445 0h-393v52l267 389h-262v71h371v-52l-268 -389h285v-71z" />
    <glyph glyph-name="braceleft" unicode="{" horiz-adv-x="502" 
d="M54 355h76q35 0 51.5 13t16.5 53l-27 205q0 63 52 99.5t125 36.5q56 0 99 -19v-64q-33 14 -86 14q-47 0 -76 -19.5t-29 -57.5l27 -197q0 -44 -28 -69t-65 -31q38 -6 65.5 -31t27.5 -70l-27 -196q0 -39 29 -58.5t76 -19.5q50 0 86 15v-65q-44 -18 -99 -18q-73 0 -125 36.5
t-52 99.5l27 205q0 40 -16.5 52.5t-51.5 12.5h-76v73z" />
    <glyph glyph-name="bar" unicode="|" horiz-adv-x="284" 
d="M93 -124v886h81v-886h-81z" />
    <glyph glyph-name="braceright" unicode="}" horiz-adv-x="502" 
d="M448 282h-76q-35 0 -51.5 -12.5t-16.5 -52.5l27 -205q0 -63 -52 -99.5t-125 -36.5q-55 0 -99 18v65q36 -15 86 -15q47 0 76 19.5t29 58.5l-27 196q0 45 27.5 70t65.5 31q-38 6 -65.5 31t-27.5 69l27 197q0 38 -29 57.5t-76 19.5q-53 0 -86 -14v64q43 19 99 19
q73 0 125 -36.5t52 -99.5l-27 -205q0 -40 16.5 -53t51.5 -13h76v-73z" />
    <glyph glyph-name="asciitilde" unicode="~" 
d="M368 220q-27 0 -79.5 43t-71.5 43q-43 0 -62 -89h-63q10 78 44 126t83 48q28 0 80.5 -43.5t72.5 -43.5q41 0 62 89h62q-10 -78 -44 -125.5t-84 -47.5z" />
    <glyph glyph-name="exclamdown" unicode="&#xa1;" horiz-adv-x="299" 
d="M150 556q-30 0 -52 23t-22 53t22 52.5t52 22.5t52 -22.5t22 -52.5t-22 -53t-52 -23zM177 452l31 -452h-116l30 452h55z" />
    <glyph glyph-name="cent" unicode="&#xa2;" 
d="M495 112q-62 -30 -134 -35v-165h-77v170q-98 18 -156.5 81.5t-58.5 157.5q0 93 59 157t156 81v175h77v-169q70 -5 134 -36v-78q-76 35 -145 35q-85 0 -138.5 -44t-53.5 -121t53.5 -121t138.5 -44q69 0 145 35v-79z" />
    <glyph glyph-name="sterling" unicode="&#xa3;" 
d="M81 369l22 62h100q51 121 108.5 179.5t145.5 58.5q54 0 108 -22v-77q-53 21 -104 21q-60 0 -95 -37.5t-75 -122.5h163l-21 -62h-352zM555 0h-501v59l67 163h-91l23 61h364l-20 -61h-188l-61 -149h407v-73z" />
    <glyph glyph-name="yen" unicode="&#xa5;" 
d="M91 369v62h109l-195 227h107l181 -220l182 220h104l-195 -227h114v-62h-407zM339 222v-222h-90v222h-158v61h407v-61h-159z" />
    <glyph glyph-name="section" unicode="&#xa7;" horiz-adv-x="590" 
d="M210 560q0 -31 15.5 -53.5t62.5 -59.5l152 -120q24 -18 37.5 -31.5t25.5 -37.5t12 -52q0 -27 -14 -49.5t-32 -33.5l-29 27q13 19 7.5 40t-19 37.5t-38.5 36.5l-179 147q-46 37 -64 68.5t-18 71.5q0 72 54.5 116.5t132.5 44.5q82 0 150 -40v-83q-72 51 -148 51
q-46 0 -77 -22t-31 -58zM379 -22q0 32 -15.5 54t-62.5 58l-151 122q-24 18 -37.5 31.5t-26 37.5t-12.5 52q0 27 14.5 49.5t32.5 32.5l28 -26q-13 -20 -7 -41t19 -37t39 -37l179 -146q45 -38 63.5 -69.5t18.5 -70.5q0 -72 -55 -117t-133 -45q-79 0 -150 40v84q75 -52 149 -52
q45 0 76 22t31 58z" />
    <glyph glyph-name="dieresis" unicode="&#xa8;" horiz-adv-x="547" 
d="M120 672q0 25 17 42.5t42 17.5t42 -17.5t17 -42.5t-17 -42t-42 -17t-42 17t-17 42zM309 672q0 25 17 42.5t42 17.5t42 -17.5t17 -42.5t-17 -42t-42 -17t-42 17t-17 42z" />
    <glyph glyph-name="copyright" unicode="&#xa9;" horiz-adv-x="813" 
d="M407 712q152 0 256 -102.5t104 -258.5t-104 -259t-256 -103t-256.5 103t-104.5 259t104.5 258.5t256.5 102.5zM407 44q128 0 216.5 87.5t88.5 219.5t-88.5 219t-216.5 87q-129 0 -217.5 -87t-88.5 -219q0 -133 88.5 -220t217.5 -87zM307 353q0 -60 34 -96t86 -36
q55 0 85 24v-69q-33 -23 -89 -23q-82 0 -137.5 56.5t-55.5 143.5q0 89 55.5 146t137.5 57q55 0 89 -24v-69q-31 25 -85 25q-52 0 -86 -36.5t-34 -98.5z" />
    <glyph glyph-name="ordfeminine" unicode="&#xaa;" horiz-adv-x="474" 
d="M308 334l-8 38q-52 -47 -113 -47q-45 0 -75.5 28t-30.5 73q0 130 218 130v17q0 74 -75 74q-64 0 -123 -35v62q23 16 60 26.5t67 10.5q74 0 108 -35.5t34 -94.5v-180q0 -33 9 -67h-71zM212 383q44 0 87 30v91q-145 1 -145 -71q0 -22 16 -36t42 -14zM96 249h287v-61h-287
v61z" />
    <glyph glyph-name="guillemotleft" unicode="&#xab;" horiz-adv-x="567" 
d="M293 52h-72l-175 202l175 202h72l-136 -202zM521 52h-72l-175 202l175 202h72l-136 -202z" />
    <glyph glyph-name="registered" unicode="&#xae;" horiz-adv-x="813" 
d="M407 712q152 0 256 -102.5t104 -258.5t-104 -259t-256 -103t-256.5 103t-104.5 259t104.5 258.5t256.5 102.5zM407 44q128 0 216.5 87.5t88.5 219.5t-88.5 219t-216.5 87q-129 0 -217.5 -87t-88.5 -219q0 -133 88.5 -220t217.5 -87zM500 165l-106 151h-45v-151h-72v387
h124q69 0 106.5 -29t37.5 -81q0 -38 -25 -66t-60 -41l122 -170h-82zM349 371h63q58 15 58 65q0 58 -79 58h-42v-123z" />
    <glyph glyph-name="macron" unicode="&#xaf;" horiz-adv-x="547" 
d="M130 635v71h286v-71h-286z" />
    <glyph glyph-name="degree" unicode="&#xb0;" horiz-adv-x="408" 
d="M203 669q67 0 113.5 -46t46.5 -111q0 -67 -46.5 -113.5t-113.5 -46.5q-64 0 -110.5 46.5t-46.5 113.5q0 64 46.5 110.5t110.5 46.5zM203 415q41 0 69 28t28 69q0 39 -28.5 66t-68.5 27q-38 0 -66 -27.5t-28 -65.5q0 -40 28 -68.5t66 -28.5z" />
    <glyph glyph-name="uni00B2" unicode="&#xb2;" horiz-adv-x="367" 
d="M231 576q0 63 -67 63q-65 0 -124 -55v73q62 52 136 52q62 0 98 -33t36 -88q0 -45 -30.5 -86t-94.5 -97l-58 -48h202v-65h-296v64l96 82q40 36 55.5 52t31 40t15.5 46z" />
    <glyph glyph-name="uni00B3" unicode="&#xb3;" horiz-adv-x="367" 
d="M33 381q52 -33 112 -33q48 0 77.5 19.5t29.5 54.5t-32.5 49.5t-104.5 14.5v46l123 105h-191v64h256v-74l-109 -92q56 -6 95 -34.5t39 -78.5q0 -60 -53 -98.5t-126 -38.5q-68 0 -116 27v69z" />
    <glyph glyph-name="acute" unicode="&#xb4;" horiz-adv-x="547" 
d="M184 583l61 190h115l-122 -190h-54z" />
    <glyph glyph-name="paragraph" unicode="&#xb6;" horiz-adv-x="612" 
d="M275 329h-13q-101 0 -163.5 49.5t-62.5 133.5q0 83 63.5 136t162.5 53h13v-372zM451 115q0 -177 -94 -284h-94q52 57 77 123.5t25 162.5v584h211v-78h-125v-508z" />
    <glyph glyph-name="periodcentered" unicode="&#xb7;" horiz-adv-x="353" 
d="M103 280q0 30 22 53t52 23t52 -23t22 -53t-22 -52.5t-52 -22.5t-52 22.5t-22 52.5z" />
    <glyph glyph-name="cedilla" unicode="&#xb8;" horiz-adv-x="547" 
d="M372 -129q0 -45 -36.5 -71t-88.5 -26q-64 0 -100 25v58q48 -28 97 -28q28 0 46.5 11t18.5 31q0 40 -96 40l39 96h43l-21 -55q98 -13 98 -81z" />
    <glyph glyph-name="uni00B9" unicode="&#xb9;" horiz-adv-x="367" 
d="M56 292v63h104v256l-107 -32v61l144 61h37v-346h93v-63h-271z" />
    <glyph glyph-name="ordmasculine" unicode="&#xba;" horiz-adv-x="483" 
d="M414 519q0 -84 -49.5 -138t-122.5 -54q-74 0 -123.5 54t-49.5 138q0 85 49.5 139t123.5 54t123 -54t49 -139zM142 519q0 -57 26 -92t74 -35q46 0 72 35t26 92q0 58 -26 93t-72 35q-48 0 -74 -35t-26 -93zM99 250h284v-61h-284v61z" />
    <glyph glyph-name="guillemotright" unicode="&#xbb;" horiz-adv-x="567" 
d="M181 254l-135 202h72l175 -202l-175 -202h-72zM409 254l-135 202h72l175 -202l-175 -202h-72z" />
    <glyph glyph-name="questiondown" unicode="&#xbf;" horiz-adv-x="500" 
d="M324 632q0 -30 -22 -53t-52 -23t-52.5 23t-22.5 53t22 52.5t53 22.5q30 0 52 -22.5t22 -52.5zM44 167q0 36 14.5 67t37 54.5t45.5 46.5t43.5 53t28.5 64h84q-8 -47 -34.5 -89t-53.5 -67.5t-49 -57.5t-22 -63q0 -49 31.5 -75.5t90.5 -26.5q51 0 103.5 24.5t93.5 63.5v-91
q-92 -81 -207 -81q-93 0 -149.5 48t-56.5 130z" />
    <glyph glyph-name="Agrave" unicode="&#xc0;" horiz-adv-x="637" 
d="M295 762l-118 178h112l65 -178h-59zM450 215h-266l-73 -215h-89l246 700h101l246 -700h-92zM209 290h216l-106 314h-3z" />
    <glyph glyph-name="Aacute" unicode="&#xc1;" horiz-adv-x="637" 
d="M292 762l64 178h113l-119 -178h-58zM450 215h-266l-73 -215h-89l246 700h101l246 -700h-92zM209 290h216l-106 314h-3z" />
    <glyph glyph-name="Acircumflex" unicode="&#xc2;" horiz-adv-x="637" 
d="M368 940l98 -178h-55l-93 117l-92 -117h-56l99 178h99zM450 215h-266l-73 -215h-89l246 700h101l246 -700h-92zM209 290h216l-106 314h-3z" />
    <glyph glyph-name="Atilde" unicode="&#xc3;" horiz-adv-x="637" 
d="M381 761q-26 0 -52.5 25t-49 50t-39.5 25q-43 0 -56 -99h-57q2 70 35.5 121t81.5 51q26 0 52.5 -25t49 -49.5t38.5 -24.5q44 0 57 99h57q-3 -71 -36 -122t-81 -51zM450 215h-266l-73 -215h-89l246 700h101l246 -700h-92zM209 290h216l-106 314h-3z" />
    <glyph glyph-name="Adieresis" unicode="&#xc4;" horiz-adv-x="637" 
d="M161 841q0 25 17 42t42 17q26 0 43 -17t17 -42t-17 -42t-43 -17q-25 0 -42 17t-17 42zM357 841q0 25 17 42t42 17t42 -17t17 -42t-17 -42t-42 -17t-42 17t-17 42zM450 215h-266l-73 -215h-89l246 700h101l246 -700h-92zM209 290h216l-106 314h-3z" />
    <glyph glyph-name="Aring" unicode="&#xc5;" horiz-adv-x="637" 
d="M111 0h-89l238 677q-32 17 -52 48t-20 66q0 52 38.5 90t89.5 38q52 0 90.5 -38t38.5 -90q0 -35 -19 -65t-50 -47l239 -679h-92l-73 215h-266zM245 791q0 -30 20.5 -50.5t50.5 -20.5q31 0 51.5 20.5t20.5 50.5t-20.5 51t-51.5 21q-30 0 -50.5 -21t-20.5 -51zM209 290h216
l-106 314h-3z" />
    <glyph glyph-name="AE" unicode="&#xc6;" horiz-adv-x="983" 
d="M488 224h-243l-130 -224h-93l405 700h469v-77h-317v-224h285v-77h-285v-245h330v-77h-421v224zM488 643l-200 -344h200v344z" />
    <glyph glyph-name="Ccedilla" unicode="&#xc7;" horiz-adv-x="562" 
d="M300 -226q-64 0 -100 25v58q48 -28 97 -28q28 0 46.5 11t18.5 31q0 40 -96 40l34 84q-111 22 -181 116.5t-70 238.5q0 164 89 262.5t221 98.5q91 0 148 -45v-88q-56 52 -146 52q-96 0 -157.5 -77t-61.5 -203q0 -125 61.5 -202t157.5 -77q90 0 146 52v-89
q-57 -45 -148 -45h-18l-14 -37q98 -13 98 -81q0 -45 -36.5 -71t-88.5 -26z" />
    <glyph glyph-name="Egrave" unicode="&#xc8;" horiz-adv-x="598" 
d="M299 762l-118 178h112l65 -178h-59zM103 700h407v-77h-317v-224h286v-77h-286v-245h330v-77h-420v700z" />
    <glyph glyph-name="Eacute" unicode="&#xc9;" horiz-adv-x="598" 
d="M270 762l64 178h113l-119 -178h-58zM103 700h407v-77h-317v-224h286v-77h-286v-245h330v-77h-420v700z" />
    <glyph glyph-name="Ecircumflex" unicode="&#xca;" horiz-adv-x="598" 
d="M361 940l98 -178h-55l-93 117l-92 -117h-56l99 178h99zM103 700h407v-77h-317v-224h286v-77h-286v-245h330v-77h-420v700z" />
    <glyph glyph-name="Edieresis" unicode="&#xcb;" horiz-adv-x="598" 
d="M154 841q0 25 17 42t42 17q26 0 43 -17t17 -42t-17 -42t-43 -17q-25 0 -42 17t-17 42zM350 841q0 25 17 42t42 17t42 -17t17 -42t-17 -42t-42 -17t-42 17t-17 42zM103 700h407v-77h-317v-224h286v-77h-286v-245h330v-77h-420v700z" />
    <glyph glyph-name="Igrave" unicode="&#xcc;" horiz-adv-x="297" 
d="M126 762l-118 178h112l65 -178h-59zM103 700h91v-700h-91v700z" />
    <glyph glyph-name="Iacute" unicode="&#xcd;" horiz-adv-x="297" 
d="M121 762l64 178h113l-119 -178h-58zM103 700h91v-700h-91v700z" />
    <glyph glyph-name="Icircumflex" unicode="&#xce;" horiz-adv-x="297" 
d="M198 940l98 -178h-55l-93 117l-92 -117h-56l99 178h99zM103 700h91v-700h-91v700z" />
    <glyph glyph-name="Idieresis" unicode="&#xcf;" horiz-adv-x="297" 
d="M-9 841q0 25 17 42t42 17q26 0 43 -17t17 -42t-17 -42t-43 -17q-25 0 -42 17t-17 42zM187 841q0 25 17 42t42 17t42 -17t17 -42t-17 -42t-42 -17t-42 17t-17 42zM103 700h91v-700h-91v700z" />
    <glyph glyph-name="Eth" unicode="&#xd0;" horiz-adv-x="683" 
d="M112 0v322h-73v77h73v301h189q153 0 243 -93t90 -256q0 -164 -90 -257.5t-243 -93.5h-189zM298 77q118 0 180.5 73.5t62.5 200.5t-62.5 199.5t-180.5 72.5h-95v-224h137v-77h-137v-245h95z" />
    <glyph glyph-name="Ntilde" unicode="&#xd1;" horiz-adv-x="718" 
d="M427 761q-26 0 -52.5 25t-49 50t-39.5 25q-43 0 -56 -99h-57q2 70 35.5 121t81.5 51q26 0 52.5 -25t49 -49.5t38.5 -24.5q44 0 57 99h57q-3 -71 -36 -122t-81 -51zM192 551h-4v-551h-85v700h90l332 -542h4v542h85v-700h-79z" />
    <glyph glyph-name="Ograve" unicode="&#xd2;" horiz-adv-x="663" 
d="M313 762l-118 178h112l65 -178h-59zM614 350q0 -162 -78 -261.5t-204 -99.5t-204.5 100t-78.5 261t78.5 261t204.5 100t204 -99.5t78 -261.5zM521 350q0 125 -50.5 203t-138.5 78t-139 -78t-51 -203t51 -203t139 -78t138.5 78t50.5 203z" />
    <glyph glyph-name="Oacute" unicode="&#xd3;" horiz-adv-x="663" 
d="M297 762l64 178h113l-119 -178h-58zM614 350q0 -162 -78 -261.5t-204 -99.5t-204.5 100t-78.5 261t78.5 261t204.5 100t204 -99.5t78 -261.5zM521 350q0 125 -50.5 203t-138.5 78t-139 -78t-51 -203t51 -203t139 -78t138.5 78t50.5 203z" />
    <glyph glyph-name="Ocircumflex" unicode="&#xd4;" horiz-adv-x="663" 
d="M381 940l98 -178h-55l-93 117l-92 -117h-56l99 178h99zM614 350q0 -162 -78 -261.5t-204 -99.5t-204.5 100t-78.5 261t78.5 261t204.5 100t204 -99.5t78 -261.5zM521 350q0 125 -50.5 203t-138.5 78t-139 -78t-51 -203t51 -203t139 -78t138.5 78t50.5 203z" />
    <glyph glyph-name="Otilde" unicode="&#xd5;" horiz-adv-x="663" 
d="M409 761q-26 0 -52.5 25t-49 50t-39.5 25q-43 0 -56 -99h-57q2 70 35.5 121t81.5 51q26 0 52.5 -25t49 -49.5t38.5 -24.5q44 0 57 99h57q-3 -71 -36 -122t-81 -51zM614 350q0 -162 -78 -261.5t-204 -99.5t-204.5 100t-78.5 261t78.5 261t204.5 100t204 -99.5t78 -261.5z
M521 350q0 125 -50.5 203t-138.5 78t-139 -78t-51 -203t51 -203t139 -78t138.5 78t50.5 203z" />
    <glyph glyph-name="Odieresis" unicode="&#xd6;" horiz-adv-x="663" 
d="M174 841q0 25 17 42t42 17q26 0 43 -17t17 -42t-17 -42t-43 -17q-25 0 -42 17t-17 42zM370 841q0 25 17 42t42 17t42 -17t17 -42t-17 -42t-42 -17t-42 17t-17 42zM614 350q0 -162 -78 -261.5t-204 -99.5t-204.5 100t-78.5 261t78.5 261t204.5 100t204 -99.5t78 -261.5z
M521 350q0 125 -50.5 203t-138.5 78t-139 -78t-51 -203t51 -203t139 -78t138.5 78t50.5 203z" />
    <glyph glyph-name="multiply" unicode="&#xd7;" 
d="M294 270l-185 -185l-50 51l185 185l-187 187l50 50l187 -187l187 187l50 -50l-186 -187l185 -185l-51 -51z" />
    <glyph glyph-name="Oslash" unicode="&#xd8;" horiz-adv-x="663" 
d="M332 -11q-87 0 -155 51l-52 -86h-70l78 128q-84 101 -84 268q0 161 78.5 261t204.5 100q86 0 153 -50l52 86h72l-79 -129q84 -100 84 -268q0 -162 -78 -261.5t-204 -99.5zM141 350q0 -114 41 -187l260 427q-46 43 -110 43q-89 0 -140 -78t-51 -205zM332 67q88 0 139 78
t51 205q0 114 -41 188l-260 -427q47 -44 111 -44z" />
    <glyph glyph-name="Ugrave" unicode="&#xd9;" horiz-adv-x="672" 
d="M320 762l-118 178h112l65 -178h-59zM336 70q166 0 166 205v425h91v-432q0 -136 -69.5 -207.5t-187.5 -71.5q-117 0 -187 71.5t-70 207.5v432h91v-425q0 -205 166 -205z" />
    <glyph glyph-name="Uacute" unicode="&#xda;" horiz-adv-x="672" 
d="M298 762l64 178h113l-119 -178h-58zM336 70q166 0 166 205v425h91v-432q0 -136 -69.5 -207.5t-187.5 -71.5q-117 0 -187 71.5t-70 207.5v432h91v-425q0 -205 166 -205z" />
    <glyph glyph-name="Ucircumflex" unicode="&#xdb;" horiz-adv-x="672" 
d="M386 940l98 -178h-55l-93 117l-92 -117h-56l99 178h99zM336 70q166 0 166 205v425h91v-432q0 -136 -69.5 -207.5t-187.5 -71.5q-117 0 -187 71.5t-70 207.5v432h91v-425q0 -205 166 -205z" />
    <glyph glyph-name="Udieresis" unicode="&#xdc;" horiz-adv-x="672" 
d="M179 841q0 25 17 42t42 17q26 0 43 -17t17 -42t-17 -42t-43 -17q-25 0 -42 17t-17 42zM375 841q0 25 17 42t42 17t42 -17t17 -42t-17 -42t-42 -17t-42 17t-17 42zM336 70q166 0 166 205v425h91v-432q0 -136 -69.5 -207.5t-187.5 -71.5q-117 0 -187 71.5t-70 207.5v432h91
v-425q0 -205 166 -205z" />
    <glyph glyph-name="Yacute" unicode="&#xdd;" horiz-adv-x="612" 
d="M267 762l64 178h113l-119 -178h-58zM261 0v296l-239 404h99l189 -323l187 323h94l-239 -404v-296h-91z" />
    <glyph glyph-name="Thorn" unicode="&#xde;" horiz-adv-x="605" 
d="M103 0v700h90v-121h135q108 0 175 -57t67 -154q0 -98 -67 -155.5t-175 -57.5h-135v-155h-90zM477 368q0 62 -40.5 98t-111.5 36h-132v-269h132q71 0 111.5 35.5t40.5 99.5z" />
    <glyph glyph-name="germandbls" unicode="&#xdf;" horiz-adv-x="630" 
d="M395 425q0 -23 20 -46.5t48 -46t56.5 -47.5t48 -60t19.5 -74q0 -72 -53 -117t-126 -45q-82 0 -147 40v86q69 -53 147 -53q44 0 70 24t26 60q0 29 -19.5 56.5t-47 50t-55.5 45t-47.5 53t-19.5 63.5q0 51 31 88t102 88q-3 44 -36 77.5t-86 33.5q-65 0 -105 -46t-40 -127
v-528h-88v535q0 107 68 172.5t166 65.5q97 0 151.5 -57.5t57.5 -140.5q-80 -51 -111 -83t-30 -67z" />
    <glyph glyph-name="agrave" unicode="&#xe0;" horiz-adv-x="519" 
d="M256 583l-122 190h115l60 -190h-53zM359 0l-12 52q-76 -63 -153 -63q-61 0 -101.5 39t-40.5 103q0 79 73.5 127t218.5 49v33q0 106 -103 106q-75 0 -162 -49v75q30 22 79 36.5t90 14.5q94 0 139 -49t45 -129v-229q0 -57 11 -116h-84zM221 57q64 0 123 46v145
q-102 -1 -154 -30t-52 -82q0 -37 22.5 -58t60.5 -21z" />
    <glyph glyph-name="aacute" unicode="&#xe1;" horiz-adv-x="519" 
d="M223 583l61 190h115l-122 -190h-54zM359 0l-12 52q-76 -63 -153 -63q-61 0 -101.5 39t-40.5 103q0 79 73.5 127t218.5 49v33q0 106 -103 106q-75 0 -162 -49v75q30 22 79 36.5t90 14.5q94 0 139 -49t45 -129v-229q0 -57 11 -116h-84zM221 57q64 0 123 46v145
q-102 -1 -154 -30t-52 -82q0 -37 22.5 -58t60.5 -21z" />
    <glyph glyph-name="acircumflex" unicode="&#xe2;" horiz-adv-x="519" 
d="M302 773l104 -190h-58l-95 129l-93 -129h-59l104 190h97zM359 0l-12 52q-76 -63 -153 -63q-61 0 -101.5 39t-40.5 103q0 79 73.5 127t218.5 49v33q0 106 -103 106q-75 0 -162 -49v75q30 22 79 36.5t90 14.5q94 0 139 -49t45 -129v-229q0 -57 11 -116h-84zM221 57
q64 0 123 46v145q-102 -1 -154 -30t-52 -82q0 -37 22.5 -58t60.5 -21z" />
    <glyph glyph-name="atilde" unicode="&#xe3;" horiz-adv-x="519" 
d="M323 596q-26 0 -52 25t-47.5 49.5t-37.5 24.5q-44 0 -57 -99h-55q2 70 35 121t81 51q26 0 51.5 -25t47.5 -49.5t38 -24.5q44 0 57 99h55q-2 -70 -35 -121t-81 -51zM359 0l-12 52q-76 -63 -153 -63q-61 0 -101.5 39t-40.5 103q0 79 73.5 127t218.5 49v33q0 106 -103 106
q-75 0 -162 -49v75q30 22 79 36.5t90 14.5q94 0 139 -49t45 -129v-229q0 -57 11 -116h-84zM221 57q64 0 123 46v145q-102 -1 -154 -30t-52 -82q0 -37 22.5 -58t60.5 -21z" />
    <glyph glyph-name="adieresis" unicode="&#xe4;" horiz-adv-x="519" 
d="M100 672q0 25 17 42.5t42 17.5t42 -17.5t17 -42.5t-17 -42t-42 -17t-42 17t-17 42zM289 672q0 25 17 42.5t42 17.5t42 -17.5t17 -42.5t-17 -42t-42 -17t-42 17t-17 42zM359 0l-12 52q-76 -63 -153 -63q-61 0 -101.5 39t-40.5 103q0 79 73.5 127t218.5 49v33
q0 106 -103 106q-75 0 -162 -49v75q30 22 79 36.5t90 14.5q94 0 139 -49t45 -129v-229q0 -57 11 -116h-84zM221 57q64 0 123 46v145q-102 -1 -154 -30t-52 -82q0 -37 22.5 -58t60.5 -21z" />
    <glyph glyph-name="aring" unicode="&#xe5;" horiz-adv-x="519" 
d="M254 594q-46 0 -79 32.5t-33 78.5t33 79t79 33t79 -33t33 -79t-33 -78.5t-79 -32.5zM254 765q-25 0 -43 -17.5t-18 -42.5t18 -42.5t43 -17.5t43 17.5t18 42.5t-18.5 42.5t-42.5 17.5zM359 0l-12 52q-76 -63 -153 -63q-61 0 -101.5 39t-40.5 103q0 79 73.5 127t218.5 49
v33q0 106 -103 106q-75 0 -162 -49v75q30 22 79 36.5t90 14.5q94 0 139 -49t45 -129v-229q0 -57 11 -116h-84zM221 57q64 0 123 46v145q-102 -1 -154 -30t-52 -82q0 -37 22.5 -58t60.5 -21z" />
    <glyph glyph-name="ae" unicode="&#xe6;" horiz-adv-x="807" 
d="M595 -11q-130 0 -201 100q-35 -42 -85 -71t-106 -29q-67 0 -109 39.5t-42 104.5q0 79 73.5 125t219.5 46v36q0 106 -104 106q-75 0 -162 -49v75q31 22 79.5 36.5t88.5 14.5q120 0 154 -96q63 96 167 96q105 0 152.5 -78t35.5 -203h-331q5 -81 53.5 -129t123.5 -48t142 36
v-78q-65 -34 -149 -34zM566 450q-55 0 -92 -39t-47 -107h245q5 64 -22.5 105t-83.5 41zM218 58q83 0 147 86q-18 43 -21 98q-206 0 -206 -104q0 -37 22 -58.5t58 -21.5z" />
    <glyph glyph-name="ccedilla" unicode="&#xe7;" horiz-adv-x="454" 
d="M241 -226q-64 0 -100 25v58q48 -28 97 -28q28 0 46.5 11t18.5 31q0 40 -96 40l34 85q-86 19 -139 89t-53 169q0 117 71.5 193t180.5 76q66 0 105 -27v-78q-47 27 -102 27q-74 0 -120.5 -53t-46.5 -138t46.5 -135.5t120.5 -50.5q57 0 102 27v-79q-41 -27 -105 -27
q-12 0 -19 1l-14 -38q98 -13 98 -81q0 -45 -36.5 -71t-88.5 -26z" />
    <glyph glyph-name="egrave" unicode="&#xe8;" horiz-adv-x="514" 
d="M267 583l-122 190h115l60 -190h-53zM452 23q-65 -34 -149 -34q-114 0 -184 77t-70 194q0 111 63 187t163 76q106 0 153.5 -78t34.5 -203h-330q5 -81 53.5 -129t123.5 -48t142 36v-78zM275 450q-56 0 -93 -39t-47 -107h244q5 64 -22.5 105t-81.5 41z" />
    <glyph glyph-name="eacute" unicode="&#xe9;" horiz-adv-x="514" 
d="M252 583l61 190h115l-122 -190h-54zM452 23q-65 -34 -149 -34q-114 0 -184 77t-70 194q0 111 63 187t163 76q106 0 153.5 -78t34.5 -203h-330q5 -81 53.5 -129t123.5 -48t142 36v-78zM275 450q-56 0 -93 -39t-47 -107h244q5 64 -22.5 105t-81.5 41z" />
    <glyph glyph-name="ecircumflex" unicode="&#xea;" horiz-adv-x="514" 
d="M322 773l104 -190h-58l-95 129l-93 -129h-59l104 190h97zM452 23q-65 -34 -149 -34q-114 0 -184 77t-70 194q0 111 63 187t163 76q106 0 153.5 -78t34.5 -203h-330q5 -81 53.5 -129t123.5 -48t142 36v-78zM275 450q-56 0 -93 -39t-47 -107h244q5 64 -22.5 105t-81.5 41z
" />
    <glyph glyph-name="edieresis" unicode="&#xeb;" horiz-adv-x="514" 
d="M124 672q0 25 17 42.5t42 17.5t42 -17.5t17 -42.5t-17 -42t-42 -17t-42 17t-17 42zM313 672q0 25 17 42.5t42 17.5t42 -17.5t17 -42.5t-17 -42t-42 -17t-42 17t-17 42zM452 23q-65 -34 -149 -34q-114 0 -184 77t-70 194q0 111 63 187t163 76q106 0 153.5 -78t34.5 -203
h-330q5 -81 53.5 -129t123.5 -48t142 36v-78zM275 450q-56 0 -93 -39t-47 -107h244q5 64 -22.5 105t-81.5 41z" />
    <glyph glyph-name="igrave" unicode="&#xec;" horiz-adv-x="274" 
d="M113 583l-122 190h115l60 -190h-53zM93 512h88v-512h-88v512z" />
    <glyph glyph-name="iacute" unicode="&#xed;" horiz-adv-x="274" 
d="M107 583l61 190h115l-122 -190h-54zM93 512h88v-512h-88v512z" />
    <glyph glyph-name="icircumflex" unicode="&#xee;" horiz-adv-x="274" 
d="M185 773l104 -190h-58l-95 129l-93 -129h-59l104 190h97zM93 512h88v-512h-88v512z" />
    <glyph glyph-name="idieresis" unicode="&#xef;" horiz-adv-x="274" 
d="M-16 672q0 25 17 42.5t42 17.5t42 -17.5t17 -42.5t-17 -42t-42 -17t-42 17t-17 42zM173 672q0 25 17 42.5t42 17.5t42 -17.5t17 -42.5t-17 -42t-42 -17t-42 17t-17 42zM93 512h88v-512h-88v512z" />
    <glyph glyph-name="eth" unicode="&#xf0;" horiz-adv-x="564" 
d="M279 -11q-99 0 -164.5 71.5t-65.5 183.5q0 110 68 180.5t164 70.5q78 0 130 -59q-34 111 -126 184l-159 -77v61l106 52q-71 42 -171 75v9l85 33q93 -33 163 -80l131 64v-62l-82 -40q157 -135 157 -366q0 -139 -65.5 -219.5t-170.5 -80.5zM280 65q71 0 111 57t40 167
q0 33 -3 63q-60 74 -136 74q-70 0 -112.5 -51t-42.5 -131q0 -82 37.5 -130.5t105.5 -48.5z" />
    <glyph glyph-name="ntilde" unicode="&#xf1;" horiz-adv-x="576" 
d="M358 596q-26 0 -52 25t-47.5 49.5t-37.5 24.5q-44 0 -57 -99h-55q2 70 35 121t81 51q26 0 51.5 -25t47.5 -49.5t38 -24.5q44 0 57 99h55q-2 -70 -35 -121t-81 -51zM181 512v-55q76 66 158 66q74 0 112 -46t38 -127v-350h-88v336q0 56 -22 84t-72 28q-62 0 -126 -48v-400
h-88v512h88z" />
    <glyph glyph-name="ograve" unicode="&#xf2;" horiz-adv-x="557" 
d="M270 583l-122 190h115l60 -190h-53zM508 256q0 -117 -65.5 -192t-163.5 -75q-99 0 -164.5 75t-65.5 192t65.5 192t164.5 75q98 0 163.5 -75t65.5 -192zM137 256q0 -86 37.5 -138.5t104.5 -52.5q66 0 103.5 52.5t37.5 138.5t-37.5 139t-103.5 53q-67 0 -104.5 -53
t-37.5 -139z" />
    <glyph glyph-name="oacute" unicode="&#xf3;" horiz-adv-x="557" 
d="M250 583l61 190h115l-122 -190h-54zM508 256q0 -117 -65.5 -192t-163.5 -75q-99 0 -164.5 75t-65.5 192t65.5 192t164.5 75q98 0 163.5 -75t65.5 -192zM137 256q0 -86 37.5 -138.5t104.5 -52.5q66 0 103.5 52.5t37.5 138.5t-37.5 139t-103.5 53q-67 0 -104.5 -53
t-37.5 -139z" />
    <glyph glyph-name="ocircumflex" unicode="&#xf4;" horiz-adv-x="557" 
d="M327 773l104 -190h-58l-95 129l-93 -129h-59l104 190h97zM508 256q0 -117 -65.5 -192t-163.5 -75q-99 0 -164.5 75t-65.5 192t65.5 192t164.5 75q98 0 163.5 -75t65.5 -192zM137 256q0 -86 37.5 -138.5t104.5 -52.5q66 0 103.5 52.5t37.5 138.5t-37.5 139t-103.5 53
q-67 0 -104.5 -53t-37.5 -139z" />
    <glyph glyph-name="otilde" unicode="&#xf5;" horiz-adv-x="557" 
d="M348 596q-26 0 -52 25t-47.5 49.5t-37.5 24.5q-44 0 -57 -99h-55q2 70 35 121t81 51q26 0 51.5 -25t47.5 -49.5t38 -24.5q44 0 57 99h55q-2 -70 -35 -121t-81 -51zM508 256q0 -117 -65.5 -192t-163.5 -75q-99 0 -164.5 75t-65.5 192t65.5 192t164.5 75q98 0 163.5 -75
t65.5 -192zM137 256q0 -86 37.5 -138.5t104.5 -52.5q66 0 103.5 52.5t37.5 138.5t-37.5 139t-103.5 53q-67 0 -104.5 -53t-37.5 -139z" />
    <glyph glyph-name="odieresis" unicode="&#xf6;" horiz-adv-x="557" 
d="M126 672q0 25 17 42.5t42 17.5t42 -17.5t17 -42.5t-17 -42t-42 -17t-42 17t-17 42zM315 672q0 25 17 42.5t42 17.5t42 -17.5t17 -42.5t-17 -42t-42 -17t-42 17t-17 42zM508 256q0 -117 -65.5 -192t-163.5 -75q-99 0 -164.5 75t-65.5 192t65.5 192t164.5 75
q98 0 163.5 -75t65.5 -192zM137 256q0 -86 37.5 -138.5t104.5 -52.5q66 0 103.5 52.5t37.5 138.5t-37.5 139t-103.5 53q-67 0 -104.5 -53t-37.5 -139z" />
    <glyph glyph-name="divide" unicode="&#xf7;" 
d="M216 535q0 30 21 51.5t51 21.5q29 0 50.5 -21.5t21.5 -51.5q0 -28 -21.5 -49t-50.5 -21q-30 0 -51 20.5t-21 49.5zM40 366h508v-72h-508v72zM216 121q0 31 20.5 52t51.5 21q29 0 50.5 -21.5t21.5 -51.5q0 -28 -21.5 -49t-50.5 -21q-30 0 -51 20.5t-21 49.5z" />
    <glyph glyph-name="oslash" unicode="&#xf8;" horiz-adv-x="557" 
d="M279 -11q-62 0 -113 31l-41 -66h-65l63 101q-74 76 -74 201q0 117 65.5 192t164.5 75q62 0 115 -33l41 66h67l-64 -103q70 -77 70 -197q0 -117 -65.5 -192t-163.5 -75zM135 256q0 -80 31 -131l189 303q-34 24 -76 24q-68 0 -106 -54t-38 -142zM279 60q67 0 105 54t38 142
q0 76 -28 127l-189 -301q33 -22 74 -22z" />
    <glyph glyph-name="ugrave" unicode="&#xf9;" horiz-adv-x="573" 
d="M273 583l-122 190h115l60 -190h-53zM393 55q-76 -66 -157 -66q-73 0 -111 46.5t-38 126.5v350h88v-331q0 -57 21 -87t71 -30q63 0 126 50v398h88v-512h-88v55z" />
    <glyph glyph-name="uacute" unicode="&#xfa;" horiz-adv-x="573" 
d="M252 583l61 190h115l-122 -190h-54zM393 55q-76 -66 -157 -66q-73 0 -111 46.5t-38 126.5v350h88v-331q0 -57 21 -87t71 -30q63 0 126 50v398h88v-512h-88v55z" />
    <glyph glyph-name="ucircumflex" unicode="&#xfb;" horiz-adv-x="573" 
d="M331 773l104 -190h-58l-95 129l-93 -129h-59l104 190h97zM393 55q-76 -66 -157 -66q-73 0 -111 46.5t-38 126.5v350h88v-331q0 -57 21 -87t71 -30q63 0 126 50v398h88v-512h-88v55z" />
    <glyph glyph-name="udieresis" unicode="&#xfc;" horiz-adv-x="573" 
d="M130 672q0 25 17 42.5t42 17.5t42 -17.5t17 -42.5t-17 -42t-42 -17t-42 17t-17 42zM319 672q0 25 17 42.5t42 17.5t42 -17.5t17 -42.5t-17 -42t-42 -17t-42 17t-17 42zM393 55q-76 -66 -157 -66q-73 0 -111 46.5t-38 126.5v350h88v-331q0 -57 21 -87t71 -30q63 0 126 50
v398h88v-512h-88v55z" />
    <glyph glyph-name="yacute" unicode="&#xfd;" horiz-adv-x="524" 
d="M225 583l61 190h115l-122 -190h-54zM75 -221q-35 0 -57 10v69q24 -7 53 -7q53 0 88.5 38.5t61.5 114.5l-195 508h93l145 -404h4l143 404h87l-196 -518q-44 -114 -96 -164.5t-131 -50.5z" />
    <glyph glyph-name="thorn" unicode="&#xfe;" horiz-adv-x="581" 
d="M181 -215h-88v977h88v-305q64 66 147 66q94 0 149 -68t55 -186q0 -125 -69.5 -202.5t-175.5 -77.5q-61 0 -106 31v-235zM181 87q34 -29 97 -29q76 0 120.5 57t44.5 150q0 87 -37 135.5t-100 48.5q-74 0 -125 -49v-313z" />
    <glyph glyph-name="ydieresis" unicode="&#xff;" horiz-adv-x="524" 
d="M111 672q0 25 17 42.5t42 17.5t42 -17.5t17 -42.5t-17 -42t-42 -17t-42 17t-17 42zM300 672q0 25 17 42.5t42 17.5t42 -17.5t17 -42.5t-17 -42t-42 -17t-42 17t-17 42zM75 -221q-35 0 -57 10v69q24 -7 53 -7q53 0 88.5 38.5t61.5 114.5l-195 508h93l145 -404h4l143 404
h87l-196 -518q-44 -114 -96 -164.5t-131 -50.5z" />
    <glyph glyph-name="Amacron" unicode="&#x100;" horiz-adv-x="637" 
d="M164 786v71h309v-71h-309zM450 215h-266l-73 -215h-89l246 700h101l246 -700h-92zM209 290h216l-106 314h-3z" />
    <glyph glyph-name="amacron" unicode="&#x101;" horiz-adv-x="519" 
d="M111 635v71h286v-71h-286zM359 0l-12 52q-76 -63 -153 -63q-61 0 -101.5 39t-40.5 103q0 79 73.5 127t218.5 49v33q0 106 -103 106q-75 0 -162 -49v75q30 22 79 36.5t90 14.5q94 0 139 -49t45 -129v-229q0 -57 11 -116h-84zM221 57q64 0 123 46v145q-102 -1 -154 -30
t-52 -82q0 -37 22.5 -58t60.5 -21z" />
    <glyph glyph-name="Abreve" unicode="&#x102;" horiz-adv-x="637" 
d="M318 762q-71 0 -110 49t-39 129h60q7 -109 89 -109q84 0 89 109h61q0 -80 -39 -129t-111 -49zM450 215h-266l-73 -215h-89l246 700h101l246 -700h-92zM209 290h216l-106 314h-3z" />
    <glyph glyph-name="abreve" unicode="&#x103;" horiz-adv-x="519" 
d="M254 583q-70 0 -108.5 54t-38.5 136h61q5 -120 86 -120q82 0 87 120h61q0 -82 -38.5 -136t-109.5 -54zM359 0l-12 52q-76 -63 -153 -63q-61 0 -101.5 39t-40.5 103q0 79 73.5 127t218.5 49v33q0 106 -103 106q-75 0 -162 -49v75q30 22 79 36.5t90 14.5q94 0 139 -49
t45 -129v-229q0 -57 11 -116h-84zM221 57q64 0 123 46v145q-102 -1 -154 -30t-52 -82q0 -37 22.5 -58t60.5 -21z" />
    <glyph glyph-name="Aogonek" unicode="&#x104;" horiz-adv-x="637" 
d="M614 -201q-36 -25 -91 -25q-45 0 -74.5 26t-29.5 64q0 74 101 145l-70 206h-266l-73 -215h-89l246 700h101l246 -700h-37q-92 -67 -92 -123q0 -20 13.5 -31.5t36.5 -11.5q35 0 78 21v-56zM209 290h216l-106 314h-3z" />
    <glyph glyph-name="aogonek" unicode="&#x105;" horiz-adv-x="519" 
d="M463 -202q-36 -25 -91 -25q-45 0 -74.5 26t-29.5 64q0 70 91 138l-12 51q-76 -63 -153 -63q-61 0 -101.5 39t-40.5 103q0 79 73.5 127t218.5 49v33q0 106 -103 106q-75 0 -162 -49v75q30 22 79 36.5t90 14.5q94 0 139 -49t45 -129v-229q0 -57 11 -116h-15
q-93 -67 -93 -124q0 -20 13.5 -31.5t36.5 -11.5q35 0 78 21v-56zM221 57q64 0 123 46v145q-102 -1 -154 -30t-52 -82q0 -37 22.5 -58t60.5 -21z" />
    <glyph glyph-name="Cacute" unicode="&#x106;" horiz-adv-x="562" 
d="M304 762l64 178h113l-119 -178h-58zM49 350q0 164 89 262.5t221 98.5q91 0 148 -45v-88q-56 52 -146 52q-96 0 -157.5 -77t-61.5 -203q0 -125 61.5 -202t157.5 -77q90 0 146 52v-89q-57 -45 -148 -45q-132 0 -221 99t-89 262z" />
    <glyph glyph-name="cacute" unicode="&#x107;" horiz-adv-x="454" 
d="M241 583l61 190h115l-122 -190h-54zM49 254q0 117 71.5 193t180.5 76q66 0 105 -27v-78q-47 27 -102 27q-74 0 -120.5 -53t-46.5 -138t46.5 -135.5t120.5 -50.5q57 0 102 27v-79q-41 -27 -105 -27q-109 0 -180.5 74t-71.5 191z" />
    <glyph glyph-name="Ccircumflex" unicode="&#x108;" horiz-adv-x="562" 
d="M387 940l98 -178h-55l-93 117l-92 -117h-56l99 178h99zM49 350q0 164 89 262.5t221 98.5q91 0 148 -45v-88q-56 52 -146 52q-96 0 -157.5 -77t-61.5 -203q0 -125 61.5 -202t157.5 -77q90 0 146 52v-89q-57 -45 -148 -45q-132 0 -221 99t-89 262z" />
    <glyph glyph-name="ccircumflex" unicode="&#x109;" horiz-adv-x="454" 
d="M323 773l104 -190h-58l-95 129l-93 -129h-59l104 190h97zM49 254q0 117 71.5 193t180.5 76q66 0 105 -27v-78q-47 27 -102 27q-74 0 -120.5 -53t-46.5 -138t46.5 -135.5t120.5 -50.5q57 0 102 27v-79q-41 -27 -105 -27q-109 0 -180.5 74t-71.5 191z" />
    <glyph glyph-name="Cdotaccent" unicode="&#x10a;" horiz-adv-x="562" 
d="M273 848q0 27 18 46t46 19t46 -19t18 -46t-18 -45t-46 -18t-46 18t-18 45zM49 350q0 164 89 262.5t221 98.5q91 0 148 -45v-88q-56 52 -146 52q-96 0 -157.5 -77t-61.5 -203q0 -125 61.5 -202t157.5 -77q90 0 146 52v-89q-57 -45 -148 -45q-132 0 -221 99t-89 262z" />
    <glyph glyph-name="cdotaccent" unicode="&#x10b;" horiz-adv-x="454" 
d="M210 677q0 27 18 46t46 19t46 -19t18 -46t-18 -45.5t-46 -18.5t-46 18.5t-18 45.5zM49 254q0 117 71.5 193t180.5 76q66 0 105 -27v-78q-47 27 -102 27q-74 0 -120.5 -53t-46.5 -138t46.5 -135.5t120.5 -50.5q57 0 102 27v-79q-41 -27 -105 -27q-109 0 -180.5 74
t-71.5 191z" />
    <glyph glyph-name="Ccaron" unicode="&#x10c;" horiz-adv-x="562" 
d="M288 762l-99 178h56l92 -117l93 117h55l-98 -178h-99zM49 350q0 164 89 262.5t221 98.5q91 0 148 -45v-88q-56 52 -146 52q-96 0 -157.5 -77t-61.5 -203q0 -125 61.5 -202t157.5 -77q90 0 146 52v-89q-57 -45 -148 -45q-132 0 -221 99t-89 262z" />
    <glyph glyph-name="ccaron" unicode="&#x10d;" horiz-adv-x="454" 
d="M235 583l-104 190h59l93 -129l95 129h58l-104 -190h-97zM49 254q0 117 71.5 193t180.5 76q66 0 105 -27v-78q-47 27 -102 27q-74 0 -120.5 -53t-46.5 -138t46.5 -135.5t120.5 -50.5q57 0 102 27v-79q-41 -27 -105 -27q-109 0 -180.5 74t-71.5 191z" />
    <glyph glyph-name="Dcaron" unicode="&#x10e;" horiz-adv-x="674" 
d="M287 762l-99 178h56l92 -117l93 117h55l-98 -178h-99zM103 700h189q153 0 243 -93t90 -256q0 -164 -90 -257.5t-243 -93.5h-189v700zM289 77q118 0 180.5 73.5t62.5 200.5t-62.5 199.5t-180.5 72.5h-95v-546h95z" />
    <glyph glyph-name="dcaron" unicode="&#x10f;" horiz-adv-x="695" 
d="M487 762v-762h-87v54q-59 -65 -142 -65q-93 0 -151 68t-58 185q0 126 68.5 203.5t173.5 77.5q69 0 109 -28v267h87zM611 762h101l-80 -234h-51zM400 424q-38 29 -99 29q-77 0 -120 -57t-43 -150q0 -87 38.5 -135t102.5 -48q66 0 121 51v310z" />
    <glyph glyph-name="Dcroat" unicode="&#x110;" horiz-adv-x="683" 
d="M112 0v322h-73v77h73v301h189q153 0 243 -93t90 -256q0 -164 -90 -257.5t-243 -93.5h-189zM298 77q118 0 180.5 73.5t62.5 200.5t-62.5 199.5t-180.5 72.5h-95v-224h137v-77h-137v-245h95z" />
    <glyph glyph-name="dcroat" unicode="&#x111;" horiz-adv-x="581" 
d="M400 54q-59 -65 -142 -65q-93 0 -151 68t-58 185q0 126 68.5 203.5t173.5 77.5q69 0 109 -28v117h-142v62h142v88h87v-88h73v-62h-73v-612h-87v54zM400 424q-38 29 -99 29q-77 0 -120 -57t-43 -150q0 -87 38.5 -135t102.5 -48q66 0 121 51v310z" />
    <glyph glyph-name="Emacron" unicode="&#x112;" horiz-adv-x="598" 
d="M157 786v71h309v-71h-309zM103 700h407v-77h-317v-224h286v-77h-286v-245h330v-77h-420v700z" />
    <glyph glyph-name="emacron" unicode="&#x113;" horiz-adv-x="514" 
d="M130 635v71h286v-71h-286zM452 23q-65 -34 -149 -34q-114 0 -184 77t-70 194q0 111 63 187t163 76q106 0 153.5 -78t34.5 -203h-330q5 -81 53.5 -129t123.5 -48t142 36v-78zM275 450q-56 0 -93 -39t-47 -107h244q5 64 -22.5 105t-81.5 41z" />
    <glyph glyph-name="Ebreve" unicode="&#x114;" horiz-adv-x="598" 
d="M311 762q-71 0 -110 49t-39 129h60q7 -109 89 -109q84 0 89 109h61q0 -80 -39 -129t-111 -49zM103 700h407v-77h-317v-224h286v-77h-286v-245h330v-77h-420v700z" />
    <glyph glyph-name="ebreve" unicode="&#x115;" horiz-adv-x="514" 
d="M275 583q-70 0 -108.5 54t-38.5 136h61q5 -120 86 -120q82 0 87 120h61q0 -82 -38.5 -136t-109.5 -54zM452 23q-65 -34 -149 -34q-114 0 -184 77t-70 194q0 111 63 187t163 76q106 0 153.5 -78t34.5 -203h-330q5 -81 53.5 -129t123.5 -48t142 36v-78zM275 450
q-56 0 -93 -39t-47 -107h244q5 64 -22.5 105t-81.5 41z" />
    <glyph glyph-name="Edotaccent" unicode="&#x116;" horiz-adv-x="598" 
d="M247 848q0 27 18 46t46 19t46 -19t18 -46t-18 -45t-46 -18t-46 18t-18 45zM103 700h407v-77h-317v-224h286v-77h-286v-245h330v-77h-420v700z" />
    <glyph glyph-name="edotaccent" unicode="&#x117;" horiz-adv-x="514" 
d="M213 677q0 27 18 46t46 19t46 -19t18 -46t-18 -45.5t-46 -18.5t-46 18.5t-18 45.5zM452 23q-65 -34 -149 -34q-114 0 -184 77t-70 194q0 111 63 187t163 76q106 0 153.5 -78t34.5 -203h-330q5 -81 53.5 -129t123.5 -48t142 36v-78zM275 450q-56 0 -93 -39t-47 -107h244
q5 64 -22.5 105t-81.5 41z" />
    <glyph glyph-name="Eogonek" unicode="&#x118;" horiz-adv-x="598" 
d="M510 -201q-36 -25 -91 -25q-45 0 -74.5 26t-29.5 64q0 70 89 136h-301v700h407v-77h-317v-224h286v-77h-286v-245h330v-77h-49q-92 -67 -92 -123q0 -20 13.5 -31.5t36.5 -11.5q35 0 78 21v-56z" />
    <glyph glyph-name="eogonek" unicode="&#x119;" horiz-adv-x="514" 
d="M454 -201q-36 -25 -90 -25q-45 0 -74.5 26t-29.5 64q0 64 79 127q-26 -2 -37 -2q-114 0 -183.5 77t-69.5 194q0 111 63 187t163 76q106 0 153.5 -78t34.5 -203h-329q5 -80 53.5 -128.5t122.5 -48.5q75 0 142 36v-78q-63 -37 -94.5 -75.5t-31.5 -70.5q0 -20 13.5 -31.5
t36.5 -11.5q35 0 78 21v-56zM275 450q-56 0 -93.5 -39.5t-46.5 -106.5h244q5 64 -22.5 105t-81.5 41z" />
    <glyph glyph-name="Ecaron" unicode="&#x11a;" horiz-adv-x="598" 
d="M262 762l-99 178h56l92 -117l93 117h55l-98 -178h-99zM103 700h407v-77h-317v-224h286v-77h-286v-245h330v-77h-420v700z" />
    <glyph glyph-name="ecaron" unicode="&#x11b;" horiz-adv-x="514" 
d="M233 583l-104 190h59l93 -129l95 129h58l-104 -190h-97zM452 23q-65 -34 -149 -34q-114 0 -184 77t-70 194q0 111 63 187t163 76q106 0 153.5 -78t34.5 -203h-330q5 -81 53.5 -129t123.5 -48t142 36v-78zM275 450q-56 0 -93 -39t-47 -107h244q5 64 -22.5 105t-81.5 41z
" />
    <glyph glyph-name="Gcircumflex" unicode="&#x11c;" horiz-adv-x="615" 
d="M415 940l98 -178h-55l-93 117l-92 -117h-56l99 178h99zM546 15q-73 -26 -160 -26q-89 0 -164 38.5t-124 120.5t-49 194q0 164 96.5 266.5t239.5 102.5q97 0 157 -45v-89q-62 53 -155 53q-106 0 -175.5 -81t-69.5 -207q0 -131 72 -202.5t169 -71.5q41 0 74 10v250h89v-313
z" />
    <glyph glyph-name="gcircumflex" unicode="&#x11d;" horiz-adv-x="525" 
d="M305 773l104 -190h-58l-95 129l-93 -129h-59l104 190h97zM505 -52q0 -81 -78.5 -127.5t-185.5 -46.5q-101 0 -167 41t-66 107q0 49 37 81.5t91 46.5q-26 23 -26 57q0 48 61 80q-55 19 -88 62t-33 101q0 77 57 125t140 48q35 0 68 -11h194v-66h-103q32 -45 32 -96
q0 -78 -54 -126.5t-137 -48.5q-16 0 -23 1q-42 -20 -42 -44q0 -30 48 -34l107 -16q168 -23 168 -134zM357 350q0 51 -31.5 79.5t-78.5 28.5q-48 0 -80.5 -28.5t-32.5 -79.5q0 -53 32.5 -82t80.5 -29q47 0 78.5 29.5t31.5 81.5zM245 -158q71 0 123.5 25.5t52.5 74.5
q0 30 -25 44.5t-67 20.5l-135 19q-48 -10 -76.5 -33.5t-28.5 -58.5q0 -45 43 -68.5t113 -23.5z" />
    <glyph glyph-name="Gbreve" unicode="&#x11e;" horiz-adv-x="615" 
d="M365 762q-71 0 -110 49t-39 129h60q7 -109 89 -109q84 0 89 109h61q0 -80 -39 -129t-111 -49zM546 15q-73 -26 -160 -26q-89 0 -164 38.5t-124 120.5t-49 194q0 164 96.5 266.5t239.5 102.5q97 0 157 -45v-89q-62 53 -155 53q-106 0 -175.5 -81t-69.5 -207
q0 -131 72 -202.5t169 -71.5q41 0 74 10v250h89v-313z" />
    <glyph glyph-name="gbreve" unicode="&#x11f;" horiz-adv-x="525" 
d="M257 583q-70 0 -108.5 54t-38.5 136h61q5 -120 86 -120q82 0 87 120h61q0 -82 -38.5 -136t-109.5 -54zM505 -52q0 -81 -78.5 -127.5t-185.5 -46.5q-101 0 -167 41t-66 107q0 49 37 81.5t91 46.5q-26 23 -26 57q0 48 61 80q-55 19 -88 62t-33 101q0 77 57 125t140 48
q35 0 68 -11h194v-66h-103q32 -45 32 -96q0 -78 -54 -126.5t-137 -48.5q-16 0 -23 1q-42 -20 -42 -44q0 -30 48 -34l107 -16q168 -23 168 -134zM357 350q0 51 -31.5 79.5t-78.5 28.5q-48 0 -80.5 -28.5t-32.5 -79.5q0 -53 32.5 -82t80.5 -29q47 0 78.5 29.5t31.5 81.5z
M245 -158q71 0 123.5 25.5t52.5 74.5q0 30 -25 44.5t-67 20.5l-135 19q-48 -10 -76.5 -33.5t-28.5 -58.5q0 -45 43 -68.5t113 -23.5z" />
    <glyph glyph-name="Gdotaccent" unicode="&#x120;" horiz-adv-x="615" 
d="M301 848q0 27 18 46t46 19t46 -19t18 -46t-18 -45t-46 -18t-46 18t-18 45zM546 15q-73 -26 -160 -26q-89 0 -164 38.5t-124 120.5t-49 194q0 164 96.5 266.5t239.5 102.5q97 0 157 -45v-89q-62 53 -155 53q-106 0 -175.5 -81t-69.5 -207q0 -131 72 -202.5t169 -71.5
q41 0 74 10v250h89v-313z" />
    <glyph glyph-name="gdotaccent" unicode="&#x121;" horiz-adv-x="525" 
d="M193 677q0 27 18 46t46 19t46 -19t18 -46t-18 -45.5t-46 -18.5t-46 18.5t-18 45.5zM505 -52q0 -81 -78.5 -127.5t-185.5 -46.5q-101 0 -167 41t-66 107q0 49 37 81.5t91 46.5q-26 23 -26 57q0 48 61 80q-55 19 -88 62t-33 101q0 77 57 125t140 48q35 0 68 -11h194v-66
h-103q32 -45 32 -96q0 -78 -54 -126.5t-137 -48.5q-16 0 -23 1q-42 -20 -42 -44q0 -30 48 -34l107 -16q168 -23 168 -134zM357 350q0 51 -31.5 79.5t-78.5 28.5q-48 0 -80.5 -28.5t-32.5 -79.5q0 -53 32.5 -82t80.5 -29q47 0 78.5 29.5t31.5 81.5zM245 -158q71 0 123.5 25.5
t52.5 74.5q0 30 -25 44.5t-67 20.5l-135 19q-48 -10 -76.5 -33.5t-28.5 -58.5q0 -45 43 -68.5t113 -23.5z" />
    <glyph glyph-name="uni0122" unicode="&#x122;" horiz-adv-x="615" 
d="M546 15q-73 -26 -160 -26q-89 0 -164 38.5t-124 120.5t-49 194q0 164 96.5 266.5t239.5 102.5q97 0 157 -45v-89q-62 53 -155 53q-106 0 -175.5 -81t-69.5 -207q0 -131 72 -202.5t169 -71.5q41 0 74 10v250h89v-313zM424 -37q0 -57 -30 -112t-67 -77h-65q31 32 51 84
t20 105h91z" />
    <glyph glyph-name="uni0123" unicode="&#x123;" horiz-adv-x="525" 
d="M211 584q0 56 30 111t68 78h64q-30 -32 -50 -84t-20 -105h-92zM505 -52q0 -81 -78.5 -127.5t-185.5 -46.5q-101 0 -167 41t-66 107q0 49 37 81.5t91 46.5q-26 23 -26 57q0 48 61 80q-55 19 -88 62t-33 101q0 77 57 125t140 48q35 0 68 -11h194v-66h-103q32 -45 32 -96
q0 -78 -54 -126.5t-137 -48.5q-16 0 -23 1q-42 -20 -42 -44q0 -30 48 -34l107 -16q168 -23 168 -134zM357 350q0 51 -31.5 79.5t-78.5 28.5q-48 0 -80.5 -28.5t-32.5 -79.5q0 -53 32.5 -82t80.5 -29q47 0 78.5 29.5t31.5 81.5zM245 -158q71 0 123.5 25.5t52.5 74.5
q0 30 -25 44.5t-67 20.5l-135 19q-48 -10 -76.5 -33.5t-28.5 -58.5q0 -45 43 -68.5t113 -23.5z" />
    <glyph glyph-name="Hcircumflex" unicode="&#x124;" horiz-adv-x="726" 
d="M413 940l98 -178h-55l-93 117l-92 -117h-56l99 178h99zM532 322h-338v-322h-91v700h91v-301h338v301h91v-700h-91v322z" />
    <glyph glyph-name="hcircumflex" unicode="&#x125;" horiz-adv-x="576" 
d="M341 968l98 -178h-55l-93 117l-92 -117h-56l99 178h99zM181 762v-305q76 66 158 66q74 0 112 -46t38 -127v-350h-88v336q0 56 -22 84t-72 28q-62 0 -126 -48v-400h-88v762h88z" />
    <glyph glyph-name="Hbar" unicode="&#x126;" horiz-adv-x="744" 
d="M203 0h-91v465h-73v77h73v158h91v-158h338v158h91v-158h73v-77h-73v-465h-91v259h-338v-259zM541 335v130h-338v-130h338z" />
    <glyph glyph-name="hbar" unicode="&#x127;" horiz-adv-x="576" 
d="M181 0h-88v612h-73v62h73v88h88v-88h142v-62h-142v-155q76 66 158 66q74 0 112 -46t38 -127v-350h-88v336q0 56 -22 84t-72 28q-62 0 -126 -48v-400z" />
    <glyph glyph-name="Itilde" unicode="&#x128;" horiz-adv-x="297" 
d="M218 761q-26 0 -52.5 25t-49 50t-39.5 25q-43 0 -56 -99h-57q2 70 35.5 121t81.5 51q26 0 52.5 -25t49 -49.5t38.5 -24.5q44 0 57 99h57q-3 -71 -36 -122t-81 -51zM103 700h91v-700h-91v700z" />
    <glyph glyph-name="itilde" unicode="&#x129;" horiz-adv-x="274" 
d="M204 596q-26 0 -52 25t-47.5 49.5t-37.5 24.5q-44 0 -57 -99h-55q2 70 35 121t81 51q26 0 51.5 -25t47.5 -49.5t38 -24.5q44 0 57 99h55q-2 -70 -35 -121t-81 -51zM93 512h88v-512h-88v512z" />
    <glyph glyph-name="Imacron" unicode="&#x12a;" horiz-adv-x="297" 
d="M-6 786v71h309v-71h-309zM103 700h91v-700h-91v700z" />
    <glyph glyph-name="imacron" unicode="&#x12b;" horiz-adv-x="274" 
d="M-6 635v71h286v-71h-286zM93 512h88v-512h-88v512z" />
    <glyph glyph-name="Ibreve" unicode="&#x12c;" horiz-adv-x="297" 
d="M148 762q-71 0 -110 49t-39 129h60q7 -109 89 -109q84 0 89 109h61q0 -80 -39 -129t-111 -49zM103 700h91v-700h-91v700z" />
    <glyph glyph-name="ibreve" unicode="&#x12d;" horiz-adv-x="274" 
d="M137 583q-70 0 -108.5 54t-38.5 136h61q5 -120 86 -120q82 0 87 120h61q0 -82 -38.5 -136t-109.5 -54zM93 512h88v-512h-88v512z" />
    <glyph glyph-name="Iogonek" unicode="&#x12e;" horiz-adv-x="297" 
d="M224 -201q-36 -25 -90 -25q-45 0 -74.5 25.5t-29.5 64.5q0 65 92 136h-19v701h91v-701q-97 -67 -97 -123q0 -43 50 -43q34 0 77 21v-56z" />
    <glyph glyph-name="iogonek" unicode="&#x12f;" horiz-adv-x="274" 
d="M73 677q0 27 18 46t46 19q27 0 45 -19t18 -46t-18 -45.5t-45 -18.5q-28 0 -46 18.5t-18 45.5zM93 512h88v-512q-98 -67 -98 -123q0 -43 50 -43q35 0 77 21v-56q-36 -25 -89 -25q-45 0 -75 26t-30 64q0 68 94 136h-17v512z" />
    <glyph glyph-name="Idotaccent" unicode="&#x130;" horiz-adv-x="297" 
d="M84 848q0 27 18 46t46 19t46 -19t18 -46t-18 -45t-46 -18t-46 18t-18 45zM103 700h91v-700h-91v700z" />
    <glyph glyph-name="dotlessi" unicode="&#x131;" horiz-adv-x="274" 
d="M93 512h88v-512h-88v512z" />
    <glyph glyph-name="Jcircumflex" unicode="&#x134;" horiz-adv-x="297" 
d="M196 940l98 -178h-55l-93 117l-92 -117h-56l99 178h99zM194 115q0 -101 -22 -166t-66 -118h-105q51 58 76.5 124t25.5 162v583h91v-585z" />
    <glyph glyph-name="jcircumflex" unicode="&#x135;" horiz-adv-x="274" 
d="M187 773l104 -190h-58l-95 129l-93 -129h-59l104 190h97zM93 512h88v-505q0 -121 -92 -222h-100q104 109 104 229v498z" />
    <glyph glyph-name="uni0136" unicode="&#x136;" horiz-adv-x="623" 
d="M194 349v-349h-91v700h91v-320l291 320h109l-307 -328l333 -372h-112zM362 -37q0 -57 -30 -112t-67 -77h-65q31 32 51 84t20 105h91z" />
    <glyph glyph-name="uni0137" unicode="&#x137;" horiz-adv-x="541" 
d="M181 264v-264h-88v762h88v-465l221 215h109l-239 -227l263 -285h-109zM345 -37q0 -57 -30 -112t-67 -77h-65q31 32 51 84t20 105h91z" />
    <glyph glyph-name="kgreenlandic" unicode="&#x138;" horiz-adv-x="541" 
d="M181 264v-264h-88v512h88v-215l221 215h109l-239 -227l263 -285h-109z" />
    <glyph glyph-name="Lacute" unicode="&#x139;" horiz-adv-x="552" 
d="M124 762l64 178h113l-119 -178h-58zM103 0v700h91v-623h310v-77h-401z" />
    <glyph glyph-name="lacute" unicode="&#x13a;" horiz-adv-x="274" 
d="M106 798l64 178h113l-119 -178h-58zM93 762h88v-762h-88v762z" />
    <glyph glyph-name="uni013B" unicode="&#x13b;" horiz-adv-x="552" 
d="M103 0v700h91v-623h310v-77h-401zM348 -37q0 -57 -30 -112t-67 -77h-65q31 32 51 84t20 105h91z" />
    <glyph glyph-name="uni013C" unicode="&#x13c;" horiz-adv-x="274" 
d="M93 762h88v-762h-88v762zM182 -37q0 -57 -30 -112t-67 -77h-65q31 32 51 84t20 105h91z" />
    <glyph glyph-name="Lcaron" unicode="&#x13d;" horiz-adv-x="552" 
d="M354 702h101l-80 -234h-51zM103 0v700h91v-623h310v-77h-401z" />
    <glyph glyph-name="lcaron" unicode="&#x13e;" horiz-adv-x="388" 
d="M93 762h88v-762h-88v762zM303 762h101l-80 -234h-51z" />
    <glyph glyph-name="Ldot" unicode="&#x13f;" horiz-adv-x="552" 
d="M103 0v700h91v-623h310v-77h-401zM352 363q0 27 18 46t46 19t46 -19t18 -46t-18 -45.5t-46 -18.5t-46 18.5t-18 45.5z" />
    <glyph glyph-name="ldot" unicode="&#x140;" horiz-adv-x="404" 
d="M93 762h88v-762h-88v762zM269 392q0 27 18 46t46 19t46 -19t18 -46t-18 -45.5t-46 -18.5t-46 18.5t-18 45.5z" />
    <glyph glyph-name="Lslash" unicode="&#x141;" horiz-adv-x="561" 
d="M112 0v272l-73 -40v79l73 39v350h91v-305l175 94v-79l-175 -94v-239h310v-77h-401z" />
    <glyph glyph-name="lslash" unicode="&#x142;" horiz-adv-x="343" 
d="M125 0v340l-107 -61v71l107 60v352h88v-307l112 62v-70l-112 -62v-385h-88z" />
    <glyph glyph-name="Nacute" unicode="&#x143;" horiz-adv-x="718" 
d="M323 762l64 178h113l-119 -178h-58zM192 551h-4v-551h-85v700h90l332 -542h4v542h85v-700h-79z" />
    <glyph glyph-name="nacute" unicode="&#x144;" horiz-adv-x="576" 
d="M256 583l61 190h115l-122 -190h-54zM181 512v-55q76 66 158 66q74 0 112 -46t38 -127v-350h-88v336q0 56 -22 84t-72 28q-62 0 -126 -48v-400h-88v512h88z" />
    <glyph glyph-name="uni0145" unicode="&#x145;" horiz-adv-x="718" 
d="M192 551h-4v-551h-85v700h90l332 -542h4v542h85v-700h-79zM409 -37q0 -57 -30 -112t-67 -77h-65q31 32 51 84t20 105h91z" />
    <glyph glyph-name="uni0146" unicode="&#x146;" horiz-adv-x="576" 
d="M181 512v-55q76 66 158 66q74 0 112 -46t38 -127v-350h-88v336q0 56 -22 84t-72 28q-62 0 -126 -48v-400h-88v512h88zM336 -37q0 -57 -30 -112t-67 -77h-65q31 32 51 84t20 105h91z" />
    <glyph glyph-name="Ncaron" unicode="&#x147;" horiz-adv-x="718" 
d="M309 762l-99 178h56l92 -117l93 117h55l-98 -178h-99zM192 551h-4v-551h-85v700h90l332 -542h4v542h85v-700h-79z" />
    <glyph glyph-name="ncaron" unicode="&#x148;" horiz-adv-x="576" 
d="M243 583l-104 190h59l93 -129l95 129h58l-104 -190h-97zM181 512v-55q76 66 158 66q74 0 112 -46t38 -127v-350h-88v336q0 56 -22 84t-72 28q-62 0 -126 -48v-400h-88v512h88z" />
    <glyph glyph-name="Eng" unicode="&#x14a;" horiz-adv-x="718" 
d="M423 -215q50 52 77 104t29 119l-337 543h-4v-551h-85v700h90l332 -542h4v542h85v-699q-1 -118 -92 -216h-99z" />
    <glyph glyph-name="eng" unicode="&#x14b;" horiz-adv-x="576" 
d="M297 -215q104 109 104 229v322q0 56 -22 84t-72 28q-62 0 -126 -48v-400h-88v512h88v-55q76 66 158 66q74 0 112 -46t38 -127v-343q0 -121 -92 -222h-100z" />
    <glyph glyph-name="Omacron" unicode="&#x14c;" horiz-adv-x="663" 
d="M177 786v71h309v-71h-309zM614 350q0 -162 -78 -261.5t-204 -99.5t-204.5 100t-78.5 261t78.5 261t204.5 100t204 -99.5t78 -261.5zM521 350q0 125 -50.5 203t-138.5 78t-139 -78t-51 -203t51 -203t139 -78t138.5 78t50.5 203z" />
    <glyph glyph-name="omacron" unicode="&#x14d;" horiz-adv-x="557" 
d="M136 635v71h286v-71h-286zM508 256q0 -117 -65.5 -192t-163.5 -75q-99 0 -164.5 75t-65.5 192t65.5 192t164.5 75q98 0 163.5 -75t65.5 -192zM137 256q0 -86 37.5 -138.5t104.5 -52.5q66 0 103.5 52.5t37.5 138.5t-37.5 139t-103.5 53q-67 0 -104.5 -53t-37.5 -139z" />
    <glyph glyph-name="Obreve" unicode="&#x14e;" horiz-adv-x="663" 
d="M331 762q-71 0 -110 49t-39 129h60q7 -109 89 -109q84 0 89 109h61q0 -80 -39 -129t-111 -49zM614 350q0 -162 -78 -261.5t-204 -99.5t-204.5 100t-78.5 261t78.5 261t204.5 100t204 -99.5t78 -261.5zM521 350q0 125 -50.5 203t-138.5 78t-139 -78t-51 -203t51 -203
t139 -78t138.5 78t50.5 203z" />
    <glyph glyph-name="obreve" unicode="&#x14f;" horiz-adv-x="557" 
d="M279 583q-70 0 -108.5 54t-38.5 136h61q5 -120 86 -120q82 0 87 120h61q0 -82 -38.5 -136t-109.5 -54zM508 256q0 -117 -65.5 -192t-163.5 -75q-99 0 -164.5 75t-65.5 192t65.5 192t164.5 75q98 0 163.5 -75t65.5 -192zM137 256q0 -86 37.5 -138.5t104.5 -52.5
q66 0 103.5 52.5t37.5 138.5t-37.5 139t-103.5 53q-67 0 -104.5 -53t-37.5 -139z" />
    <glyph glyph-name="Ohungarumlaut" unicode="&#x150;" horiz-adv-x="663" 
d="M276 940h103l-118 -178h-49zM449 940h103l-118 -178h-48zM614 350q0 -162 -78 -261.5t-204 -99.5t-204.5 100t-78.5 261t78.5 261t204.5 100t204 -99.5t78 -261.5zM521 350q0 125 -50.5 203t-138.5 78t-139 -78t-51 -203t51 -203t139 -78t138.5 78t50.5 203z" />
    <glyph glyph-name="ohungarumlaut" unicode="&#x151;" horiz-adv-x="557" 
d="M218 773h102l-114 -190h-48zM391 773h102l-114 -190h-48zM508 256q0 -117 -65.5 -192t-163.5 -75q-99 0 -164.5 75t-65.5 192t65.5 192t164.5 75q98 0 163.5 -75t65.5 -192zM137 256q0 -86 37.5 -138.5t104.5 -52.5q66 0 103.5 52.5t37.5 138.5t-37.5 139t-103.5 53
q-67 0 -104.5 -53t-37.5 -139z" />
    <glyph glyph-name="OE" unicode="&#x152;" horiz-adv-x="974" 
d="M382 0q-153 0 -243 94t-90 257t90 256t243 93h505v-77h-317v-224h285v-77h-285v-245h330v-77h-518zM385 623q-118 0 -180.5 -72.5t-62.5 -199.5q0 -128 62.5 -201t180.5 -73h95v546h-95z" />
    <glyph glyph-name="oe" unicode="&#x153;" horiz-adv-x="885" 
d="M823 23q-65 -34 -149 -34q-67 0 -120.5 30t-86.5 81q-69 -111 -188 -111q-99 0 -164.5 75t-65.5 192t65.5 192t164.5 75q57 0 105 -28t80 -78q64 106 183 106q105 0 152.5 -78t34.5 -203h-330q5 -81 53.5 -129t123.5 -48q76 0 142 36v-78zM646 450q-56 0 -93 -39
t-47 -107h244q5 64 -22 105t-82 41zM137 256q0 -86 37.5 -138.5t104.5 -52.5q66 0 104 52.5t38 138.5t-38 139t-104 53q-67 0 -104.5 -53t-37.5 -139z" />
    <glyph glyph-name="Racute" unicode="&#x154;" horiz-adv-x="640" 
d="M278 762l64 178h113l-119 -178h-58zM515 0l-196 286h-126v-286h-90v700h189q122 0 189 -53.5t67 -151.5q0 -67 -40 -115t-102 -72l216 -308h-107zM193 363h153q47 13 78 45.5t31 86.5q0 60 -43 94t-119 34h-100v-260z" />
    <glyph glyph-name="racute" unicode="&#x155;" horiz-adv-x="402" 
d="M198 583l61 190h115l-122 -190h-54zM93 0v512h88v-87q41 50 86.5 76t106.5 16v-93q-112 26 -193 -68v-356h-88z" />
    <glyph glyph-name="uni0156" unicode="&#x156;" horiz-adv-x="640" 
d="M515 0l-196 286h-126v-286h-90v700h189q122 0 189 -53.5t67 -151.5q0 -67 -40 -115t-102 -72l216 -308h-107zM193 363h153q47 13 78 45.5t31 86.5q0 60 -43 94t-119 34h-100v-260zM384 -37q0 -57 -30 -112t-67 -77h-65q31 32 51 84t20 105h91z" />
    <glyph glyph-name="uni0157" unicode="&#x157;" horiz-adv-x="402" 
d="M93 0v512h88v-87q41 50 86.5 76t106.5 16v-93q-112 26 -193 -68v-356h-88zM180 -37q0 -57 -30 -112t-67 -77h-65q31 32 51 84t20 105h91z" />
    <glyph glyph-name="Rcaron" unicode="&#x158;" horiz-adv-x="640" 
d="M263 762l-99 178h56l92 -117l93 117h55l-98 -178h-99zM515 0l-196 286h-126v-286h-90v700h189q122 0 189 -53.5t67 -151.5q0 -67 -40 -115t-102 -72l216 -308h-107zM193 363h153q47 13 78 45.5t31 86.5q0 60 -43 94t-119 34h-100v-260z" />
    <glyph glyph-name="rcaron" unicode="&#x159;" horiz-adv-x="402" 
d="M184 583l-104 190h59l93 -129l95 129h58l-104 -190h-97zM93 0v512h88v-87q41 50 86.5 76t106.5 16v-93q-112 26 -193 -68v-356h-88z" />
    <glyph glyph-name="Sacute" unicode="&#x15a;" horiz-adv-x="550" 
d="M252 762l64 178h113l-119 -178h-58zM37 141q90 -74 208 -74q79 0 122 33t43 89q0 32 -19 56.5t-49 41t-66.5 31.5t-73 31.5t-66.5 37.5t-49 54t-19 75q0 88 67 141.5t161 53.5q96 0 171 -48v-89q-81 60 -168 60q-63 0 -102 -30.5t-39 -82.5q0 -38 35.5 -65t86 -46.5
t100.5 -43t85.5 -67.5t35.5 -106q0 -90 -71 -147t-185 -57q-54 0 -114 16.5t-94 44.5v91z" />
    <glyph glyph-name="sacute" unicode="&#x15b;" horiz-adv-x="450" 
d="M203 583l61 190h115l-122 -190h-54zM43 115q72 -52 163 -52q48 0 80 19t32 55q0 29 -26.5 48.5t-63.5 32.5t-74.5 29t-64 48.5t-26.5 80.5q0 64 50 105.5t127 41.5q69 0 131 -34v-81q-60 42 -127 42q-44 0 -70.5 -19.5t-26.5 -51.5q0 -29 26.5 -48t64 -32t75 -29t64 -48
t26.5 -79q0 -72 -58 -113t-139 -41q-95 0 -163 40v86z" />
    <glyph glyph-name="Scircumflex" unicode="&#x15c;" horiz-adv-x="550" 
d="M333 940l98 -178h-55l-93 117l-92 -117h-56l99 178h99zM37 141q90 -74 208 -74q79 0 122 33t43 89q0 32 -19 56.5t-49 41t-66.5 31.5t-73 31.5t-66.5 37.5t-49 54t-19 75q0 88 67 141.5t161 53.5q96 0 171 -48v-89q-81 60 -168 60q-63 0 -102 -30.5t-39 -82.5
q0 -38 35.5 -65t86 -46.5t100.5 -43t85.5 -67.5t35.5 -106q0 -90 -71 -147t-185 -57q-54 0 -114 16.5t-94 44.5v91z" />
    <glyph glyph-name="scircumflex" unicode="&#x15d;" horiz-adv-x="450" 
d="M286 773l104 -190h-58l-95 129l-93 -129h-59l104 190h97zM43 115q72 -52 163 -52q48 0 80 19t32 55q0 29 -26.5 48.5t-63.5 32.5t-74.5 29t-64 48.5t-26.5 80.5q0 64 50 105.5t127 41.5q69 0 131 -34v-81q-60 42 -127 42q-44 0 -70.5 -19.5t-26.5 -51.5q0 -29 26.5 -48
t64 -32t75 -29t64 -48t26.5 -79q0 -72 -58 -113t-139 -41q-95 0 -163 40v86z" />
    <glyph glyph-name="uni015E" unicode="&#x15e;" horiz-adv-x="550" 
d="M239 -226q-64 0 -100 25v58q48 -28 97 -28q28 0 46.5 11t18.5 31q0 40 -96 40l32 78q-54 2 -111 18.5t-89 42.5v91q90 -74 208 -74q79 0 122 33t43 89q0 32 -19 56.5t-49 41t-66.5 31.5t-73 31.5t-66.5 37.5t-49 54t-19 75q0 88 67 141.5t161 53.5q96 0 171 -48v-89
q-81 60 -168 60q-63 0 -102 -30.5t-39 -82.5q0 -38 35.5 -65t86 -46.5t100.5 -43t85.5 -67.5t35.5 -106q0 -82 -60.5 -137.5t-159.5 -64.5l-15 -39q98 -13 98 -81q0 -45 -36.5 -71t-88.5 -26z" />
    <glyph glyph-name="uni015F" unicode="&#x15f;" horiz-adv-x="450" 
d="M177 -226q-64 0 -100 25v58q48 -28 97 -28q28 0 46.5 11t18.5 31q0 40 -96 40l32 79q-79 8 -132 39v86q72 -52 163 -52q48 0 80 19t32 55q0 29 -26.5 48.5t-63.5 32.5t-74.5 29t-64 48.5t-26.5 80.5q0 64 50 105.5t127 41.5q69 0 131 -34v-81q-60 42 -127 42
q-44 0 -70.5 -19.5t-26.5 -51.5q0 -29 26.5 -48t64 -32t75 -29t64 -48t26.5 -79q0 -69 -54 -110t-131 -44l-14 -37q98 -13 98 -81q0 -45 -36.5 -71t-88.5 -26z" />
    <glyph glyph-name="Scaron" unicode="&#x160;" horiz-adv-x="550" 
d="M234 762l-99 178h56l92 -117l93 117h55l-98 -178h-99zM37 141q90 -74 208 -74q79 0 122 33t43 89q0 32 -19 56.5t-49 41t-66.5 31.5t-73 31.5t-66.5 37.5t-49 54t-19 75q0 88 67 141.5t161 53.5q96 0 171 -48v-89q-81 60 -168 60q-63 0 -102 -30.5t-39 -82.5
q0 -38 35.5 -65t86 -46.5t100.5 -43t85.5 -67.5t35.5 -106q0 -90 -71 -147t-185 -57q-54 0 -114 16.5t-94 44.5v91z" />
    <glyph glyph-name="scaron" unicode="&#x161;" horiz-adv-x="450" 
d="M189 588l-104 190h59l93 -129l95 129h58l-104 -190h-97zM43 115q72 -52 163 -52q48 0 80 19t32 55q0 29 -26.5 48.5t-63.5 32.5t-74.5 29t-64 48.5t-26.5 80.5q0 64 50 105.5t127 41.5q69 0 131 -34v-81q-60 42 -127 42q-44 0 -70.5 -19.5t-26.5 -51.5q0 -29 26.5 -48
t64 -32t75 -29t64 -48t26.5 -79q0 -72 -58 -113t-139 -41q-95 0 -163 40v86z" />
    <glyph glyph-name="uni0162" unicode="&#x162;" horiz-adv-x="598" 
d="M265 -226q-64 0 -100 25v58q48 -28 97 -28q28 0 46.5 11t18.5 31q0 40 -96 40l36 89h-14v623h-220v77h532v-77h-221v-623h-34l-18 -48q98 -13 98 -81q0 -45 -36.5 -71t-88.5 -26z" />
    <glyph glyph-name="uni0163" unicode="&#x163;" horiz-adv-x="425" 
d="M208 -226q-64 0 -100 25v58q48 -28 97 -28q28 0 46.5 11t18.5 31q0 40 -96 40l35 85q-98 28 -98 145v300h-81v71h81v122h88v-122h172v-71h-172v-294q0 -83 80 -83q49 0 107 23v-72q-57 -26 -120 -26q-11 0 -17 1l-14 -38q98 -13 98 -81q0 -45 -36.5 -71t-88.5 -26z" />
    <glyph glyph-name="Tcaron" unicode="&#x164;" horiz-adv-x="598" 
d="M250 762l-99 178h56l92 -117l93 117h55l-98 -178h-99zM33 700h532v-77h-221v-623h-91v623h-220v77z" />
    <glyph glyph-name="tcaron" unicode="&#x165;" horiz-adv-x="425" 
d="M295 817h101l-80 -234h-51zM111 512v122h88v-122h172v-71h-172v-294q0 -83 80 -83q49 0 107 23v-72q-57 -26 -120 -26q-70 0 -112.5 36.5t-42.5 115.5v300h-81v71h81z" />
    <glyph glyph-name="Tbar" unicode="&#x166;" horiz-adv-x="598" 
d="M344 322v-322h-91v322h-110v77h110v224h-220v77h532v-77h-221v-224h110v-77h-110z" />
    <glyph glyph-name="tbar" unicode="&#x167;" horiz-adv-x="435" 
d="M386 15q-57 -26 -120 -26q-70 0 -112.5 36.5t-42.5 115.5v114h-81v68h81v118h-81v71h81v122h88v-122h172v-71h-172v-118h170v-68h-170v-108q0 -83 80 -83q49 0 107 23v-72z" />
    <glyph glyph-name="Utilde" unicode="&#x168;" horiz-adv-x="672" 
d="M408 761q-26 0 -52.5 25t-49 50t-39.5 25q-43 0 -56 -99h-57q2 70 35.5 121t81.5 51q26 0 52.5 -25t49 -49.5t38.5 -24.5q44 0 57 99h57q-3 -71 -36 -122t-81 -51zM336 70q166 0 166 205v425h91v-432q0 -136 -69.5 -207.5t-187.5 -71.5q-117 0 -187 71.5t-70 207.5v432
h91v-425q0 -205 166 -205z" />
    <glyph glyph-name="utilde" unicode="&#x169;" horiz-adv-x="573" 
d="M350 596q-26 0 -52 25t-47.5 49.5t-37.5 24.5q-44 0 -57 -99h-55q2 70 35 121t81 51q26 0 51.5 -25t47.5 -49.5t38 -24.5q44 0 57 99h55q-2 -70 -35 -121t-81 -51zM393 55q-76 -66 -157 -66q-73 0 -111 46.5t-38 126.5v350h88v-331q0 -57 21 -87t71 -30q63 0 126 50v398
h88v-512h-88v55z" />
    <glyph glyph-name="Umacron" unicode="&#x16a;" horiz-adv-x="672" 
d="M182 786v71h309v-71h-309zM336 70q166 0 166 205v425h91v-432q0 -136 -69.5 -207.5t-187.5 -71.5q-117 0 -187 71.5t-70 207.5v432h91v-425q0 -205 166 -205z" />
    <glyph glyph-name="umacron" unicode="&#x16b;" horiz-adv-x="573" 
d="M140 635v71h286v-71h-286zM393 55q-76 -66 -157 -66q-73 0 -111 46.5t-38 126.5v350h88v-331q0 -57 21 -87t71 -30q63 0 126 50v398h88v-512h-88v55z" />
    <glyph glyph-name="Ubreve" unicode="&#x16c;" horiz-adv-x="672" 
d="M336 762q-71 0 -110 49t-39 129h60q7 -109 89 -109q84 0 89 109h61q0 -80 -39 -129t-111 -49zM336 70q166 0 166 205v425h91v-432q0 -136 -69.5 -207.5t-187.5 -71.5q-117 0 -187 71.5t-70 207.5v432h91v-425q0 -205 166 -205z" />
    <glyph glyph-name="ubreve" unicode="&#x16d;" horiz-adv-x="573" 
d="M283 583q-70 0 -108.5 54t-38.5 136h61q5 -120 86 -120q82 0 87 120h61q0 -82 -38.5 -136t-109.5 -54zM393 55q-76 -66 -157 -66q-73 0 -111 46.5t-38 126.5v350h88v-331q0 -57 21 -87t71 -30q63 0 126 50v398h88v-512h-88v55z" />
    <glyph glyph-name="Uring" unicode="&#x16e;" horiz-adv-x="672" 
d="M207 867q0 52 38.5 90t89.5 38q52 0 90.5 -38t38.5 -90q0 -51 -38.5 -89.5t-90.5 -38.5q-51 0 -89.5 38.5t-38.5 89.5zM264 867q0 -30 20.5 -50.5t50.5 -20.5q31 0 51.5 20.5t20.5 50.5t-20.5 51t-51.5 21q-30 0 -50.5 -21t-20.5 -51zM336 70q166 0 166 205v425h91v-432
q0 -136 -69.5 -207.5t-187.5 -71.5q-117 0 -187 71.5t-70 207.5v432h91v-425q0 -205 166 -205z" />
    <glyph glyph-name="uring" unicode="&#x16f;" horiz-adv-x="573" 
d="M284 594q-46 0 -79 32.5t-33 78.5t33 79t79 33t79 -33t33 -79t-33 -78.5t-79 -32.5zM284 765q-25 0 -43 -17.5t-18 -42.5t18 -42.5t43 -17.5t43 17.5t18 42.5t-18.5 42.5t-42.5 17.5zM393 55q-76 -66 -157 -66q-73 0 -111 46.5t-38 126.5v350h88v-331q0 -57 21 -87
t71 -30q63 0 126 50v398h88v-512h-88v55z" />
    <glyph glyph-name="Uhungarumlaut" unicode="&#x170;" horiz-adv-x="672" 
d="M284 940h103l-118 -178h-49zM457 940h103l-118 -178h-48zM336 70q166 0 166 205v425h91v-432q0 -136 -69.5 -207.5t-187.5 -71.5q-117 0 -187 71.5t-70 207.5v432h91v-425q0 -205 166 -205z" />
    <glyph glyph-name="uhungarumlaut" unicode="&#x171;" horiz-adv-x="573" 
d="M221 773h102l-114 -190h-48zM394 773h102l-114 -190h-48zM393 55q-76 -66 -157 -66q-73 0 -111 46.5t-38 126.5v350h88v-331q0 -57 21 -87t71 -30q63 0 126 50v398h88v-512h-88v55z" />
    <glyph glyph-name="Uogonek" unicode="&#x172;" horiz-adv-x="672" 
d="M415 -220q-45 0 -74.5 26t-29.5 64q0 58 59 122q-16 -3 -34 -3q-117 0 -187 71.5t-70 207.5v433h91v-426q0 -205 166 -205t166 205v426h91v-433q0 -167 -116 -244q-47 -31 -73 -68t-26 -70q0 -22 13.5 -34t36.5 -12q36 0 77 22v-57q-36 -25 -90 -25z" />
    <glyph glyph-name="uogonek" unicode="&#x173;" horiz-adv-x="573" 
d="M498 -201q-36 -25 -91 -25q-45 0 -74.5 26t-29.5 64q0 70 90 137v54q-76 -66 -157 -66q-73 0 -111 46.5t-38 126.5v350h88v-331q0 -57 21 -87t71 -30q63 0 126 50v398h88v-512h-19q-92 -67 -92 -123q0 -20 13.5 -31.5t36.5 -11.5q35 0 78 21v-56z" />
    <glyph glyph-name="Wcircumflex" unicode="&#x174;" horiz-adv-x="823" 
d="M462 940l98 -178h-55l-93 117l-92 -117h-56l99 178h99zM449 700l132 -550h4l125 550h88l-168 -700h-84l-132 544h-5l-133 -544h-82l-169 700h91l125 -550h4l132 550h72z" />
    <glyph glyph-name="wcircumflex" unicode="&#x175;" horiz-adv-x="732" 
d="M413 773l104 -190h-58l-95 129l-93 -129h-59l104 190h97zM401 512l111 -394h4l106 394h85l-154 -512h-74l-112 387h-3l-111 -387h-73l-154 512h88l110 -394h3l107 394h67z" />
    <glyph glyph-name="Ycircumflex" unicode="&#x176;" horiz-adv-x="612" 
d="M356 940l98 -178h-55l-93 117l-92 -117h-56l99 178h99zM261 0v296l-239 404h99l189 -323l187 323h94l-239 -404v-296h-91z" />
    <glyph glyph-name="ycircumflex" unicode="&#x177;" horiz-adv-x="524" 
d="M312 773l104 -190h-58l-95 129l-93 -129h-59l104 190h97zM75 -221q-35 0 -57 10v69q24 -7 53 -7q53 0 88.5 38.5t61.5 114.5l-195 508h93l145 -404h4l143 404h87l-196 -518q-44 -114 -96 -164.5t-131 -50.5z" />
    <glyph glyph-name="Ydieresis" unicode="&#x178;" horiz-adv-x="612" 
d="M149 841q0 25 17 42t42 17q26 0 43 -17t17 -42t-17 -42t-43 -17q-25 0 -42 17t-17 42zM345 841q0 25 17 42t42 17t42 -17t17 -42t-17 -42t-42 -17t-42 17t-17 42zM261 0v296l-239 404h99l189 -323l187 323h94l-239 -404v-296h-91z" />
    <glyph glyph-name="Zacute" unicode="&#x179;" horiz-adv-x="590" 
d="M266 762l64 178h113l-119 -178h-58zM546 0h-491v58l363 565h-357v77h468v-62l-363 -561h380v-77z" />
    <glyph glyph-name="zacute" unicode="&#x17a;" horiz-adv-x="491" 
d="M222 583l61 190h115l-122 -190h-54zM445 0h-393v52l267 389h-262v71h371v-52l-268 -389h285v-71z" />
    <glyph glyph-name="Zdotaccent" unicode="&#x17b;" horiz-adv-x="590" 
d="M235 848q0 27 18 46t46 19t46 -19t18 -46t-18 -45t-46 -18t-46 18t-18 45zM546 0h-491v58l363 565h-357v77h468v-62l-363 -561h380v-77z" />
    <glyph glyph-name="zdotaccent" unicode="&#x17c;" horiz-adv-x="491" 
d="M193 677q0 27 18 46t46 19t46 -19t18 -46t-18 -45.5t-46 -18.5t-46 18.5t-18 45.5zM445 0h-393v52l267 389h-262v71h371v-52l-268 -389h285v-71z" />
    <glyph glyph-name="Zcaron" unicode="&#x17d;" horiz-adv-x="590" 
d="M249 762l-99 178h56l92 -117l93 117h55l-98 -178h-99zM546 0h-491v58l363 565h-357v77h468v-62l-363 -561h380v-77z" />
    <glyph glyph-name="zcaron" unicode="&#x17e;" horiz-adv-x="491" 
d="M208 583l-104 190h59l93 -129l95 129h58l-104 -190h-97zM445 0h-393v52l267 389h-262v71h371v-52l-268 -389h285v-71z" />
    <glyph glyph-name="uni0192" unicode="&#x192;" 
d="M105 320l16 70h120l6 34q23 118 81 181.5t147 63.5q39 0 71 -12v-72q-29 8 -66 8q-115 0 -147 -172l-6 -31h138l-15 -70h-345zM296 229l-24 -117q-22 -119 -78.5 -181.5t-146.5 -62.5q-40 0 -70 13v71q27 -8 65 -8q112 0 143 171l22 114h89z" />
    <glyph glyph-name="AEacute" unicode="&#x1fc;" horiz-adv-x="983" 
d="M601 762l64 178h113l-119 -178h-58zM488 224h-243l-130 -224h-93l405 700h469v-77h-317v-224h285v-77h-285v-245h330v-77h-421v224zM488 643l-200 -344h200v344z" />
    <glyph glyph-name="aeacute" unicode="&#x1fd;" horiz-adv-x="807" 
d="M372 583l61 190h115l-122 -190h-54zM595 -11q-130 0 -201 100q-35 -42 -85 -71t-106 -29q-67 0 -109 39.5t-42 104.5q0 79 73.5 125t219.5 46v36q0 106 -104 106q-75 0 -162 -49v75q31 22 79.5 36.5t88.5 14.5q120 0 154 -96q63 96 167 96q105 0 152.5 -78t35.5 -203
h-331q5 -81 53.5 -129t123.5 -48t142 36v-78q-65 -34 -149 -34zM566 450q-55 0 -92 -39t-47 -107h245q5 64 -22.5 105t-83.5 41zM218 58q83 0 147 86q-18 43 -21 98q-206 0 -206 -104q0 -37 22 -58.5t58 -21.5z" />
    <glyph glyph-name="Oslashacute" unicode="&#x1fe;" horiz-adv-x="663" 
d="M298 762l64 178h113l-119 -178h-58zM332 -11q-87 0 -155 51l-52 -86h-70l78 128q-84 101 -84 268q0 161 78.5 261t204.5 100q86 0 153 -50l52 86h72l-79 -129q84 -100 84 -268q0 -162 -78 -261.5t-204 -99.5zM141 350q0 -114 41 -187l260 427q-46 43 -110 43
q-89 0 -140 -78t-51 -205zM332 67q88 0 139 78t51 205q0 114 -41 188l-260 -427q47 -44 111 -44z" />
    <glyph glyph-name="oslashacute" unicode="&#x1ff;" horiz-adv-x="557" 
d="M247 583l61 190h115l-122 -190h-54zM279 -11q-62 0 -113 31l-41 -66h-65l63 101q-74 76 -74 201q0 117 65.5 192t164.5 75q62 0 115 -33l41 66h67l-64 -103q70 -77 70 -197q0 -117 -65.5 -192t-163.5 -75zM135 256q0 -80 31 -131l189 303q-34 24 -76 24q-68 0 -106 -54
t-38 -142zM279 60q67 0 105 54t38 142q0 76 -28 127l-189 -301q33 -22 74 -22z" />
    <glyph glyph-name="uni0218" unicode="&#x218;" horiz-adv-x="550" 
d="M37 141q90 -74 208 -74q79 0 122 33t43 89q0 32 -19 56.5t-49 41t-66.5 31.5t-73 31.5t-66.5 37.5t-49 54t-19 75q0 88 67 141.5t161 53.5q96 0 171 -48v-89q-81 60 -168 60q-63 0 -102 -30.5t-39 -82.5q0 -38 35.5 -65t86 -46.5t100.5 -43t85.5 -67.5t35.5 -106
q0 -90 -71 -147t-185 -57q-54 0 -114 16.5t-94 44.5v91zM308 -37q0 -57 -30 -112t-67 -77h-65q31 32 51 84t20 105h91z" />
    <glyph glyph-name="uni0219" unicode="&#x219;" horiz-adv-x="450" 
d="M43 115q72 -52 163 -52q48 0 80 19t32 55q0 29 -26.5 48.5t-63.5 32.5t-74.5 29t-64 48.5t-26.5 80.5q0 64 50 105.5t127 41.5q69 0 131 -34v-81q-60 42 -127 42q-44 0 -70.5 -19.5t-26.5 -51.5q0 -29 26.5 -48t64 -32t75 -29t64 -48t26.5 -79q0 -72 -58 -113t-139 -41
q-95 0 -163 40v86zM265 -37q0 -57 -30 -112t-67 -77h-65q31 32 51 84t20 105h91z" />
    <glyph glyph-name="uni021A" unicode="&#x21a;" horiz-adv-x="599" 
d="M33 700h532v-77h-221v-623h-91v623h-220v77zM344 -37q0 -57 -30 -112t-67 -77h-65q31 32 51 84t20 105h91z" />
    <glyph glyph-name="uni021B" unicode="&#x21b;" horiz-adv-x="425" 
d="M111 512v122h88v-122h172v-71h-172v-294q0 -83 80 -83q49 0 107 23v-72q-57 -26 -120 -26q-70 0 -112.5 36.5t-42.5 115.5v300h-81v71h81zM300 -37q0 -57 -30 -112t-67 -77h-65q31 32 51 84t20 105h91z" />
    <glyph glyph-name="uni0237" unicode="&#x237;" horiz-adv-x="274" 
d="M93 512h88v-505q0 -121 -92 -222h-100q104 109 104 229v498z" />
    <glyph glyph-name="circumflex" unicode="&#x2c6;" horiz-adv-x="547" 
d="M322 773l104 -190h-58l-95 129l-93 -129h-59l104 190h97z" />
    <glyph glyph-name="caron" unicode="&#x2c7;" horiz-adv-x="547" 
d="M225 583l-104 190h59l93 -129l95 129h58l-104 -190h-97z" />
    <glyph glyph-name="breve" unicode="&#x2d8;" horiz-adv-x="547" 
d="M273 583q-70 0 -108.5 54t-38.5 136h61q5 -120 86 -120q82 0 87 120h61q0 -82 -38.5 -136t-109.5 -54z" />
    <glyph glyph-name="dotaccent" unicode="&#x2d9;" horiz-adv-x="547" 
d="M209 677q0 27 18 46t46 19t46 -19t18 -46t-18 -45.5t-46 -18.5t-46 18.5t-18 45.5z" />
    <glyph glyph-name="ring" unicode="&#x2da;" horiz-adv-x="547" 
d="M254 594q-46 0 -79 32.5t-33 78.5t33 79t79 33t79 -33t33 -79t-33 -78.5t-79 -32.5zM254 765q-25 0 -43 -17.5t-18 -42.5t18 -42.5t43 -17.5t43 17.5t18 42.5t-18.5 42.5t-42.5 17.5z" />
    <glyph glyph-name="ogonek" unicode="&#x2db;" horiz-adv-x="547" 
d="M402 1q-93 -67 -93 -124q0 -20 13.5 -31.5t36.5 -11.5q35 0 78 21v-56q-36 -25 -91 -25q-45 0 -74.5 26t-29.5 64q0 85 136 168z" />
    <glyph glyph-name="tilde" unicode="&#x2dc;" horiz-adv-x="547" 
d="M340 596q-26 0 -52 25t-47.5 49.5t-37.5 24.5q-44 0 -57 -99h-55q2 70 35 121t81 51q26 0 51.5 -25t47.5 -49.5t38 -24.5q44 0 57 99h55q-2 -70 -35 -121t-81 -51z" />
    <glyph glyph-name="hungarumlaut" unicode="&#x2dd;" horiz-adv-x="547" 
d="M164 773h102l-114 -190h-48zM337 773h102l-114 -190h-48z" />
    <glyph glyph-name="uni0E3F" unicode="&#xe3f;" 
d="M324 51v-174h-76v174h-166v558h166v153h76v-153q182 -9 182 -140q0 -48 -33.5 -80t-80.5 -40q70 -9 112 -44.5t42 -95.5q0 -75 -54.5 -116.5t-157.5 -41.5h-10zM167 372h113q71 0 104 21t33 65q0 46 -32 64t-105 18h-113v-168zM455 213q0 95 -133 95h-155v-187h155
q133 0 133 92z" />
    <glyph glyph-name="uni17DB" unicode="&#x17db;" 
d="M348 -132q-115 0 -184.5 38t-69.5 102q0 48 34.5 78t89.5 30q26 0 47 -8v-51q-16 4 -35 4q-29 0 -46.5 -13t-17.5 -37q0 -38 44 -58t97 -22v343h-163v63h163v7q0 57 -40 86t-118 39q0 84 64 142t159 58q83 0 149 -36v-71q-73 34 -148 34q-57 0 -94.5 -23.5t-45.5 -61.5
q72 -9 114.5 -52.5t42.5 -109.5v-12h135v-63h-135v-406h-42z" />
    <glyph glyph-name="Wgrave" unicode="&#x1e80;" horiz-adv-x="823" 
d="M376 762l-118 178h112l65 -178h-59zM449 700l132 -550h4l125 550h88l-168 -700h-84l-132 544h-5l-133 -544h-82l-169 700h91l125 -550h4l132 550h72z" />
    <glyph glyph-name="wgrave" unicode="&#x1e81;" horiz-adv-x="732" 
d="M341 583l-122 190h115l60 -190h-53zM401 512l111 -394h4l106 394h85l-154 -512h-74l-112 387h-3l-111 -387h-73l-154 512h88l110 -394h3l107 394h67z" />
    <glyph glyph-name="Wacute" unicode="&#x1e82;" horiz-adv-x="823" 
d="M389 762l64 178h113l-119 -178h-58zM449 700l132 -550h4l125 550h88l-168 -700h-84l-132 544h-5l-133 -544h-82l-169 700h91l125 -550h4l132 550h72z" />
    <glyph glyph-name="wacute" unicode="&#x1e83;" horiz-adv-x="732" 
d="M343 583l61 190h115l-122 -190h-54zM401 512l111 -394h4l106 394h85l-154 -512h-74l-112 387h-3l-111 -387h-73l-154 512h88l110 -394h3l107 394h67z" />
    <glyph glyph-name="Wdieresis" unicode="&#x1e84;" horiz-adv-x="823" 
d="M254 841q0 25 17 42t42 17q26 0 43 -17t17 -42t-17 -42t-43 -17q-25 0 -42 17t-17 42zM450 841q0 25 17 42t42 17t42 -17t17 -42t-17 -42t-42 -17t-42 17t-17 42zM449 700l132 -550h4l125 550h88l-168 -700h-84l-132 544h-5l-133 -544h-82l-169 700h91l125 -550h4
l132 550h72z" />
    <glyph glyph-name="wdieresis" unicode="&#x1e85;" horiz-adv-x="732" 
d="M212 672q0 25 17 42.5t42 17.5t42 -17.5t17 -42.5t-17 -42t-42 -17t-42 17t-17 42zM401 672q0 25 17 42.5t42 17.5t42 -17.5t17 -42.5t-17 -42t-42 -17t-42 17t-17 42zM401 512l111 -394h4l106 394h85l-154 -512h-74l-112 387h-3l-111 -387h-73l-154 512h88l110 -394h3
l107 394h67z" />
    <glyph glyph-name="Ygrave" unicode="&#x1ef2;" horiz-adv-x="612" 
d="M286 762l-118 178h112l65 -178h-59zM261 0v296l-239 404h99l189 -323l187 323h94l-239 -404v-296h-91z" />
    <glyph glyph-name="ygrave" unicode="&#x1ef3;" horiz-adv-x="524" 
d="M254 583l-122 190h115l60 -190h-53zM75 -221q-35 0 -57 10v69q24 -7 53 -7q53 0 88.5 38.5t61.5 114.5l-195 508h93l145 -404h4l143 404h87l-196 -518q-44 -114 -96 -164.5t-131 -50.5z" />
    <glyph glyph-name="endash" unicode="&#x2013;" horiz-adv-x="770" 
d="M102 314h566v-69h-566v69z" />
    <glyph glyph-name="emdash" unicode="&#x2014;" horiz-adv-x="1052" 
d="M102 314h848v-69h-848v69z" />
    <glyph glyph-name="quoteleft" unicode="&#x2018;" horiz-adv-x="245" 
d="M67 491q0 164 92 271h63q-34 -54 -45.5 -116.5t-11.5 -154.5h-98z" />
    <glyph glyph-name="quoteright" unicode="&#x2019;" horiz-adv-x="245" 
d="M177 762q0 -165 -91 -271h-63q33 54 45 117.5t12 153.5h97z" />
    <glyph glyph-name="quotesinglbase" unicode="&#x201a;" horiz-adv-x="245" 
d="M177 129q0 -165 -91 -271h-63q33 55 45 118.5t12 152.5h97z" />
    <glyph glyph-name="quotedblleft" unicode="&#x201c;" horiz-adv-x="425" 
d="M67 491q0 164 92 271h63q-34 -54 -45.5 -116.5t-11.5 -154.5h-98zM248 491q0 164 92 271h63q-34 -54 -45.5 -116.5t-11.5 -154.5h-98z" />
    <glyph glyph-name="quotedblright" unicode="&#x201d;" horiz-adv-x="245" 
d="M177 762q0 -165 -91 -271h-63q33 54 45 117.5t12 153.5h97zM358 762q0 -165 -91 -271h-63q33 54 45 117.5t12 153.5h97z" />
    <glyph glyph-name="quotedblbase" unicode="&#x201e;" horiz-adv-x="425" 
d="M177 129q0 -165 -91 -271h-63q33 55 45 118.5t12 152.5h97zM358 129q0 -165 -91 -271h-63q33 55 45 118.5t12 152.5h97z" />
    <glyph glyph-name="dagger" unicode="&#x2020;" horiz-adv-x="399" 
d="M235 319h-74v166l18 94l-92 -18h-41v75h40l94 -19l-19 95v50h74v-51l-19 -95l98 20h40v-75h-41l-97 19l19 -94v-167z" />
    <glyph glyph-name="daggerdbl" unicode="&#x2021;" horiz-adv-x="399" 
d="M161 319v49l17 68l-92 -18h-40v74h41l87 -18v132l-87 -18h-41v75h40l92 -19l-17 69v49h74v-50l-18 -68l97 19h40v-75h-41l-91 18v-132l91 18h41v-74h-40l-97 19l18 -68v-50h-74z" />
    <glyph glyph-name="bullet" unicode="&#x2022;" horiz-adv-x="501" 
d="M250 131q-61 0 -104.5 44t-43.5 105t43.5 104.5t104.5 43.5q62 0 105.5 -43.5t43.5 -104.5t-44 -105t-105 -44z" />
    <glyph glyph-name="ellipsis" unicode="&#x2026;" horiz-adv-x="793" 
d="M83 69q0 30 22 53t52 23t52 -23t22 -53t-22 -52.5t-52 -22.5t-52 22.5t-22 52.5zM323 69q0 30 22 53t52 23t52 -23t22 -53t-22 -52.5t-52 -22.5t-52 22.5t-22 52.5zM564 69q0 30 22 53t52 23t52 -23t22 -53t-22 -52.5t-52 -22.5t-52 22.5t-22 52.5z" />
    <glyph glyph-name="guilsinglleft" unicode="&#x2039;" horiz-adv-x="339" 
d="M293 52h-72l-175 202l175 202h72l-136 -202z" />
    <glyph glyph-name="guilsinglright" unicode="&#x203a;" horiz-adv-x="339" 
d="M181 254l-135 202h72l175 -202l-175 -202h-72z" />
    <glyph glyph-name="colonmonetary" unicode="&#x20a1;" 
d="M325 81q-43 3 -75 13l-45 -171h-61l51 194q-58 31 -90.5 84t-32.5 119q0 94 63.5 158.5t166.5 78.5l44 168h61l-44 -166q35 -1 75 -15l47 181h61l-71 -271q-65 28 -122 28q-84 0 -138 -43.5t-54 -118.5t54 -118.5t138 -43.5q67 0 139 34v-79q-41 -21 -107 -30l-42 -160
h-60z" />
    <glyph glyph-name="uni20A9" unicode="&#x20a9;" 
d="M151 0l-28 216h-118v59h110l-11 88h-99v59h91l-30 236h80l53 -525h6l57 367h68l56 -367h7l53 525h77l-30 -236h91v-59h-99l-11 -88h110v-59h-117l-28 -216h-81l-61 385h-5l-60 -385h-81z" />
    <glyph glyph-name="uni20AA" unicode="&#x20aa;" 
d="M46 658v-658h68v596h95q75 0 103 -29.5t28 -107.5v-297h66v304q0 102 -45 147t-149 45h-166zM358 0q104 0 150 45.5t46 146.5v466h-68v-459q0 -78 -28 -107.5t-103 -29.5h-95v417h-66v-479h164z" />
    <glyph glyph-name="uni20AB" unicode="&#x20ab;" 
d="M403 184q-64 -64 -151 -64q-74 0 -125.5 44t-51.5 116q0 80 58.5 125.5t141.5 45.5q75 0 128 -35v113h-221v61h221v68h77v-68h92v-61h-92v-401h-77v56zM403 357q-42 31 -117 31q-57 0 -93 -26t-36 -82q0 -47 33.5 -72.5t83.5 -25.5q67 0 129 57v118zM95 59h390v-59h-390
v59z" />
    <glyph glyph-name="Euro" unicode="&#x20ac;" 
d="M39 379v62h85q30 109 112.5 168.5t197.5 59.5q59 0 118 -22v-76q-62 23 -116 23q-83 0 -140 -39.5t-82 -113.5h232l-23 -62h-384zM552 11q-55 -22 -118 -22q-119 0 -203 63.5t-111 179.5h-81v61h366l-22 -61h-174q23 -82 81.5 -125t145.5 -43q58 0 116 23v-76z" />
    <glyph glyph-name="uni20AD" unicode="&#x20ad;" 
d="M113 0v306h-95v77h95v275h84v-658h-84zM342 306l229 -306h-102l-245 343l223 315h98l-207 -275h198v-77h-194z" />
    <glyph glyph-name="uni20AE" unicode="&#x20ae;" 
d="M98 351l153 51v184h-209v72h505v-72h-210v-156l154 51v-64l-393 -130v64zM251 0v188l-153 -51v64l393 130v-64l-154 -51v-216h-86z" />
    <glyph glyph-name="uni20B1" unicode="&#x20b1;" 
d="M217 0h-81v321h-122v63h122v89h-120v63h120v122h122q139 0 182 -122h135v-63h-120q2 -28 2 -43q0 -24 -3 -46h121v-63h-136q-43 -119 -181 -119h-41v-202zM378 430q0 155 -121 155h-40v-310h40q121 0 121 155z" />
    <glyph glyph-name="uni20B4" unicode="&#x20b4;" 
d="M38 372v62h338q24 30 24 69q0 93 -116 93q-92 0 -166 -50v78q72 45 171 45q88 0 139.5 -40.5t51.5 -119.5q0 -41 -23 -75h96v-62h-515zM503 45q-31 -26 -84 -41t-100 -15q-93 0 -147 46t-54 122q0 34 16 68h-96v61h515v-61h-340q-15 -28 -15 -62q0 -47 31.5 -74t94.5 -27
q106 0 179 61v-78z" />
    <glyph glyph-name="uni20B8" unicode="&#x20b8;" 
d="M42 658h505v-72h-505v72zM42 504h505v-72h-207v-432h-92v432h-206v72z" />
    <glyph glyph-name="uni20B9" unicode="&#x20b9;" 
d="M515 0h-105l-214 251h-154l24 64h161q98 26 116 108h-301l24 63h278q-10 51 -56.5 79.5t-118.5 28.5h-126l24 64h485l-24 -64h-175q64 -39 74 -108h125l-24 -63h-102q-9 -55 -45.5 -94t-90.5 -59z" />
    <glyph glyph-name="trademark" unicode="&#x2122;" horiz-adv-x="790" 
d="M53 701h264v-59h-98v-285h-68v285h-98v59zM520 428l-57 199h-5l-18 -270h-67l29 344h89l52 -184h6l52 184h86l28 -344h-66l-18 270h-6l-57 -199h-48z" />
    <glyph glyph-name="minus" unicode="&#x2212;" 
d="M40 366h508v-72h-508v72z" />
    <glyph glyph-name="uni00200326" horiz-adv-x="455" 
d="M291 -37q0 -57 -30 -112t-67 -77h-65q31 32 51 84t20 105h91z" />
    <glyph glyph-name="uni00200326.alt" horiz-adv-x="455" 
d="M143 584q0 56 30 111t68 78h64q-30 -32 -50 -84t-20 -105h-92z" />
    <glyph glyph-name="i.dot" horiz-adv-x="274" 
d="M73 677q0 27 18 46t46 19t46 -19t18 -46t-18 -45.5t-46 -18.5t-46 18.5t-18 45.5zM93 512h88v-512h-88v512z" />
    <glyph glyph-name="f_f.short" horiz-adv-x="658" 
d="M115 0v441h-75v71h75v13q0 107 53.5 169.5t140.5 62.5q32 0 64 -10v-71q-27 7 -54 7q-116 0 -116 -158v-13h212v28q0 108 52 170.5t139 62.5q29 0 47 -6v-73q-15 4 -37 4q-59 0 -86 -38.5t-27 -119.5v-28h142v-71h-142v-441h-88v441h-212v-441h-88z" />
    <glyph glyph-name="f.short" horiz-adv-x="358" 
d="M115 0v441h-75v71h75v28q0 108 52 170.5t139 62.5q29 0 47 -6v-73q-15 4 -37 4q-59 0 -86 -38.5t-27 -119.5v-28h142v-71h-142v-441h-88z" />
    </font>
</defs>
</svg>
