<svg xmlns="http://www.w3.org/2000/svg" width="87" height="87" viewBox="0 0 87 87">
  <g id="Group_217" data-name="Group 217" transform="translate(-2898 -2114)">
    <g id="Ellipse_2" data-name="Ellipse 2" transform="translate(2898 2114)" fill="none" stroke="#21409a" stroke-width="2">
      <circle cx="43.5" cy="43.5" r="43.5" stroke="none"/>
      <circle cx="43.5" cy="43.5" r="42.5" fill="none"/>
    </g>
    <g id="businessman-paper-of-the-application-for-a-job" transform="translate(2919.408 2131.835)">
      <path id="Path_34" data-name="Path 34" d="M34.679,44.265a.931.931,0,0,1,.932-.933h3.205A11.827,11.827,0,0,0,43.3,45.156a.872.872,0,0,1-.2.04H35.61A.929.929,0,0,1,34.679,44.265ZM32.4,36.8h1.661a11.6,11.6,0,0,1-.379-1.865H32.4a.933.933,0,1,0,0,1.865ZM25.538,13.25a4.663,4.663,0,0,1-1.932-3.661,3.5,3.5,0,1,1,7,0,4.661,4.661,0,0,1-1.935,3.661c2.742.7,4.773,3.078,4.773,4.841,0,2.085-12.672,2.085-12.672,0C20.768,16.327,22.8,13.946,25.538,13.25Zm-.211,4.631L27.1,19.654l1.778-1.774-1.5-3.614H27.4l.581-.664a2.627,2.627,0,0,1-.878.16,2.577,2.577,0,0,1-.878-.163l.58.667h.015ZM48.746,48.8l0,0-.045-.078c-.023,0-.043.006-.064.006H16.16a3.048,3.048,0,0,1-3.045-3.044V5.073A3.048,3.048,0,0,1,16.16,2.03H48.64a3.048,3.048,0,0,1,3.044,3.044V23.657a11.752,11.752,0,0,1,2.031,1.594V5.073A5.079,5.079,0,0,0,48.64,0H16.16a5.079,5.079,0,0,0-5.076,5.073v40.6a5.079,5.079,0,0,0,5.076,5.072H48.64a5.041,5.041,0,0,0,1.151-.144ZM21.7,32.554H33.659a11.982,11.982,0,0,1,.317-1.866H21.7a.933.933,0,0,0,0,1.866Zm0-8.5h16.76A11.55,11.55,0,0,1,42.4,22.187H21.7a.933.933,0,0,0,0,1.867Zm0,4.249H34.856a11.777,11.777,0,0,1,1.156-1.865H21.7a.933.933,0,0,0,0,1.865Zm31.859.567a9.432,9.432,0,1,1-12.889-3.453A9.439,9.439,0,0,1,53.558,28.871Zm-1.351.782a7.87,7.87,0,1,0-2.882,10.753A7.887,7.887,0,0,0,52.207,29.652Zm.268,11.521-4.055,2.342,3.123,5.4L55.6,46.582Zm3.544,6.144-4.058,2.341a2.342,2.342,0,1,0,4.058-2.341Z" transform="translate(-11.084)" fill="#21409a"/>
    </g>
  </g>
</svg>
