<svg xmlns="http://www.w3.org/2000/svg" width="87" height="87" viewBox="0 0 87 87">
  <g id="Group_219" data-name="Group 219" transform="translate(-376 -1141)">
    <g id="Ellipse_7" data-name="Ellipse 7" transform="translate(376 1141)" fill="none" stroke="#21409a" stroke-width="2">
      <circle cx="43.5" cy="43.5" r="43.5" stroke="none"/>
      <circle cx="43.5" cy="43.5" r="42.5" fill="none"/>
    </g>
    <path id="Path_512" data-name="Path 512" d="M126.855,30V18a11.11,11.11,0,0,0-9.8-11.056l2.857-5.7A.857.857,0,0,0,119.141,0H103.714a.857.857,0,0,0-.767,1.24l2.853,5.7A11.153,11.153,0,0,0,96,18V33.426h1.714V18a9.439,9.439,0,0,1,9.428-9.428h8.571A9.415,9.415,0,0,1,125.141,18V30ZM115.183,6.856h-7.511L105.1,1.714h12.654Zm0,0" transform="translate(308.285 1159)" fill="#21409a"/>
    <path id="Path_513" data-name="Path 513" d="M164.843,100.556a5.939,5.939,0,0,1,1.5-.615l-.429-1.659a7.734,7.734,0,0,0-1.929.791Zm0,0" transform="translate(247.584 1071.248)" fill="#21409a"/>
    <path id="Path_514" data-name="Path 514" d="M128,125.327h1.714V121.9a5.954,5.954,0,0,1,1.822-4.3l-1.194-1.229A7.653,7.653,0,0,0,128,121.9Zm0,0" transform="translate(279.714 1055.1)" fill="#21409a"/>
    <path id="Path_515" data-name="Path 515" d="M2.444,302.781,17,310.717a11.139,11.139,0,0,0,5.34,1.365H50.567a.857.857,0,0,0,.857-.857V295.8a.857.857,0,0,0-.857-.857H44.008l-.1-.076a13.567,13.567,0,0,0-3.3-1.9,13.9,13.9,0,0,0-12.678,1.119h-6.5a4.285,4.285,0,0,0-4.089,5.571l-10.6-5.309a4.585,4.585,0,0,0-4.855.465A4.713,4.713,0,0,0,0,298.575v.094A4.671,4.671,0,0,0,2.444,302.781Zm42.124-6.126H49.71v13.713H44.568Zm-42.854,1.92a3.028,3.028,0,0,1,1.242-2.426,2.868,2.868,0,0,1,3.019-.271l13.354,6.685a.849.849,0,0,0,.383.091H32.569V300.94H21.427a2.571,2.571,0,0,1,0-5.142h6.754a.866.866,0,0,0,.472-.141,12.186,12.186,0,0,1,11.313-1.1,11.9,11.9,0,0,1,2.888,1.659v14.155H22.335a9.425,9.425,0,0,1-4.518-1.155L3.262,301.276a2.959,2.959,0,0,1-1.548-2.606Zm0,0" transform="translate(394 898.342)" fill="#21409a"/>
    <path id="Path_516" data-name="Path 516" d="M432,424h1.714v1.714H432Zm0,0" transform="translate(8.283 780.425)" fill="#21409a"/>
    <path id="Path_517" data-name="Path 517" d="M198,151.427v-1.714h.857a3.428,3.428,0,1,0,0-6.857h-3.428a1.714,1.714,0,0,1,0-3.428h6v-1.714H198V136h-1.714v1.714h-.857a3.428,3.428,0,0,0,0,6.857h3.428a1.714,1.714,0,1,1,0,3.428h-6v1.714h3.428v1.714Zm0,0" transform="translate(222.57 1037.57)" fill="#21409a"/>
  </g>
</svg>
