<svg id="credit-card_1_" data-name="credit-card (1)" xmlns="http://www.w3.org/2000/svg" xmlns:xlink="http://www.w3.org/1999/xlink" width="54.188" height="51.931" viewBox="0 0 54.188 51.931">
  <defs>
    <linearGradient id="linear-gradient" x1="0.5" x2="0.5" y2="1" gradientUnits="objectBoundingBox">
      <stop offset="0" stop-color="#1d3e9f"/>
      <stop offset="1" stop-color="#244ec9"/>
    </linearGradient>
  </defs>
  <path id="Path_638" data-name="Path 638" d="M49.673,8H4.516A4.521,4.521,0,0,0,0,12.516V41.868a4.521,4.521,0,0,0,4.516,4.516H24.836V35.094a4.521,4.521,0,0,1,4.516-4.516c1.6-.008,6.393-.342,9.27-1.781a4.516,4.516,0,0,1,4.039,0c2.879,1.439,7.673,1.774,9.278,1.781a4.479,4.479,0,0,1,2.25.611V12.516A4.521,4.521,0,0,0,49.673,8ZM15.8,32.836H2.258V28.321H15.8ZM51.93,23.8H2.258V17.031H51.93Z" transform="translate(0 -8)" fill="url(#linear-gradient)"/>
  <path id="Path_639" data-name="Path 639" d="M120.838,90.258c-.063,0-6.308-.033-10.281-2.019a2.258,2.258,0,0,0-2.02,0c-3.973,1.986-10.218,2.019-10.279,2.019A2.258,2.258,0,0,0,96,92.516v13.547a2.258,2.258,0,0,0,.847,1.763l11.289,9.031a2.258,2.258,0,0,0,2.822,0l11.289-9.031a2.258,2.258,0,0,0,.847-1.763V92.516A2.259,2.259,0,0,0,120.838,90.258Zm-11.291,24.836V101.547H98.258V92.516c.282,0,6.855-.041,11.289-2.258v11.289h11.289v4.516Z" transform="translate(-68.906 -65.422)" fill="url(#linear-gradient)"/>
</svg>
