<svg xmlns="http://www.w3.org/2000/svg" width="87" height="87" viewBox="0 0 87 87">
  <g id="Group_218" data-name="Group 218" transform="translate(-785 -1159)">
    <g id="Group_217" data-name="Group 217">
      <g id="Ellipse_6" data-name="Ellipse 6" transform="translate(785 1159)" fill="none" stroke="#21409a" stroke-width="2">
        <circle cx="43.5" cy="43.5" r="43.5" stroke="none"/>
        <circle cx="43.5" cy="43.5" r="42.5" fill="none"/>
      </g>
      <path id="Path_518" data-name="Path 518" d="M67.006,33.3a.808.808,0,0,0-.044-.22c-.009-.027-.016-.054-.028-.08a.855.855,0,0,0-.171-.251l-5.131-5.131a.856.856,0,0,0-.251-.171c-.026-.011-.051-.018-.077-.027a.85.85,0,0,0-.225-.044c-.018,0-.033-.01-.051-.01H54.189V12.828H59.32a.855.855,0,0,0,.5-1.549L44.427.162a.855.855,0,0,0-1,0L28.032,11.279a.855.855,0,0,0,.5,1.549h5.131V27.494a12.148,12.148,0,0,0-1.71-.127,11.973,11.973,0,1,0,7.4,21.38h9.7v1.71a.855.855,0,0,0,.855.855H66.162a.855.855,0,0,0,.855-.855v-17.1C67.017,33.335,67.008,33.318,67.006,33.3Zm-5.12-3.013L64.1,32.5H61.886ZM31.953,29.077a10.215,10.215,0,0,1,9.51,6.394l-9.088,2.842-4.48-8.4A10.283,10.283,0,0,1,31.953,29.077Zm10.018,8.028a10.288,10.288,0,0,1,.245,2.235,10.1,10.1,0,0,1-.74,3.806l-7.243-3.622,1.161-.363Zm-15.352,11a10.255,10.255,0,0,1-4.928-8.766h0a10.249,10.249,0,0,1,4.7-8.62L31.2,39.743l.006.009c.014.025.033.044.049.068a.912.912,0,0,0,.095.124l.011.012a.628.628,0,0,0,.06.044.829.829,0,0,0,.127.086c.009,0,.015.012.024.017L40.71,44.67A10.256,10.256,0,0,1,26.619,48.106ZM49.058,28.222V47.037H41.11a12.113,12.113,0,0,0,1.539-2.344,11.943,11.943,0,0,0-7.275-16.825v-15.9a.855.855,0,0,0-.855-.855H31.178L43.926,1.91l12.749,9.208H53.334a.855.855,0,0,0-.855.855V27.367H49.913A.855.855,0,0,0,49.058,28.222ZM65.307,49.6H50.768V29.077h9.407v4.276a.855.855,0,0,0,.855.855h4.276Z" transform="translate(785.025 1177)" fill="#21409a"/>
      <rect id="Rectangle_80" data-name="Rectangle 80" width="5.987" height="1.71" transform="translate(837.504 1207.788)" fill="#21409a"/>
      <rect id="Rectangle_81" data-name="Rectangle 81" width="5.987" height="1.71" transform="translate(837.504 1211.209)" fill="#21409a"/>
      <path id="Path_519" data-name="Path 519" d="M334.66,328.069h0a.855.855,0,0,0-1.123.449l-2.224,5.19-3.537-1.573a.855.855,0,0,0-1.121.418l-2.509,5.345a.855.855,0,0,0,.41,1.137.846.846,0,0,0,.359.081.855.855,0,0,0,.774-.492l2.156-4.586,3.565,1.584a.855.855,0,0,0,1.129-.435l0-.01,2.566-5.986A.855.855,0,0,0,334.66,328.069Z" transform="translate(513.443 884.065)" fill="#21409a"/>
      <rect id="Rectangle_82" data-name="Rectangle 82" width="5.131" height="1.71" transform="translate(843.49 1223.182)" fill="#21409a"/>
      <rect id="Rectangle_83" data-name="Rectangle 83" width="5.987" height="1.71" transform="translate(805.006 1191.539)" fill="#21409a"/>
      <rect id="Rectangle_84" data-name="Rectangle 84" width="5.987" height="1.71" transform="translate(805.006 1194.959)" fill="#21409a"/>
      <rect id="Rectangle_85" data-name="Rectangle 85" width="5.987" height="1.71" transform="translate(805.006 1198.38)" fill="#21409a"/>
      <rect id="Rectangle_86" data-name="Rectangle 86" width="5.987" height="1.71" transform="translate(846.056 1179.566)" fill="#21409a"/>
      <rect id="Rectangle_87" data-name="Rectangle 87" width="5.987" height="1.71" transform="translate(846.056 1182.986)" fill="#21409a"/>
    </g>
  </g>
</svg>
