<svg xmlns="http://www.w3.org/2000/svg" width="32" height="32" viewBox="0 0 32 32">
  <g id="Group_88" data-name="Group 88" transform="translate(-532 -7)">
    <rect id="Rectangle_40" data-name="Rectangle 40" width="32" height="32" transform="translate(532 7)" fill="#4d4d4d" opacity="0.004"/>
    <g id="envelope_3_" data-name="envelope (3)" transform="translate(536 -41.82)">
      <g id="Group_85" data-name="Group 85" transform="translate(0 54.82)">
        <path id="Path_73" data-name="Path 73" d="M2.337,60.717q.462.326,2.785,1.936t3.56,2.479q.136.1.577.414t.734.516q.292.2.707.441a4.1,4.1,0,0,0,.781.366,2.152,2.152,0,0,0,.679.122h.027a2.155,2.155,0,0,0,.679-.122,4.1,4.1,0,0,0,.781-.366q.414-.245.706-.441t.734-.516q.441-.32.577-.414l6.358-4.416a6.454,6.454,0,0,0,1.657-1.671,3.588,3.588,0,0,0,.666-2.051,2.192,2.192,0,0,0-2.174-2.174h-20a1.94,1.94,0,0,0-1.61.706A2.742,2.742,0,0,0,0,57.293a3.174,3.174,0,0,0,.747,1.855A6.744,6.744,0,0,0,2.337,60.717Z" transform="translate(0 -54.82)" fill="#fff"/>
        <path id="Path_74" data-name="Path 74" d="M22.988,185.619q-4.456,3.016-6.766,4.687-.774.57-1.257.89a7.755,7.755,0,0,1-1.284.652,3.91,3.91,0,0,1-1.494.333H12.16a3.911,3.911,0,0,1-1.494-.333,7.759,7.759,0,0,1-1.284-.652q-.482-.319-1.257-.89-1.834-1.345-6.753-4.687A7.2,7.2,0,0,1,0,184.437v10.787a2.093,2.093,0,0,0,.639,1.535,2.093,2.093,0,0,0,1.535.639h20a2.18,2.18,0,0,0,2.174-2.174V184.437A7.492,7.492,0,0,1,22.988,185.619Z" transform="translate(0 -178.269)" fill="#fff"/>
      </g>
    </g>
  </g>
</svg>
