<svg xmlns="http://www.w3.org/2000/svg" width="87" height="87" viewBox="0 0 87 87">
  <g id="Group_220" data-name="Group 220" transform="translate(-1206 -1159)">
    <g id="Ellipse_8" data-name="Ellipse 8" transform="translate(1206 1159)" fill="none" stroke="#21409a" stroke-width="2">
      <circle cx="43.5" cy="43.5" r="43.5" stroke="none"/>
      <circle cx="43.5" cy="43.5" r="42.5" fill="none"/>
    </g>
    <circle id="Ellipse_5" data-name="Ellipse 5" cx="1.498" cy="1.498" r="1.498" transform="translate(1260.899 1183.417)" fill="#21409a"/>
    <path id="Path_509" data-name="Path 509" d="M277.816,0H261.773a4.706,4.706,0,0,0-4.706,4.706V28.771a1.5,1.5,0,0,0,2.557,1.059s4.456-4.455,5.939-5.942a.126.126,0,0,1,.085-.037h12.169a4.7,4.7,0,0,0,4.706-4.706V4.706A4.706,4.706,0,0,0,277.816,0Zm1.711,19.145a1.708,1.708,0,0,1-1.711,1.711H265.648a3.1,3.1,0,0,0-2.191.9l-.008.008c-.712.714-2.119,2.122-3.386,3.389V4.706A1.709,1.709,0,0,1,261.773,3h16.043a1.709,1.709,0,0,1,1.711,1.711Z" transform="translate(992.602 1177)" fill="#21409a"/>
    <path id="Path_510" data-name="Path 510" d="M371.031,112.467a1.5,1.5,0,0,0-1.5,1.5v3.209a1.5,1.5,0,1,0,3,0v-3.209A1.5,1.5,0,0,0,371.031,112.467Z" transform="translate(891.366 1075.763)" fill="#21409a"/>
    <path id="Path_511" data-name="Path 511" d="M17.873,206.722a7.915,7.915,0,1,0-10.29,0A12.746,12.746,0,0,0,0,218.362v1.6a4.7,4.7,0,0,0,4.706,4.706H20.749a4.7,4.7,0,0,0,4.706-4.706v-1.6A12.746,12.746,0,0,0,17.873,206.722ZM7.808,200.715a4.919,4.919,0,1,1,4.919,4.919A4.925,4.925,0,0,1,7.808,200.715ZM22.46,219.967a1.708,1.708,0,0,1-1.711,1.711H4.706A1.708,1.708,0,0,1,3,219.967v-1.6a9.732,9.732,0,0,1,19.465,0Z" transform="translate(1224 1003.451)" fill="#21409a"/>
  </g>
</svg>
