<svg xmlns="http://www.w3.org/2000/svg" width="40" height="40" viewBox="0 0 40 40">
  <g id="Group_218" data-name="Group 218" transform="translate(-164 -1975)">
    <g id="Rectangle_19" data-name="Rectangle 19" transform="translate(164 1975)" fill="none" stroke="#fff" stroke-width="1">
      <rect width="40" height="40" rx="20" stroke="none"/>
      <rect x="0.5" y="0.5" width="39" height="39" rx="19.5" fill="none"/>
    </g>
    <g id="instagram_2_" data-name="instagram (2)" transform="translate(173 1984)">
      <g id="Group_17" data-name="Group 17">
        <g id="Group_16" data-name="Group 16">
          <path id="Path_66" data-name="Path 66" d="M15.28,0H6.945A6.946,6.946,0,0,0,0,6.945V15.28a6.946,6.946,0,0,0,6.945,6.945H15.28a6.946,6.946,0,0,0,6.945-6.945V6.945A6.946,6.946,0,0,0,15.28,0Zm4.862,15.28a4.867,4.867,0,0,1-4.862,4.862H6.945A4.867,4.867,0,0,1,2.084,15.28V6.945A4.867,4.867,0,0,1,6.945,2.084H15.28a4.867,4.867,0,0,1,4.862,4.862Z" fill="#fff"/>
        </g>
      </g>
      <g id="Group_19" data-name="Group 19" transform="translate(5.556 5.556)">
        <g id="Group_18" data-name="Group 18">
          <path id="Path_67" data-name="Path 67" d="M133.556,128a5.556,5.556,0,1,0,5.556,5.556A5.557,5.557,0,0,0,133.556,128Zm0,9.029a3.473,3.473,0,1,1,3.473-3.473A3.477,3.477,0,0,1,133.556,137.029Z" transform="translate(-128 -128)" fill="#fff"/>
        </g>
      </g>
      <g id="Group_21" data-name="Group 21" transform="translate(16.345 4.399)">
        <g id="Group_20" data-name="Group 20">
          <circle id="Ellipse_3" data-name="Ellipse 3" cx="0.74" cy="0.74" r="0.74" fill="#fff"/>
        </g>
      </g>
    </g>
  </g>
</svg>
