<svg xmlns="http://www.w3.org/2000/svg" xmlns:xlink="http://www.w3.org/1999/xlink" width="156" height="156" viewBox="0 0 156 156">
  <defs>
    <linearGradient id="linear-gradient" x1="0.963" y1="0.055" x2="-0.155" y2="1.173" gradientUnits="objectBoundingBox">
      <stop offset="0" stop-color="#244ec9"/>
      <stop offset="1" stop-color="#11204d"/>
    </linearGradient>
    <linearGradient id="linear-gradient-2" x1="0.399" x2="0.398" y2="1.602" gradientUnits="objectBoundingBox">
      <stop offset="0" stop-color="#244ec9"/>
      <stop offset="1" stop-color="#0b193c"/>
    </linearGradient>
    <linearGradient id="linear-gradient-3" x1="0.5" y1="-0.045" x2="0.394" y2="1.448" xlink:href="#linear-gradient-2"/>
    <linearGradient id="linear-gradient-4" x1="0.5" y1="0.687" x2="0.5" y2="-0.82" xlink:href="#linear-gradient-2"/>
  </defs>
  <g id="Group_180" data-name="Group 180" transform="translate(-137 -2128)">
    <circle id="Ellipse_10" data-name="Ellipse 10" cx="78" cy="78" r="78" transform="translate(137 2128)" fill="#dfe7fc"/>
    <g id="Group_174" data-name="Group 174" transform="translate(14 37)">
      <g id="Group_169" data-name="Group 169" transform="translate(147 2133)">
        <path id="Path_529" data-name="Path 529" d="M-203.09,6h-90.74a8.788,8.788,0,0,0-8.609,8.732V69.354a8.619,8.619,0,0,0,8.609,8.609h90.74a8.619,8.619,0,0,0,8.608-8.609V14.607A8.618,8.618,0,0,0-203.09,6Zm4.607,63.354a4.613,4.613,0,0,1-4.607,4.608h-90.74a4.613,4.613,0,0,1-4.607-4.608V14.732A4.733,4.733,0,0,1-293.829,10h90.74a4.612,4.612,0,0,1,4.607,4.606V69.354Z" transform="translate(302.438 -6)" fill="url(#linear-gradient)"/>
        <rect id="Rectangle_90" data-name="Rectangle 90" width="100.597" height="11.442" transform="translate(3.546 50.06)" fill="url(#linear-gradient-2)"/>
        <path id="Path_530" data-name="Path 530" d="M-275.141,114.916a2,2,0,0,0-2,2v3.754a2,2,0,0,0,2,2,2,2,0,0,0,2-2v-3.754A2,2,0,0,0-275.141,114.916Z" transform="translate(289.202 -62.989)" fill="#fff"/>
        <path id="Path_531" data-name="Path 531" d="M-254.284,114.916a2,2,0,0,0-2,2v3.754a2,2,0,0,0,2,2,2,2,0,0,0,2-2v-3.754A2,2,0,0,0-254.284,114.916Z" transform="translate(278.288 -62.989)" fill="#fff"/>
        <path id="Path_532" data-name="Path 532" d="M-233.426,114.916a2,2,0,0,0-2,2v3.754a2,2,0,0,0,2,2,2,2,0,0,0,2-2v-3.754A2,2,0,0,0-233.426,114.916Z" transform="translate(267.375 -62.989)" fill="#fff"/>
        <path id="Path_533" data-name="Path 533" d="M-212.569,114.916a2,2,0,0,0-2,2v3.754a2,2,0,0,0,2,2,2,2,0,0,0,2-2v-3.754A2,2,0,0,0-212.569,114.916Z" transform="translate(256.462 -62.989)" fill="#fff"/>
        <path id="Path_534" data-name="Path 534" d="M-191.567,114.916a2,2,0,0,0-2,2v3.754a2,2,0,0,0,2,2,2,2,0,0,0,2-2v-3.754A2,2,0,0,0-191.567,114.916Z" transform="translate(245.472 -62.989)" fill="#fff"/>
        <path id="Path_535" data-name="Path 535" d="M-170.71,114.916a2,2,0,0,0-2,2v3.754a2,2,0,0,0,2,2,2,2,0,0,0,2-2v-3.754A2,2,0,0,0-170.71,114.916Z" transform="translate(234.559 -62.989)" fill="#fff"/>
        <path id="Path_536" data-name="Path 536" d="M-149.852,114.916a2,2,0,0,0-2,2v3.754a2,2,0,0,0,2,2,2,2,0,0,0,2-2v-3.754A2,2,0,0,0-149.852,114.916Z" transform="translate(223.646 -62.989)" fill="#fff"/>
        <path id="Path_537" data-name="Path 537" d="M-128.995,114.916a2,2,0,0,0-2,2v3.754a2,2,0,0,0,2,2,2,2,0,0,0,2-2v-3.754A2,2,0,0,0-128.995,114.916Z" transform="translate(212.732 -62.989)" fill="#fff"/>
        <path id="Path_538" data-name="Path 538" d="M-107.688,114.916a2,2,0,0,0-2,2v3.754a2,2,0,0,0,2,2,2,2,0,0,0,2-2v-3.754A2,2,0,0,0-107.688,114.916Z" transform="translate(201.584 -62.989)" fill="#fff"/>
      </g>
      <path id="Path_539" data-name="Path 539" d="M-117.989,52.3a4.92,4.92,0,0,1-2.357.6c-1.24,0-2.326-1.46-2.326-3.125a1.838,1.838,0,0,0-1.837-1.838,1.838,1.838,0,0,0-1.838,1.838,6.7,6.7,0,0,0,4.55,6.6c.06.962.154,2.141,1.832,2.141,2.074,0,1.817-1.221,1.836-2.219a6.13,6.13,0,0,0,4.945-6.119c0-4.141-4.229-6.4-6.4-6.4-.027,0-2.726-.24-2.726-1.966a2.719,2.719,0,0,1,2.726-2.724,2.488,2.488,0,0,1,1.622.793c.236.236.261.26.261,1.251a1.835,1.835,0,0,0,1.837,1.834,1.841,1.841,0,0,0,1.838-1.841,4.743,4.743,0,0,0-1.337-3.844,6.467,6.467,0,0,0-2.77-1.66c-.056-.965-.175-2.148-1.833-2.148-1.678,0-1.837,1.241-1.837,2.256v.12a6.094,6.094,0,0,0-4.183,5.963c0,4.211,4.377,5.635,6.388,5.641.552.045,2.737,1.013,2.737,2.725A2.222,2.222,0,0,1-117.989,52.3Z" transform="translate(357.3 2112.626)" fill="url(#linear-gradient-3)"/>
      <path id="Path_540" data-name="Path 540" d="M-258.518,49.648h-3.473V46.31h3.473a.944.944,0,0,0,.944-.944.945.945,0,0,0-.944-.945h-3.473V39.79a2.234,2.234,0,0,0-.4-1.474,1.272,1.272,0,0,0-1.035-.421,1.219,1.219,0,0,0-1,.419,2.26,2.26,0,0,0-.392,1.477v4.631h-6.533l-2.778-4.2c-.238-.375-.462-.726-.678-1.064a4.748,4.748,0,0,0-.566-.736,1.819,1.819,0,0,0-.554-.387,1.834,1.834,0,0,0-.757-.137,1.91,1.91,0,0,0-1.067.322,1.768,1.768,0,0,0-.7.809,4.143,4.143,0,0,0-.187,1.416v3.98h-3.438a.945.945,0,0,0-.944.945.945.945,0,0,0,.945.944h3.438v3.338h-3.438a.945.945,0,0,0-.945.945.944.944,0,0,0,.945.944h3.438v5.288a2.188,2.188,0,0,0,.411,1.459,1.277,1.277,0,0,0,1.036.436,1.3,1.3,0,0,0,1.029-.437,2.135,2.135,0,0,0,.418-1.458V51.537h5.911l3.2,4.905c.222.324.452.651.681.972a4.606,4.606,0,0,0,.67.754,2.071,2.071,0,0,0,.683.418,2.516,2.516,0,0,0,.852.133c.865,0,1.751-.265,1.751-2.229V51.537h3.473a.945.945,0,0,0,.945-.945A.945.945,0,0,0-258.518,49.648Zm-6.294-3.338v3.338h-3.078L-270.1,46.31Zm-10.926-3.835,1.27,1.946h-1.27Zm0,7.173V46.31h2.5l2.177,3.338Zm10.926,4.658-1.829-2.769h1.829v2.769Z" transform="translate(439.274 2110.312)" fill="url(#linear-gradient-4)"/>
      <g id="Group_171" data-name="Group 171" transform="translate(187.495 2147.492)">
        <path id="Path_541" data-name="Path 541" d="M-217.261,49.223a.237.237,0,0,1-.187-.091.239.239,0,0,1,.04-.335c.014-.011.352-.276.987-.7a.238.238,0,0,1,.33.067.238.238,0,0,1-.067.33c-.617.41-.953.673-.956.676A.238.238,0,0,1-217.261,49.223Z" transform="translate(217.5 -42.499)" fill="#0b193c"/>
        <path id="Path_542" data-name="Path 542" d="M-210.982,41.207a.239.239,0,0,1-.209-.123.239.239,0,0,1,.092-.324c.684-.381,1.4-.747,2.121-1.087a.238.238,0,0,1,.318.114.238.238,0,0,1-.114.317c-.714.336-1.418.7-2.093,1.072A.235.235,0,0,1-210.982,41.207Zm29.573-1.313a.236.236,0,0,1-.1-.022c-.714-.334-1.441-.644-2.162-.921a.239.239,0,0,1-.137-.308.24.24,0,0,1,.308-.137c.731.282,1.468.6,2.192.934a.238.238,0,0,1,.115.317A.239.239,0,0,1-181.41,39.894Zm-25.292-.7a.238.238,0,0,1-.222-.152.238.238,0,0,1,.135-.308c.739-.289,1.494-.557,2.246-.794a.24.24,0,0,1,.3.156.239.239,0,0,1-.156.3c-.742.234-1.487.5-2.216.783A.233.233,0,0,1-206.7,39.191Zm20.877-.994a.247.247,0,0,1-.069-.01c-.75-.227-1.514-.428-2.271-.6a.238.238,0,0,1-.181-.284.239.239,0,0,1,.284-.181c.769.171,1.546.375,2.307.605a.238.238,0,0,1,.159.3A.238.238,0,0,1-185.824,38.2Zm-16.366-.429a.238.238,0,0,1-.232-.182.238.238,0,0,1,.176-.288c.774-.186,1.56-.346,2.336-.475a.237.237,0,0,1,.274.2.238.238,0,0,1-.2.274c-.765.127-1.539.284-2.3.468A.247.247,0,0,1-202.19,37.769Zm11.749-.6-.034,0c-.77-.11-1.556-.191-2.335-.24a.238.238,0,0,1-.223-.253.229.229,0,0,1,.253-.223c.791.051,1.59.133,2.372.244a.238.238,0,0,1,.2.269A.239.239,0,0,1-190.441,37.173ZM-197.524,37a.238.238,0,0,1-.237-.217.238.238,0,0,1,.216-.259c.792-.072,1.594-.114,2.381-.124h0a.238.238,0,0,1,.238.235.238.238,0,0,1-.235.242c-.776.01-1.565.051-2.345.123Z" transform="translate(214.214 -36.396)" fill="#0b193c"/>
        <path id="Path_543" data-name="Path 543" d="M-143.478,46.061a.239.239,0,0,1-.122-.033q-.516-.305-1.028-.588a.238.238,0,0,1-.093-.324.238.238,0,0,1,.323-.093q.52.286,1.042.595a.239.239,0,0,1,.084.327A.239.239,0,0,1-143.478,46.061Z" transform="translate(179.435 -40.894)" fill="#0b193c"/>
        <g id="Group_170" data-name="Group 170" transform="translate(33.723 2.393)">
          <path id="Path_544" data-name="Path 544" d="M-142.11,45.508a14.4,14.4,0,0,0-4.656-.259l1.9-1.479.517-2.355A14.4,14.4,0,0,0-142.11,45.508Z" transform="translate(146.766 -41.415)" fill="#0b193c"/>
        </g>
      </g>
      <g id="Group_173" data-name="Group 173" transform="translate(187.733 2162.268)">
        <path id="Path_545" data-name="Path 545" d="M-139.3,68.553a.239.239,0,0,1-.2-.107.238.238,0,0,1,.067-.33c.617-.41.953-.673.956-.676a.238.238,0,0,1,.335.04.239.239,0,0,1-.04.335c-.015.011-.353.276-.988.7A.234.234,0,0,1-139.3,68.553Z" transform="translate(176.469 -67.389)" fill="#0b193c"/>
        <path id="Path_546" data-name="Path 546" d="M-191.82,76.213a.239.239,0,0,1-.238-.235.239.239,0,0,1,.235-.242c.774-.01,1.564-.051,2.345-.123a.244.244,0,0,1,.259.216.238.238,0,0,1-.216.259c-.794.072-1.6.114-2.381.124Zm-2.365-.058h-.015c-.789-.05-1.587-.132-2.372-.244a.238.238,0,0,1-.2-.269.24.24,0,0,1,.269-.2c.773.111,1.559.191,2.335.24a.238.238,0,0,1,.223.253A.238.238,0,0,1-194.185,76.155Zm7.075-.366a.238.238,0,0,1-.235-.2.238.238,0,0,1,.2-.275c.768-.128,1.542-.285,2.3-.469a.24.24,0,0,1,.288.176.239.239,0,0,1-.176.288c-.771.185-1.557.345-2.336.475A.222.222,0,0,1-187.11,75.789Zm-11.757-.3a.237.237,0,0,1-.051-.006c-.771-.171-1.548-.375-2.307-.606a.238.238,0,0,1-.159-.3.238.238,0,0,1,.3-.159c.748.227,1.512.428,2.271.6a.239.239,0,0,1,.181.285A.239.239,0,0,1-198.867,75.489Zm16.357-.807a.239.239,0,0,1-.227-.166.238.238,0,0,1,.155-.3c.739-.233,1.485-.5,2.216-.783a.238.238,0,0,1,.309.135.238.238,0,0,1-.135.309c-.741.29-1.5.558-2.247.794A.251.251,0,0,1-182.51,74.683Zm-20.884-.564a.246.246,0,0,1-.086-.016c-.729-.281-1.467-.6-2.192-.933a.239.239,0,0,1-.115-.317.239.239,0,0,1,.317-.115c.716.334,1.443.644,2.162.92a.239.239,0,0,1,.137.308A.239.239,0,0,1-203.393,74.119Zm25.289-1.16a.238.238,0,0,1-.215-.137.238.238,0,0,1,.114-.318c.714-.335,1.418-.7,2.093-1.072a.238.238,0,0,1,.324.092.238.238,0,0,1-.092.324c-.685.381-1.4.747-2.122,1.087A.243.243,0,0,1-178.1,72.958Z" transform="translate(211.144 -69.489)" fill="#0b193c"/>
        <path id="Path_547" data-name="Path 547" d="M-211.146,71.723a.238.238,0,0,1-.115-.03q-.519-.286-1.041-.6a.238.238,0,0,1-.083-.327.239.239,0,0,1,.327-.083q.516.306,1.028.588a.238.238,0,0,1,.093.324A.238.238,0,0,1-211.146,71.723Z" transform="translate(214.603 -69.098)" fill="#0b193c"/>
        <g id="Group_172" data-name="Group 172" transform="translate(0 0.239)">
          <path id="Path_548" data-name="Path 548" d="M-217,67.889a14.413,14.413,0,0,0,4.656.259l-1.9,1.479-.517,2.355A14.4,14.4,0,0,0-217,67.889Z" transform="translate(217 -67.889)" fill="#0b193c"/>
        </g>
      </g>
    </g>
  </g>
</svg>
