<svg id="online-money" xmlns="http://www.w3.org/2000/svg" xmlns:xlink="http://www.w3.org/1999/xlink" width="48.754" height="51.93" viewBox="0 0 48.754 51.93">
  <defs>
    <linearGradient id="linear-gradient" x1="0.5" x2="0.5" y2="1" gradientUnits="objectBoundingBox">
      <stop offset="0" stop-color="#172f74"/>
      <stop offset="1" stop-color="#224ac0"/>
    </linearGradient>
  </defs>
  <path id="Path_642" data-name="Path 642" d="M46.211,37a9.211,9.211,0,1,0,9.211,9.211A9.211,9.211,0,0,0,46.211,37Zm1.842,8.29a3.685,3.685,0,1,1,0,7.369h-.921V54.5H45.29V52.659h-.921a3.685,3.685,0,0,1-3.685-3.685h1.842a1.848,1.848,0,0,0,1.842,1.842h.921V47.133h-.921a3.685,3.685,0,0,1,0-7.369h.921V37.921h1.842v1.842h.921a3.685,3.685,0,0,1,3.685,3.685H49.9a1.848,1.848,0,0,0-1.842-1.842h-.921V45.29Z" transform="translate(-9.432 -6.256)" fill="url(#linear-gradient)"/>
  <path id="Path_643" data-name="Path 643" d="M43,43.842a1.848,1.848,0,0,0,1.842,1.842h.921V42h-.921A1.848,1.848,0,0,0,43,43.842Z" transform="translate(-9.905 -6.744)" fill="url(#linear-gradient)"/>
  <path id="Path_644" data-name="Path 644" d="M45.975,34A11.975,11.975,0,1,0,57.95,45.975,11.975,11.975,0,0,0,45.975,34Zm0,23.029A11.054,11.054,0,1,1,57.029,45.975,11.054,11.054,0,0,1,45.975,57.029Z" transform="translate(-9.196 -6.02)" fill="url(#linear-gradient)"/>
  <path id="Path_645" data-name="Path 645" d="M48,51.685h.921a1.842,1.842,0,0,0,0-3.685H48Z" transform="translate(-10.3 -7.124)" fill="url(#linear-gradient)"/>
  <path id="Path_646" data-name="Path 646" d="M35.772,15.665l-3.51,3.519a.934.934,0,0,1-1.308,0l-1.842-1.842,1.308-1.308,1.188,1.2,3.049-3.049a4.607,4.607,0,1,0,1.115,1.483Z" transform="translate(-8.647 -4.645)" fill="url(#linear-gradient)"/>
  <path id="Path_647" data-name="Path 647" d="M35.29,4.921a.855.855,0,0,0,.636-.267A.874.874,0,0,0,36.211,4H27a.921.921,0,0,0,.921.921Z" transform="translate(-8.644 -4)" fill="url(#linear-gradient)"/>
  <path id="Path_648" data-name="Path 648" d="M31.021,42.688A13.817,13.817,0,0,1,42.95,29.93V4.921A.921.921,0,0,0,42.029,4H37.423a2.763,2.763,0,0,1-2.763,2.763H27.29A2.772,2.772,0,0,1,24.527,4H19.921A.921.921,0,0,0,19,4.921V32.159l6.651-5.923a3.694,3.694,0,0,1,5.057.138l.239.239a3.708,3.708,0,0,1,.461,4.652L25.448,40.2v2.266l.111.221Zm-.046-19.344a6.448,6.448,0,1,1,4.357-11.183l.516-.525,1.308,1.308-.654.645a6.437,6.437,0,0,1-5.527,9.755Z" transform="translate(-8.013 -4)" fill="url(#linear-gradient)"/>
  <path id="Path_649" data-name="Path 649" d="M22.822,40.616l6.107-9.175a1.829,1.829,0,0,0-.23-2.321l-.239-.239a1.831,1.831,0,0,0-2.524-.074l-7.093,6.319a4.606,4.606,0,0,1-3.3,1.391h-1.17V34.674h1.17a2.753,2.753,0,0,0,.672-.092V19.19a2.8,2.8,0,0,0-1.244.866L7.365,35.1a2.814,2.814,0,0,0-.286,1.446l.838,11.818,1.833,8.217a1.506,1.506,0,0,1,.018.2H19.9a1.092,1.092,0,0,1,.046-.295l.921-2.763a.975.975,0,0,1,.221-.359l1.741-1.732.755-1.52V45.949l-.82-1.649a.921.921,0,0,1-.1-.415V41.123a.891.891,0,0,1,.157-.507Z" transform="translate(-7.073 -4.852)" fill="url(#linear-gradient)"/>
</svg>
