<svg xmlns="http://www.w3.org/2000/svg" xmlns:xlink="http://www.w3.org/1999/xlink" width="88" height="88" viewBox="0 0 88 88">
  <defs>
    <linearGradient id="linear-gradient" x1="0.5" y1="1.126" x2="0.5" y2="-0.153" gradientUnits="objectBoundingBox">
      <stop offset="0" stop-color="#21409a"/>
      <stop offset="1" stop-color="#133d77"/>
    </linearGradient>
  </defs>
  <g id="Group_217" data-name="Group 217" transform="translate(-4481 -2073)">
    <g id="Group_6" data-name="Group 6" transform="translate(4267 363)">
      <g id="Ellipse_2" data-name="Ellipse 2" transform="translate(214 1710)" fill="none" stroke="#21409a" stroke-width="2">
        <circle cx="44" cy="44" r="44" stroke="none"/>
        <circle cx="44" cy="44" r="43" fill="none"/>
      </g>
      <g id="visa_2_" data-name="visa (2)" transform="translate(238.075 1730.755)">
        <path id="Path_30" data-name="Path 30" d="M42.064,24.669l-8.851-8.851a4.311,4.311,0,0,0-.833-.63V.852A.852.852,0,0,0,31.528,0H4.261A4.266,4.266,0,0,0,0,4.261V38.345a4.266,4.266,0,0,0,4.261,4.261H24.755a9.382,9.382,0,0,0,9.33,8.521h9.373a.852.852,0,0,0,.852-.852V30.091A7.617,7.617,0,0,0,42.064,24.669ZM1.7,38.345V4.261A2.556,2.556,0,0,1,4.261,1.7H30.676V33.732l-5.983-5.983a4.261,4.261,0,1,0-6.02,6.028L19.7,34.8c.006.006.008.014.014.02s.014.007.02.013l4.231,4.237a2.543,2.543,0,0,1,.751,1.8L4.261,40.9A2.556,2.556,0,0,1,1.7,38.345Zm18.172-5.776a2.545,2.545,0,0,1,0-3.616,2.611,2.611,0,0,1,3.609,0l.446.446-3.614,3.614Zm22.73,16.854H34.085a7.677,7.677,0,0,1-7.669-7.669V40.88A4.239,4.239,0,0,0,25.17,37.87l-3.647-3.652L25.137,30.6l8.345,8.345a.852.852,0,0,0,1.2-1.2L32.38,35.436V17.4l8.479,8.477a5.93,5.93,0,0,1,1.747,4.217Zm0,0" fill="url(#linear-gradient)"/>
        <path id="Path_31" data-name="Path 31" d="M32.852,38.817a.852.852,0,0,0,.852-.852V34.556a.852.852,0,0,1,.852-.852h3.408a.852.852,0,1,0,0-1.7H34.556A2.556,2.556,0,0,0,32,34.556v3.408A.852.852,0,0,0,32.852,38.817Zm0,0" transform="translate(-28.592 -28.592)" fill="url(#linear-gradient)"/>
        <path id="Path_32" data-name="Path 32" d="M37.965,309.113H34.556a.852.852,0,0,1-.852-.852v-3.408a.852.852,0,1,0-1.7,0v3.408a2.556,2.556,0,0,0,2.556,2.556h3.408a.852.852,0,0,0,0-1.7Zm0,0" transform="translate(-28.592 -271.62)" fill="url(#linear-gradient)"/>
        <path id="Path_33" data-name="Path 33" d="M89.042,64.521a8.521,8.521,0,1,0-8.521,8.521A8.521,8.521,0,0,0,89.042,64.521Zm-1.763-.852h-1.67a11.88,11.88,0,0,0-1.21-4.747A6.817,6.817,0,0,1,87.279,63.669Zm-7.61-5.709v5.709H77.143C77.331,60.786,78.453,58.659,79.669,57.96Zm0,7.414v5.709c-1.216-.7-2.338-2.828-2.526-5.709Zm1.7,5.709V65.373H83.9C83.712,68.257,82.589,70.384,81.373,71.083Zm0-7.414V57.96c1.216.7,2.338,2.828,2.526,5.709Zm-4.73-4.747a11.88,11.88,0,0,0-1.21,4.747h-1.67A6.817,6.817,0,0,1,76.643,58.922Zm-2.88,6.451h1.67a11.88,11.88,0,0,0,1.21,4.747A6.817,6.817,0,0,1,73.763,65.373ZM84.4,70.12a11.88,11.88,0,0,0,1.21-4.747h1.67A6.817,6.817,0,0,1,84.4,70.12Zm0,0" transform="translate(-64.331 -50.035)" fill="url(#linear-gradient)"/>
      </g>
    </g>
  </g>
</svg>
