<svg xmlns="http://www.w3.org/2000/svg" width="88" height="88" viewBox="0 0 88 88">
  <g id="Group_217" data-name="Group 217" transform="translate(-2966 -2067)">
    <g id="Ellipse_2" data-name="Ellipse 2" transform="translate(2966 2067)" fill="none" stroke="#21409a" stroke-width="2">
      <circle cx="44" cy="44" r="44" stroke="none"/>
      <circle cx="44" cy="44" r="43" fill="none"/>
    </g>
    <g id="credit-card_1_" data-name="credit-card (1)" transform="translate(2984.264 2082.773)">
      <path id="Path_35" data-name="Path 35" d="M1.875,45.924a6.565,6.565,0,0,1,.2-1.594L7.1,24.209A2.8,2.8,0,0,1,8.356,22.5c.027-.017.054-.036.08-.055l8.438-6.478v11.77L13.4,31.213l1.326,1.325L26.879,20.384a2.378,2.378,0,0,1,4.059,1.681v.146a2.365,2.365,0,0,1-.556,1.528l-7.64,8.444a.937.937,0,0,0-.23.772l.071.469c.937,6.1-2.522,11.4-8.813,13.5l.593,1.781a15.719,15.719,0,0,0,7.085-4.643H28.2l-3.53,5.042a10.257,10.257,0,0,1-4.827,3.743l-4.234,1.587a.938.938,0,0,0-.607.878v.937h1.875v-.288L20.5,54.6a12.142,12.142,0,0,0,5.706-4.423l4.283-6.117H44.064a2.812,2.812,0,0,0,2.812-2.813V2.813A2.812,2.812,0,0,0,44.064,0H19.688a2.812,2.812,0,0,0-2.812,2.813V13.6L7.33,20.928a4.664,4.664,0,0,0-2.048,2.828L.252,43.876A8.409,8.409,0,0,0,0,45.924V56.251H1.875ZM19.688,1.875H44.064A.938.938,0,0,1,45,2.813V41.251a.938.938,0,0,1-.938.937H22.782a13.532,13.532,0,0,0,1.651-9.051v-.027l7.357-8.132a4.257,4.257,0,0,0,1.024-2.768v-.146a4.252,4.252,0,0,0-7.259-3.007l-6.8,6.8V2.813A.938.938,0,0,1,19.688,1.875Zm0,0" transform="translate(0)" fill="#21409a"/>
      <path id="Path_36" data-name="Path 36" d="M303.346,48.2a4.68,4.68,0,0,0,4.045-7.048,4.634,4.634,0,0,0,.643-2.327,4.688,4.688,0,1,0-9.375,0,4.63,4.63,0,0,0,.643,2.327,4.68,4.68,0,0,0,4.044,7.048Zm0-1.875a2.787,2.787,0,0,1-2.673-3.656,4.647,4.647,0,0,0,5.344,0,2.786,2.786,0,0,1-2.671,3.656Zm0-10.313a2.813,2.813,0,1,1-2.812,2.813A2.813,2.813,0,0,1,303.346,36.008Zm0,0" transform="translate(-265.845 -30.383)" fill="#21409a"/>
      <path id="Path_37" data-name="Path 37" d="M187.734,51.2h1.875V65.262h-1.875Zm0,0" transform="translate(-167.109 -45.574)" fill="#21409a"/>
      <path id="Path_38" data-name="Path 38" d="M221.867,59.734h1.875v9.375h-1.875Zm0,0" transform="translate(-197.492 -53.172)" fill="#21409a"/>
      <path id="Path_39" data-name="Path 39" d="M281.6,256h1.875v3.75H281.6Zm0,0" transform="translate(-250.663 -227.874)" fill="#21409a"/>
      <path id="Path_40" data-name="Path 40" d="M281.6,307.2h1.875v4.688H281.6Zm0,0" transform="translate(-250.663 -273.449)" fill="#21409a"/>
      <path id="Path_41" data-name="Path 41" d="M341.332,187.734h1.875v18.751h-1.875Zm0,0" transform="translate(-303.831 -167.109)" fill="#21409a"/>
      <path id="Path_42" data-name="Path 42" d="M375.465,187.734h1.875v18.751h-1.875Zm0,0" transform="translate(-334.214 -167.109)" fill="#21409a"/>
    </g>
  </g>
</svg>
