<svg xmlns="http://www.w3.org/2000/svg" width="32" height="32" viewBox="0 0 32 32">
  <g id="Group_89" data-name="Group 89" transform="translate(-566 -7)">
    <rect id="Rectangle_41" data-name="Rectangle 41" width="32" height="32" transform="translate(566 7)" fill="#4d4d4d" opacity="0.004"/>
    <g id="telephone-handle-silhouette" transform="translate(570.99 12)">
      <path id="Path_71" data-name="Path 71" d="M22.866,17.748q-.1-.293-1.236-.862-.309-.179-.878-.488t-1.033-.57q-.464-.26-.87-.5-.065-.049-.407-.285a4.573,4.573,0,0,0-.578-.35,1.065,1.065,0,0,0-.464-.114,1.35,1.35,0,0,0-.813.464,7.921,7.921,0,0,0-.895,1.009,9.808,9.808,0,0,1-.862,1.009,1.24,1.24,0,0,1-.748.464,1.106,1.106,0,0,1-.366-.081c-.146-.054-.257-.1-.334-.138s-.206-.114-.39-.228-.288-.176-.309-.187A17.1,17.1,0,0,1,8.86,14.056a17.087,17.087,0,0,1-2.831-3.823q-.016-.033-.187-.309t-.228-.391A3.526,3.526,0,0,1,5.476,9.2a1.1,1.1,0,0,1-.081-.366,1.24,1.24,0,0,1,.464-.748,9.8,9.8,0,0,1,1.009-.862,7.917,7.917,0,0,0,1.009-.895,1.35,1.35,0,0,0,.464-.813,1.062,1.062,0,0,0-.114-.464,4.522,4.522,0,0,0-.35-.578q-.236-.342-.285-.407-.244-.406-.5-.87t-.57-1.033q-.309-.569-.488-.878Q5.46.147,5.167.049A.911.911,0,0,0,4.826,0,5.36,5.36,0,0,0,3.679.163,6.442,6.442,0,0,0,2.564.5,4.361,4.361,0,0,0,.84,2.489,6.307,6.307,0,0,0,.01,5.515a6.283,6.283,0,0,0,.057.854,7.019,7.019,0,0,0,.2.936q.146.521.236.773t.333.9q.244.651.293.8a14.736,14.736,0,0,0,1.35,2.847,24.122,24.122,0,0,0,3.506,4.3,24.132,24.132,0,0,0,4.3,3.506,14.759,14.759,0,0,0,2.847,1.35q.147.049.8.293t.9.333q.252.09.773.236a7.081,7.081,0,0,0,.936.2,6.035,6.035,0,0,0,3.88-.773,4.358,4.358,0,0,0,1.984-1.725,6.407,6.407,0,0,0,.342-1.114,5.348,5.348,0,0,0,.163-1.147A.907.907,0,0,0,22.866,17.748Z" transform="translate(0)" fill="#fff"/>
    </g>
  </g>
</svg>
