<svg xmlns="http://www.w3.org/2000/svg" width="42" height="42" viewBox="0 0 42 42">
  <g id="Group_211" data-name="Group 211" transform="translate(-1051 -748)">
    <g id="Rectangle_109" data-name="Rectangle 109" transform="translate(1051 748)" fill="#21409a" stroke="#707070" stroke-width="1" opacity="0">
      <rect width="42" height="42" stroke="none"/>
      <rect x="0.5" y="0.5" width="41" height="41" fill="none"/>
    </g>
    <g id="refund" transform="translate(1053.686 756.219)">
      <path id="Path_636" data-name="Path 636" d="M35.172,37.828H3.323a1.254,1.254,0,1,0,0,2.508H33.918V62.467H7.21a4.7,4.7,0,0,1-1.516-9.152l-.9,1.286a1.254,1.254,0,1,0,2.054,1.439l2.634-3.762a1.254,1.254,0,0,0-.308-1.746L5.412,47.9a1.254,1.254,0,0,0-1.438,2.054l1.259.881A7.209,7.209,0,0,0,7.21,64.975H35.172a1.254,1.254,0,0,0,1.254-1.254V39.082A1.254,1.254,0,0,0,35.172,37.828Z" transform="translate(0 -37.828)" fill="#21409a"/>
      <path id="Path_637" data-name="Path 637" d="M120.726,81.53a1.254,1.254,0,0,0-2.508,0c0,2.05,1.764,3.773,4.13,4.231v1.213a1.254,1.254,0,1,0,2.508,0V85.761c2.365-.458,4.13-2.18,4.13-4.231s-1.764-3.773-4.13-4.231V73.691c.943.31,1.622.947,1.622,1.645a1.254,1.254,0,1,0,2.508,0c0-2.05-1.764-3.773-4.13-4.231V69.892a1.254,1.254,0,0,0-2.508,0V71.1c-2.365.458-4.13,2.18-4.13,4.231s1.764,3.773,4.13,4.231v3.608C121.4,82.864,120.726,82.228,120.726,81.53Zm5.751,0c0,.7-.679,1.334-1.622,1.645V79.885C125.8,80.2,126.477,80.832,126.477,81.53Zm-5.751-6.195c0-.7.679-1.335,1.622-1.645V76.98C121.4,76.67,120.726,76.033,120.726,75.335Z" transform="translate(-103.719 -64.859)" fill="#21409a"/>
    </g>
  </g>
</svg>
