<svg xmlns="http://www.w3.org/2000/svg" width="40" height="40" viewBox="0 0 40 40">
  <g id="Group_219" data-name="Group 219" transform="translate(-214 -1975)">
    <path id="twitter_1_" data-name="twitter (1)" d="M26.294,37.076a10.58,10.58,0,0,1-1.842.621,5.744,5.744,0,0,0,1.516-2.415h0a.3.3,0,0,0-.441-.351h0A10.63,10.63,0,0,1,22.711,36.1a.718.718,0,0,1-.176.022.747.747,0,0,1-.493-.188,5.76,5.76,0,0,0-3.811-1.438,6.159,6.159,0,0,0-1.825.282,5.581,5.581,0,0,0-3.761,4.021,6.145,6.145,0,0,0-.137,2.121.206.206,0,0,1-.052.162.214.214,0,0,1-.159.072h-.02A15.1,15.1,0,0,1,1.9,35.6h0a.3.3,0,0,0-.494.039h0a5.767,5.767,0,0,0,.937,7,5.162,5.162,0,0,1-1.314-.509h0a.3.3,0,0,0-.447.26h0a5.768,5.768,0,0,0,3.364,5.314H3.819a5.184,5.184,0,0,1-.971-.093h0A.3.3,0,0,0,2.505,48h0a5.773,5.773,0,0,0,4.56,3.927,10.629,10.629,0,0,1-5.953,1.808H.446a.441.441,0,0,0-.431.333.456.456,0,0,0,.218.5,15.81,15.81,0,0,0,7.945,2.142,16.027,16.027,0,0,0,6.789-1.44,14.992,14.992,0,0,0,4.967-3.722,16.32,16.32,0,0,0,3.042-5.094,16.093,16.093,0,0,0,1.034-5.576V40.8a.98.98,0,0,1,.367-.763,11.385,11.385,0,0,0,2.29-2.514h0a.3.3,0,0,0-.373-.443Z" transform="translate(221 1949.509)" fill="#fff"/>
    <g id="Rectangle_20" data-name="Rectangle 20" transform="translate(214 1975)" fill="none" stroke="#fff" stroke-width="1">
      <rect width="40" height="40" rx="20" stroke="none"/>
      <rect x="0.5" y="0.5" width="39" height="39" rx="19.5" fill="none"/>
    </g>
  </g>
</svg>
